<ttFont>
<head>
    <!-- Most of this table will be recalculated by the compiler -->
    <tableVersion value="1.0"/>
    <fontRevision value="1.013"/>
    <checkSumAdjustment value="0x920872d2"/>
    <magicNumber value="0x5f0f3cf5"/>
    <flags value="00000000 00000011"/>
    <unitsPerEm value="1000"/>
    <created value="Tue Apr  9 18:55:09 2019"/>
    <modified value="Tue Apr  9 18:55:09 2019"/>
    <xMin value="-226"/>
    <yMin value="-263"/>
    <xMax value="631"/>
    <yMax value="1028"/>
    <macStyle value="00000000 00000000"/>
    <lowestRecPPEM value="6"/>
    <fontDirectionHint value="2"/>
    <indexToLocFormat value="0"/>
    <glyphDataFormat value="0"/>
  </head>
    <TTGlyph name=".notdef" xMin="50" yMin="-250" xMax="450" yMax="750">
      <contour>
        <pt x="50" y="-250" on="1"/>
        <pt x="450" y="-250" on="1"/>
        <pt x="450" y="750" on="1"/>
        <pt x="50" y="750" on="1"/>
      </contour>
      <contour>
        <pt x="100" y="-200" on="1"/>
        <pt x="100" y="700" on="1"/>
        <pt x="400" y="700" on="1"/>
        <pt x="400" y="-200" on="1"/>
      </contour>
    </TTGlyph>
    <TTGlyph name="A" xMin="29" yMin="0" xMax="574" yMax="707">
      <contour>
        <pt x="111" y="0" on="1"/>
        <pt x="40" y="0" on="1"/>
        <pt x="29" y="0" on="0"/>
        <pt x="32" y="14" on="1"/>
        <pt x="85" y="214" on="0"/>
        <pt x="182" y="563" on="0"/>
        <pt x="225" y="707" on="1"/>
        <pt x="363" y="707" on="1"/>
        <pt x="368" y="707" on="0"/>
        <pt x="371" y="704" on="1"/>
        <pt x="373" y="702" on="0"/>
        <pt x="375" y="696" on="1"/>
        <pt x="422" y="535" on="0"/>
        <pt x="522" y="185" on="0"/>
        <pt x="574" y="0" on="1"/>
        <pt x="499" y="0" on="1"/>
        <pt x="494" y="0" on="0"/>
        <pt x="491" y="3" on="1"/>
        <pt x="490" y="5" on="0"/>
        <pt x="487" y="9" on="0"/>
        <pt x="485" y="16" on="1"/>
        <pt x="472" y="66" on="0"/>
        <pt x="445" y="160" on="0"/>
        <pt x="433" y="205" on="1"/>
        <pt x="165" y="205" on="1"/>
        <pt x="152" y="158" on="0"/>
        <pt x="125" y="56" on="0"/>
      </contour>
      <contour>
        <pt x="305" y="627" on="1"/>
        <pt x="285" y="627" on="1"/>
        <pt x="261" y="546" on="0"/>
        <pt x="213" y="379" on="0"/>
        <pt x="186" y="282" on="1"/>
        <pt x="411" y="282" on="1"/>
        <pt x="385" y="373" on="0"/>
        <pt x="335" y="541" on="0"/>
        <pt x="311" y="623" on="1"/>
        <pt x="310" y="627" on="0"/>
      </contour>
    </TTGlyph>
    <TTGlyph name="AE" xMin="8" yMin="0" xMax="580" yMax="700">
      <contour>
        <pt x="91" y="0" on="1"/>
        <pt x="18" y="0" on="1"/>
        <pt x="15" y="0" on="0"/>
        <pt x="8" y="6" on="0"/>
        <pt x="10" y="13" on="1"/>
        <pt x="56" y="185" on="0"/>
        <pt x="145" y="528" on="0"/>
        <pt x="191" y="700" on="1"/>
        <pt x="569" y="700" on="1"/>
        <pt x="574" y="700" on="0"/>
        <pt x="577" y="697" on="1"/>
        <pt x="580" y="694" on="0"/>
        <pt x="580" y="689" on="1"/>
        <pt x="580" y="624" on="1"/>
        <pt x="353" y="624" on="1"/>
        <pt x="358" y="565" on="0"/>
        <pt x="369" y="446" on="0"/>
        <pt x="375" y="387" on="1"/>
        <pt x="529" y="387" on="1"/>
        <pt x="540" y="387" on="0"/>
        <pt x="540" y="376" on="1"/>
        <pt x="540" y="313" on="1"/>
        <pt x="381" y="313" on="1"/>
        <pt x="387" y="254" on="0"/>
        <pt x="398" y="135" on="0"/>
        <pt x="403" y="76" on="1"/>
        <pt x="569" y="76" on="1"/>
        <pt x="580" y="76" on="0"/>
        <pt x="580" y="65" on="1"/>
        <pt x="580" y="0" on="1"/>
        <pt x="340" y="0" on="1"/>
        <pt x="330" y="0" on="0"/>
        <pt x="329" y="8" on="1"/>
        <pt x="325" y="52" on="0"/>
        <pt x="317" y="141" on="0"/>
        <pt x="313" y="185" on="1"/>
        <pt x="139" y="185" on="1"/>
        <pt x="127" y="139" on="0"/>
        <pt x="103" y="46" on="0"/>
      </contour>
      <contour>
        <pt x="267" y="624" on="1"/>
        <pt x="254" y="624" on="1"/>
        <pt x="230" y="533" on="0"/>
        <pt x="183" y="351" on="0"/>
        <pt x="159" y="260" on="1"/>
        <pt x="307" y="260" on="1"/>
        <pt x="299" y="348" on="0"/>
        <pt x="283" y="526" on="0"/>
        <pt x="275" y="614" on="1"/>
        <pt x="274" y="621" on="0"/>
        <pt x="271" y="624" on="0"/>
      </contour>
    </TTGlyph>
    <TTGlyph name="AEacute" xMin="8" yMin="0" xMax="580" yMax="947">
      <contour>
        <pt x="385" y="775" on="1"/>
        <pt x="319" y="775" on="1"/>
        <pt x="348" y="820" on="0"/>
        <pt x="399" y="901" on="0"/>
        <pt x="428" y="947" on="1"/>
        <pt x="521" y="947" on="1"/>
        <pt x="527" y="947" on="0"/>
        <pt x="533" y="938" on="0"/>
        <pt x="528" y="933" on="1"/>
        <pt x="504" y="904" on="0"/>
        <pt x="470" y="863" on="0"/>
        <pt x="432" y="818" on="0"/>
        <pt x="402" y="782" on="1"/>
        <pt x="400" y="780" on="0"/>
        <pt x="391" y="775" on="0"/>
      </contour>
      <contour>
        <pt x="91" y="0" on="1"/>
        <pt x="18" y="0" on="1"/>
        <pt x="15" y="0" on="0"/>
        <pt x="8" y="6" on="0"/>
        <pt x="10" y="13" on="1"/>
        <pt x="56" y="185" on="0"/>
        <pt x="145" y="528" on="0"/>
        <pt x="191" y="700" on="1"/>
        <pt x="569" y="700" on="1"/>
        <pt x="574" y="700" on="0"/>
        <pt x="577" y="697" on="1"/>
        <pt x="580" y="694" on="0"/>
        <pt x="580" y="689" on="1"/>
        <pt x="580" y="624" on="1"/>
        <pt x="353" y="624" on="1"/>
        <pt x="358" y="565" on="0"/>
        <pt x="369" y="446" on="0"/>
        <pt x="375" y="387" on="1"/>
        <pt x="529" y="387" on="1"/>
        <pt x="540" y="387" on="0"/>
        <pt x="540" y="376" on="1"/>
        <pt x="540" y="313" on="1"/>
        <pt x="381" y="313" on="1"/>
        <pt x="387" y="254" on="0"/>
        <pt x="398" y="135" on="0"/>
        <pt x="403" y="76" on="1"/>
        <pt x="569" y="76" on="1"/>
        <pt x="580" y="76" on="0"/>
        <pt x="580" y="65" on="1"/>
        <pt x="580" y="0" on="1"/>
        <pt x="340" y="0" on="1"/>
        <pt x="330" y="0" on="0"/>
        <pt x="329" y="8" on="1"/>
        <pt x="325" y="52" on="0"/>
        <pt x="317" y="141" on="0"/>
        <pt x="313" y="185" on="1"/>
        <pt x="139" y="185" on="1"/>
        <pt x="127" y="139" on="0"/>
        <pt x="103" y="46" on="0"/>
      </contour>
      <contour>
        <pt x="267" y="624" on="1"/>
        <pt x="254" y="624" on="1"/>
        <pt x="230" y="533" on="0"/>
        <pt x="183" y="351" on="0"/>
        <pt x="159" y="260" on="1"/>
        <pt x="307" y="260" on="1"/>
        <pt x="299" y="348" on="0"/>
        <pt x="283" y="526" on="0"/>
        <pt x="275" y="614" on="1"/>
        <pt x="274" y="621" on="0"/>
        <pt x="271" y="624" on="0"/>
      </contour>
    </TTGlyph>
    <TTGlyph name="Aacute" xMin="29" yMin="0" xMax="574" yMax="947">
      <contour>
        <pt x="326" y="775" on="1"/>
        <pt x="260" y="775" on="1"/>
        <pt x="288" y="820" on="0"/>
        <pt x="339" y="901" on="0"/>
        <pt x="368" y="947" on="1"/>
        <pt x="462" y="947" on="1"/>
        <pt x="468" y="947" on="0"/>
        <pt x="474" y="938" on="0"/>
        <pt x="469" y="933" on="1"/>
        <pt x="445" y="904" on="0"/>
        <pt x="411" y="863" on="0"/>
        <pt x="373" y="818" on="0"/>
        <pt x="343" y="782" on="1"/>
        <pt x="341" y="780" on="0"/>
        <pt x="332" y="775" on="0"/>
      </contour>
      <contour>
        <pt x="111" y="0" on="1"/>
        <pt x="40" y="0" on="1"/>
        <pt x="29" y="0" on="0"/>
        <pt x="32" y="14" on="1"/>
        <pt x="85" y="214" on="0"/>
        <pt x="182" y="563" on="0"/>
        <pt x="225" y="707" on="1"/>
        <pt x="363" y="707" on="1"/>
        <pt x="368" y="707" on="0"/>
        <pt x="371" y="704" on="1"/>
        <pt x="373" y="702" on="0"/>
        <pt x="375" y="696" on="1"/>
        <pt x="422" y="535" on="0"/>
        <pt x="522" y="185" on="0"/>
        <pt x="574" y="0" on="1"/>
        <pt x="499" y="0" on="1"/>
        <pt x="494" y="0" on="0"/>
        <pt x="491" y="3" on="1"/>
        <pt x="490" y="5" on="0"/>
        <pt x="487" y="9" on="0"/>
        <pt x="485" y="16" on="1"/>
        <pt x="472" y="66" on="0"/>
        <pt x="445" y="160" on="0"/>
        <pt x="433" y="205" on="1"/>
        <pt x="165" y="205" on="1"/>
        <pt x="152" y="158" on="0"/>
        <pt x="125" y="56" on="0"/>
      </contour>
      <contour>
        <pt x="305" y="627" on="1"/>
        <pt x="285" y="627" on="1"/>
        <pt x="261" y="546" on="0"/>
        <pt x="213" y="379" on="0"/>
        <pt x="186" y="282" on="1"/>
        <pt x="411" y="282" on="1"/>
        <pt x="385" y="373" on="0"/>
        <pt x="335" y="541" on="0"/>
        <pt x="311" y="623" on="1"/>
        <pt x="310" y="627" on="0"/>
      </contour>
    </TTGlyph>
    <TTGlyph name="Abreve" xMin="29" yMin="0" xMax="574" yMax="939">
      <contour>
        <pt x="186" y="939" on="1"/>
        <pt x="206" y="899" on="0"/>
        <pt x="257" y="868" on="0"/>
        <pt x="300" y="868" on="1"/>
        <pt x="343" y="868" on="0"/>
        <pt x="394" y="899" on="0"/>
        <pt x="414" y="939" on="1"/>
        <pt x="466" y="939" on="1"/>
        <pt x="484" y="939" on="0"/>
        <pt x="478" y="918" on="1"/>
        <pt x="464" y="866" on="0"/>
        <pt x="375" y="797" on="0"/>
        <pt x="313" y="797" on="1"/>
        <pt x="287" y="797" on="1"/>
        <pt x="225" y="797" on="0"/>
        <pt x="136" y="866" on="0"/>
        <pt x="122" y="918" on="1"/>
        <pt x="116" y="939" on="0"/>
        <pt x="134" y="939" on="1"/>
      </contour>
      <contour>
        <pt x="111" y="0" on="1"/>
        <pt x="40" y="0" on="1"/>
        <pt x="29" y="0" on="0"/>
        <pt x="32" y="14" on="1"/>
        <pt x="85" y="214" on="0"/>
        <pt x="182" y="563" on="0"/>
        <pt x="225" y="707" on="1"/>
        <pt x="363" y="707" on="1"/>
        <pt x="368" y="707" on="0"/>
        <pt x="371" y="704" on="1"/>
        <pt x="373" y="702" on="0"/>
        <pt x="375" y="696" on="1"/>
        <pt x="422" y="535" on="0"/>
        <pt x="522" y="185" on="0"/>
        <pt x="574" y="0" on="1"/>
        <pt x="499" y="0" on="1"/>
        <pt x="494" y="0" on="0"/>
        <pt x="491" y="3" on="1"/>
        <pt x="490" y="5" on="0"/>
        <pt x="487" y="9" on="0"/>
        <pt x="485" y="16" on="1"/>
        <pt x="472" y="66" on="0"/>
        <pt x="445" y="160" on="0"/>
        <pt x="433" y="205" on="1"/>
        <pt x="165" y="205" on="1"/>
        <pt x="152" y="158" on="0"/>
        <pt x="125" y="56" on="0"/>
      </contour>
      <contour>
        <pt x="305" y="627" on="1"/>
        <pt x="285" y="627" on="1"/>
        <pt x="261" y="546" on="0"/>
        <pt x="213" y="379" on="0"/>
        <pt x="186" y="282" on="1"/>
        <pt x="411" y="282" on="1"/>
        <pt x="385" y="373" on="0"/>
        <pt x="335" y="541" on="0"/>
        <pt x="311" y="623" on="1"/>
        <pt x="310" y="627" on="0"/>
      </contour>
    </TTGlyph>
    <TTGlyph name="Acircumflex" xMin="29" yMin="0" xMax="574" yMax="945">
      <contour>
        <pt x="164" y="776" on="1"/>
        <pt x="95" y="776" on="1"/>
        <pt x="84" y="776" on="0"/>
        <pt x="84" y="783" on="1"/>
        <pt x="84" y="787" on="0"/>
        <pt x="91" y="796" on="0"/>
        <pt x="106" y="809" on="1"/>
        <pt x="118" y="820" on="0"/>
        <pt x="160" y="857" on="0"/>
        <pt x="205" y="899" on="0"/>
        <pt x="245" y="935" on="0"/>
        <pt x="256" y="945" on="1"/>
        <pt x="329" y="945" on="1"/>
        <pt x="337" y="945" on="0"/>
        <pt x="348" y="938" on="0"/>
        <pt x="364" y="925" on="1"/>
        <pt x="372" y="918" on="0"/>
        <pt x="409" y="883" on="0"/>
        <pt x="457" y="839" on="0"/>
        <pt x="506" y="794" on="0"/>
        <pt x="526" y="776" on="1"/>
        <pt x="451" y="776" on="1"/>
        <pt x="440" y="776" on="0"/>
        <pt x="429" y="780" on="0"/>
        <pt x="421" y="786" on="1"/>
        <pt x="406" y="798" on="0"/>
        <pt x="340" y="850" on="0"/>
        <pt x="299" y="882" on="1"/>
        <pt x="259" y="851" on="0"/>
        <pt x="193" y="800" on="0"/>
      </contour>
      <contour>
        <pt x="111" y="0" on="1"/>
        <pt x="40" y="0" on="1"/>
        <pt x="29" y="0" on="0"/>
        <pt x="32" y="14" on="1"/>
        <pt x="85" y="214" on="0"/>
        <pt x="182" y="563" on="0"/>
        <pt x="225" y="707" on="1"/>
        <pt x="363" y="707" on="1"/>
        <pt x="368" y="707" on="0"/>
        <pt x="371" y="704" on="1"/>
        <pt x="373" y="702" on="0"/>
        <pt x="375" y="696" on="1"/>
        <pt x="422" y="535" on="0"/>
        <pt x="522" y="185" on="0"/>
        <pt x="574" y="0" on="1"/>
        <pt x="499" y="0" on="1"/>
        <pt x="494" y="0" on="0"/>
        <pt x="491" y="3" on="1"/>
        <pt x="490" y="5" on="0"/>
        <pt x="487" y="9" on="0"/>
        <pt x="485" y="16" on="1"/>
        <pt x="472" y="66" on="0"/>
        <pt x="445" y="160" on="0"/>
        <pt x="433" y="205" on="1"/>
        <pt x="165" y="205" on="1"/>
        <pt x="152" y="158" on="0"/>
        <pt x="125" y="56" on="0"/>
      </contour>
      <contour>
        <pt x="305" y="627" on="1"/>
        <pt x="285" y="627" on="1"/>
        <pt x="261" y="546" on="0"/>
        <pt x="213" y="379" on="0"/>
        <pt x="186" y="282" on="1"/>
        <pt x="411" y="282" on="1"/>
        <pt x="385" y="373" on="0"/>
        <pt x="335" y="541" on="0"/>
        <pt x="311" y="623" on="1"/>
        <pt x="310" y="627" on="0"/>
      </contour>
    </TTGlyph>
    <TTGlyph name="Adieresis" xMin="29" yMin="0" xMax="574" yMax="903">
      <contour>
        <pt x="249" y="802" on="1"/>
        <pt x="156" y="802" on="1"/>
        <pt x="145" y="802" on="0"/>
        <pt x="145" y="813" on="1"/>
        <pt x="145" y="903" on="1"/>
        <pt x="238" y="903" on="1"/>
        <pt x="249" y="903" on="0"/>
        <pt x="249" y="892" on="1"/>
      </contour>
      <contour>
        <pt x="455" y="802" on="1"/>
        <pt x="362" y="802" on="1"/>
        <pt x="351" y="802" on="0"/>
        <pt x="351" y="813" on="1"/>
        <pt x="351" y="903" on="1"/>
        <pt x="444" y="903" on="1"/>
        <pt x="455" y="903" on="0"/>
        <pt x="455" y="892" on="1"/>
      </contour>
      <contour>
        <pt x="111" y="0" on="1"/>
        <pt x="40" y="0" on="1"/>
        <pt x="29" y="0" on="0"/>
        <pt x="32" y="14" on="1"/>
        <pt x="85" y="214" on="0"/>
        <pt x="182" y="563" on="0"/>
        <pt x="225" y="707" on="1"/>
        <pt x="363" y="707" on="1"/>
        <pt x="368" y="707" on="0"/>
        <pt x="371" y="704" on="1"/>
        <pt x="373" y="702" on="0"/>
        <pt x="375" y="696" on="1"/>
        <pt x="422" y="535" on="0"/>
        <pt x="522" y="185" on="0"/>
        <pt x="574" y="0" on="1"/>
        <pt x="499" y="0" on="1"/>
        <pt x="494" y="0" on="0"/>
        <pt x="491" y="3" on="1"/>
        <pt x="490" y="5" on="0"/>
        <pt x="487" y="9" on="0"/>
        <pt x="485" y="16" on="1"/>
        <pt x="472" y="66" on="0"/>
        <pt x="445" y="160" on="0"/>
        <pt x="433" y="205" on="1"/>
        <pt x="165" y="205" on="1"/>
        <pt x="152" y="158" on="0"/>
        <pt x="125" y="56" on="0"/>
      </contour>
      <contour>
        <pt x="305" y="627" on="1"/>
        <pt x="285" y="627" on="1"/>
        <pt x="261" y="546" on="0"/>
        <pt x="213" y="379" on="0"/>
        <pt x="186" y="282" on="1"/>
        <pt x="411" y="282" on="1"/>
        <pt x="385" y="373" on="0"/>
        <pt x="335" y="541" on="0"/>
        <pt x="311" y="623" on="1"/>
        <pt x="310" y="627" on="0"/>
      </contour>
    </TTGlyph>
    <TTGlyph name="Adotbelow" xMin="29" yMin="-204" xMax="574" yMax="707">
      <contour>
        <pt x="111" y="0" on="1"/>
        <pt x="40" y="0" on="1"/>
        <pt x="29" y="0" on="0"/>
        <pt x="32" y="14" on="1"/>
        <pt x="85" y="214" on="0"/>
        <pt x="182" y="563" on="0"/>
        <pt x="225" y="707" on="1"/>
        <pt x="363" y="707" on="1"/>
        <pt x="368" y="707" on="0"/>
        <pt x="371" y="704" on="1"/>
        <pt x="373" y="702" on="0"/>
        <pt x="375" y="696" on="1"/>
        <pt x="422" y="535" on="0"/>
        <pt x="522" y="185" on="0"/>
        <pt x="574" y="0" on="1"/>
        <pt x="499" y="0" on="1"/>
        <pt x="494" y="0" on="0"/>
        <pt x="491" y="3" on="1"/>
        <pt x="490" y="5" on="0"/>
        <pt x="487" y="9" on="0"/>
        <pt x="485" y="16" on="1"/>
        <pt x="472" y="66" on="0"/>
        <pt x="445" y="160" on="0"/>
        <pt x="433" y="205" on="1"/>
        <pt x="165" y="205" on="1"/>
        <pt x="152" y="158" on="0"/>
        <pt x="125" y="56" on="0"/>
      </contour>
      <contour>
        <pt x="305" y="627" on="1"/>
        <pt x="285" y="627" on="1"/>
        <pt x="261" y="546" on="0"/>
        <pt x="213" y="379" on="0"/>
        <pt x="186" y="282" on="1"/>
        <pt x="411" y="282" on="1"/>
        <pt x="385" y="373" on="0"/>
        <pt x="335" y="541" on="0"/>
        <pt x="311" y="623" on="1"/>
        <pt x="310" y="627" on="0"/>
      </contour>
      <contour>
        <pt x="356" y="-204" on="1"/>
        <pt x="255" y="-204" on="1"/>
        <pt x="244" y="-204" on="0"/>
        <pt x="244" y="-193" on="1"/>
        <pt x="244" y="-102" on="1"/>
        <pt x="345" y="-102" on="1"/>
        <pt x="356" y="-102" on="0"/>
        <pt x="356" y="-113" on="1"/>
      </contour>
    </TTGlyph>
    <TTGlyph name="Agrave" xMin="29" yMin="0" xMax="574" yMax="948">
      <contour>
        <pt x="340" y="776" on="1"/>
        <pt x="274" y="776" on="1"/>
        <pt x="262" y="776" on="0"/>
        <pt x="257" y="783" on="1"/>
        <pt x="227" y="819" on="0"/>
        <pt x="189" y="864" on="0"/>
        <pt x="156" y="904" on="0"/>
        <pt x="131" y="933" on="1"/>
        <pt x="127" y="938" on="0"/>
        <pt x="132" y="948" on="0"/>
        <pt x="138" y="948" on="1"/>
        <pt x="232" y="948" on="1"/>
        <pt x="261" y="902" on="0"/>
        <pt x="312" y="821" on="0"/>
      </contour>
      <contour>
        <pt x="111" y="0" on="1"/>
        <pt x="40" y="0" on="1"/>
        <pt x="29" y="0" on="0"/>
        <pt x="32" y="14" on="1"/>
        <pt x="85" y="214" on="0"/>
        <pt x="182" y="563" on="0"/>
        <pt x="225" y="707" on="1"/>
        <pt x="363" y="707" on="1"/>
        <pt x="368" y="707" on="0"/>
        <pt x="371" y="704" on="1"/>
        <pt x="373" y="702" on="0"/>
        <pt x="375" y="696" on="1"/>
        <pt x="422" y="535" on="0"/>
        <pt x="522" y="185" on="0"/>
        <pt x="574" y="0" on="1"/>
        <pt x="499" y="0" on="1"/>
        <pt x="494" y="0" on="0"/>
        <pt x="491" y="3" on="1"/>
        <pt x="490" y="5" on="0"/>
        <pt x="487" y="9" on="0"/>
        <pt x="485" y="16" on="1"/>
        <pt x="472" y="66" on="0"/>
        <pt x="445" y="160" on="0"/>
        <pt x="433" y="205" on="1"/>
        <pt x="165" y="205" on="1"/>
        <pt x="152" y="158" on="0"/>
        <pt x="125" y="56" on="0"/>
      </contour>
      <contour>
        <pt x="305" y="627" on="1"/>
        <pt x="285" y="627" on="1"/>
        <pt x="261" y="546" on="0"/>
        <pt x="213" y="379" on="0"/>
        <pt x="186" y="282" on="1"/>
        <pt x="411" y="282" on="1"/>
        <pt x="385" y="373" on="0"/>
        <pt x="335" y="541" on="0"/>
        <pt x="311" y="623" on="1"/>
        <pt x="310" y="627" on="0"/>
      </contour>
    </TTGlyph>
    <TTGlyph name="Amacron" xMin="29" yMin="0" xMax="574" yMax="881">
      <contour>
        <pt x="124" y="881" on="1"/>
        <pt x="465" y="881" on="1"/>
        <pt x="476" y="881" on="0"/>
        <pt x="476" y="870" on="1"/>
        <pt x="476" y="808" on="1"/>
        <pt x="135" y="808" on="1"/>
        <pt x="124" y="808" on="0"/>
        <pt x="124" y="819" on="1"/>
      </contour>
      <contour>
        <pt x="111" y="0" on="1"/>
        <pt x="40" y="0" on="1"/>
        <pt x="29" y="0" on="0"/>
        <pt x="32" y="14" on="1"/>
        <pt x="85" y="214" on="0"/>
        <pt x="182" y="563" on="0"/>
        <pt x="225" y="707" on="1"/>
        <pt x="363" y="707" on="1"/>
        <pt x="368" y="707" on="0"/>
        <pt x="371" y="704" on="1"/>
        <pt x="373" y="702" on="0"/>
        <pt x="375" y="696" on="1"/>
        <pt x="422" y="535" on="0"/>
        <pt x="522" y="185" on="0"/>
        <pt x="574" y="0" on="1"/>
        <pt x="499" y="0" on="1"/>
        <pt x="494" y="0" on="0"/>
        <pt x="491" y="3" on="1"/>
        <pt x="490" y="5" on="0"/>
        <pt x="487" y="9" on="0"/>
        <pt x="485" y="16" on="1"/>
        <pt x="472" y="66" on="0"/>
        <pt x="445" y="160" on="0"/>
        <pt x="433" y="205" on="1"/>
        <pt x="165" y="205" on="1"/>
        <pt x="152" y="158" on="0"/>
        <pt x="125" y="56" on="0"/>
      </contour>
      <contour>
        <pt x="305" y="627" on="1"/>
        <pt x="285" y="627" on="1"/>
        <pt x="261" y="546" on="0"/>
        <pt x="213" y="379" on="0"/>
        <pt x="186" y="282" on="1"/>
        <pt x="411" y="282" on="1"/>
        <pt x="385" y="373" on="0"/>
        <pt x="335" y="541" on="0"/>
        <pt x="311" y="623" on="1"/>
        <pt x="310" y="627" on="0"/>
      </contour>
    </TTGlyph>
    <TTGlyph name="Aogonek" xMin="29" yMin="-251" xMax="574" yMax="707">
      <contour>
        <pt x="111" y="0" on="1"/>
        <pt x="40" y="0" on="1"/>
        <pt x="29" y="0" on="0"/>
        <pt x="32" y="14" on="1"/>
        <pt x="85" y="214" on="0"/>
        <pt x="182" y="563" on="0"/>
        <pt x="225" y="707" on="1"/>
        <pt x="363" y="707" on="1"/>
        <pt x="368" y="707" on="0"/>
        <pt x="371" y="704" on="1"/>
        <pt x="373" y="702" on="0"/>
        <pt x="375" y="696" on="1"/>
        <pt x="422" y="535" on="0"/>
        <pt x="522" y="185" on="0"/>
        <pt x="574" y="0" on="1"/>
        <pt x="573" y="0" on="1"/>
        <pt x="573" y="-1" on="1"/>
        <pt x="573" y="-8" on="0"/>
        <pt x="561" y="-12" on="1"/>
        <pt x="489" y="-28" on="0"/>
        <pt x="434" y="-86" on="0"/>
        <pt x="434" y="-118" on="1"/>
        <pt x="434" y="-146" on="0"/>
        <pt x="467" y="-173" on="0"/>
        <pt x="492" y="-173" on="1"/>
        <pt x="528" y="-173" on="0"/>
        <pt x="555" y="-153" on="1"/>
        <pt x="569" y="-153" on="1"/>
        <pt x="569" y="-217" on="1"/>
        <pt x="569" y="-229" on="0"/>
        <pt x="523" y="-251" on="0"/>
        <pt x="488" y="-251" on="1"/>
        <pt x="427" y="-251" on="0"/>
        <pt x="358" y="-190" on="0"/>
        <pt x="358" y="-137" on="1"/>
        <pt x="358" y="-96" on="0"/>
        <pt x="394" y="-35" on="0"/>
        <pt x="452" y="5" on="0"/>
        <pt x="485" y="15" on="1"/>
        <pt x="485" y="16" on="1"/>
        <pt x="472" y="66" on="0"/>
        <pt x="445" y="160" on="0"/>
        <pt x="433" y="205" on="1"/>
        <pt x="165" y="205" on="1"/>
        <pt x="152" y="158" on="0"/>
        <pt x="125" y="56" on="0"/>
      </contour>
      <contour>
        <pt x="305" y="627" on="1"/>
        <pt x="285" y="627" on="1"/>
        <pt x="261" y="546" on="0"/>
        <pt x="213" y="379" on="0"/>
        <pt x="186" y="282" on="1"/>
        <pt x="411" y="282" on="1"/>
        <pt x="385" y="373" on="0"/>
        <pt x="335" y="541" on="0"/>
        <pt x="311" y="623" on="1"/>
        <pt x="310" y="627" on="0"/>
      </contour>
    </TTGlyph>
    <TTGlyph name="Aring" xMin="29" yMin="0" xMax="574" yMax="897">
      <contour>
        <pt x="111" y="0" on="1"/>
        <pt x="40" y="0" on="1"/>
        <pt x="29" y="0" on="0"/>
        <pt x="32" y="14" on="1"/>
        <pt x="82" y="201" on="0"/>
        <pt x="174" y="532" on="0"/>
        <pt x="214" y="671" on="1"/>
        <pt x="149" y="698" on="0"/>
        <pt x="149" y="763" on="1"/>
        <pt x="149" y="789" on="1"/>
        <pt x="149" y="839" on="0"/>
        <pt x="230" y="897" on="0"/>
        <pt x="300" y="897" on="1"/>
        <pt x="370" y="897" on="0"/>
        <pt x="450" y="839" on="0"/>
        <pt x="450" y="789" on="1"/>
        <pt x="450" y="763" on="1"/>
        <pt x="450" y="697" on="0"/>
        <pt x="383" y="670" on="1"/>
        <pt x="428" y="514" on="0"/>
        <pt x="524" y="178" on="0"/>
        <pt x="574" y="0" on="1"/>
        <pt x="499" y="0" on="1"/>
        <pt x="494" y="0" on="0"/>
        <pt x="491" y="3" on="1"/>
        <pt x="490" y="5" on="0"/>
        <pt x="487" y="9" on="0"/>
        <pt x="485" y="16" on="1"/>
        <pt x="472" y="66" on="0"/>
        <pt x="445" y="160" on="0"/>
        <pt x="433" y="205" on="1"/>
        <pt x="165" y="205" on="1"/>
        <pt x="152" y="158" on="0"/>
        <pt x="125" y="56" on="0"/>
      </contour>
      <contour>
        <pt x="221" y="766" on="1"/>
        <pt x="221" y="742" on="0"/>
        <pt x="263" y="715" on="0"/>
        <pt x="300" y="715" on="1"/>
        <pt x="337" y="715" on="0"/>
        <pt x="379" y="742" on="0"/>
        <pt x="379" y="766" on="1"/>
        <pt x="379" y="787" on="1"/>
        <pt x="379" y="811" on="0"/>
        <pt x="337" y="839" on="0"/>
        <pt x="300" y="839" on="1"/>
        <pt x="263" y="839" on="0"/>
        <pt x="221" y="811" on="0"/>
        <pt x="221" y="787" on="1"/>
      </contour>
      <contour>
        <pt x="305" y="627" on="1"/>
        <pt x="285" y="627" on="1"/>
        <pt x="261" y="546" on="0"/>
        <pt x="213" y="379" on="0"/>
        <pt x="186" y="282" on="1"/>
        <pt x="411" y="282" on="1"/>
        <pt x="385" y="373" on="0"/>
        <pt x="335" y="541" on="0"/>
        <pt x="311" y="623" on="1"/>
        <pt x="310" y="627" on="0"/>
      </contour>
    </TTGlyph>
    <TTGlyph name="Aringacute" xMin="29" yMin="0" xMax="574" yMax="1028">
      <contour>
        <pt x="111" y="0" on="1"/>
        <pt x="40" y="0" on="1"/>
        <pt x="29" y="0" on="0"/>
        <pt x="32" y="14" on="1"/>
        <pt x="82" y="201" on="0"/>
        <pt x="174" y="532" on="0"/>
        <pt x="214" y="671" on="1"/>
        <pt x="149" y="698" on="0"/>
        <pt x="149" y="763" on="1"/>
        <pt x="149" y="789" on="1"/>
        <pt x="149" y="837" on="0"/>
        <pt x="223" y="894" on="0"/>
        <pt x="289" y="897" on="1"/>
        <pt x="309" y="929" on="0"/>
        <pt x="349" y="992" on="0"/>
        <pt x="372" y="1028" on="1"/>
        <pt x="465" y="1028" on="1"/>
        <pt x="471" y="1028" on="0"/>
        <pt x="477" y="1018" on="0"/>
        <pt x="472" y="1013" on="1"/>
        <pt x="451" y="987" on="0"/>
        <pt x="420" y="951" on="0"/>
        <pt x="389" y="914" on="0"/>
        <pt x="367" y="888" on="1"/>
        <pt x="407" y="876" on="0"/>
        <pt x="450" y="825" on="0"/>
        <pt x="450" y="789" on="1"/>
        <pt x="450" y="763" on="1"/>
        <pt x="450" y="697" on="0"/>
        <pt x="383" y="670" on="1"/>
        <pt x="428" y="514" on="0"/>
        <pt x="524" y="178" on="0"/>
        <pt x="574" y="0" on="1"/>
        <pt x="499" y="0" on="1"/>
        <pt x="494" y="0" on="0"/>
        <pt x="491" y="3" on="1"/>
        <pt x="490" y="5" on="0"/>
        <pt x="487" y="9" on="0"/>
        <pt x="485" y="16" on="1"/>
        <pt x="472" y="66" on="0"/>
        <pt x="445" y="160" on="0"/>
        <pt x="433" y="205" on="1"/>
        <pt x="165" y="205" on="1"/>
        <pt x="152" y="158" on="0"/>
        <pt x="125" y="56" on="0"/>
      </contour>
      <contour>
        <pt x="221" y="766" on="1"/>
        <pt x="221" y="742" on="0"/>
        <pt x="263" y="715" on="0"/>
        <pt x="300" y="715" on="1"/>
        <pt x="337" y="715" on="0"/>
        <pt x="379" y="742" on="0"/>
        <pt x="379" y="766" on="1"/>
        <pt x="379" y="787" on="1"/>
        <pt x="379" y="811" on="0"/>
        <pt x="337" y="839" on="0"/>
        <pt x="300" y="839" on="1"/>
        <pt x="263" y="839" on="0"/>
        <pt x="221" y="811" on="0"/>
        <pt x="221" y="787" on="1"/>
      </contour>
      <contour>
        <pt x="305" y="627" on="1"/>
        <pt x="285" y="627" on="1"/>
        <pt x="261" y="546" on="0"/>
        <pt x="213" y="379" on="0"/>
        <pt x="186" y="282" on="1"/>
        <pt x="411" y="282" on="1"/>
        <pt x="385" y="373" on="0"/>
        <pt x="335" y="541" on="0"/>
        <pt x="311" y="623" on="1"/>
        <pt x="310" y="627" on="0"/>
      </contour>
    </TTGlyph>
    <TTGlyph name="Atilde" xMin="29" yMin="0" xMax="574" yMax="928">
      <contour>
        <pt x="393" y="866" on="1"/>
        <pt x="419" y="866" on="0"/>
        <pt x="454" y="888" on="0"/>
        <pt x="473" y="911" on="1"/>
        <pt x="486" y="911" on="1"/>
        <pt x="486" y="845" on="1"/>
        <pt x="486" y="840" on="0"/>
        <pt x="484" y="832" on="0"/>
        <pt x="479" y="827" on="1"/>
        <pt x="463" y="811" on="0"/>
        <pt x="423" y="790" on="0"/>
        <pt x="392" y="790" on="1"/>
        <pt x="364" y="790" on="0"/>
        <pt x="316" y="809" on="0"/>
        <pt x="273" y="833" on="0"/>
        <pt x="230" y="852" on="0"/>
        <pt x="207" y="852" on="1"/>
        <pt x="182" y="852" on="0"/>
        <pt x="147" y="831" on="0"/>
        <pt x="127" y="808" on="1"/>
        <pt x="114" y="808" on="1"/>
        <pt x="114" y="874" on="1"/>
        <pt x="114" y="878" on="0"/>
        <pt x="116" y="886" on="0"/>
        <pt x="121" y="891" on="1"/>
        <pt x="137" y="908" on="0"/>
        <pt x="177" y="928" on="0"/>
        <pt x="208" y="928" on="1"/>
        <pt x="236" y="928" on="0"/>
        <pt x="284" y="909" on="0"/>
        <pt x="327" y="885" on="0"/>
        <pt x="370" y="866" on="0"/>
      </contour>
      <contour>
        <pt x="111" y="0" on="1"/>
        <pt x="40" y="0" on="1"/>
        <pt x="29" y="0" on="0"/>
        <pt x="32" y="14" on="1"/>
        <pt x="85" y="214" on="0"/>
        <pt x="182" y="563" on="0"/>
        <pt x="225" y="707" on="1"/>
        <pt x="363" y="707" on="1"/>
        <pt x="368" y="707" on="0"/>
        <pt x="371" y="704" on="1"/>
        <pt x="373" y="702" on="0"/>
        <pt x="375" y="696" on="1"/>
        <pt x="422" y="535" on="0"/>
        <pt x="522" y="185" on="0"/>
        <pt x="574" y="0" on="1"/>
        <pt x="499" y="0" on="1"/>
        <pt x="494" y="0" on="0"/>
        <pt x="491" y="3" on="1"/>
        <pt x="490" y="5" on="0"/>
        <pt x="487" y="9" on="0"/>
        <pt x="485" y="16" on="1"/>
        <pt x="472" y="66" on="0"/>
        <pt x="445" y="160" on="0"/>
        <pt x="433" y="205" on="1"/>
        <pt x="165" y="205" on="1"/>
        <pt x="152" y="158" on="0"/>
        <pt x="125" y="56" on="0"/>
      </contour>
      <contour>
        <pt x="305" y="627" on="1"/>
        <pt x="285" y="627" on="1"/>
        <pt x="261" y="546" on="0"/>
        <pt x="213" y="379" on="0"/>
        <pt x="186" y="282" on="1"/>
        <pt x="411" y="282" on="1"/>
        <pt x="385" y="373" on="0"/>
        <pt x="335" y="541" on="0"/>
        <pt x="311" y="623" on="1"/>
        <pt x="310" y="627" on="0"/>
      </contour>
    </TTGlyph>
    <TTGlyph name="B" xMin="30" yMin="0" xMax="529" yMax="700">
      <contour>
        <pt x="529" y="183" on="1"/>
        <pt x="529" y="92" on="0"/>
        <pt x="420" y="0" on="0"/>
        <pt x="330" y="0" on="1"/>
        <pt x="103" y="0" on="1"/>
        <pt x="92" y="0" on="0"/>
        <pt x="92" y="11" on="1"/>
        <pt x="92" y="623" on="1"/>
        <pt x="41" y="623" on="1"/>
        <pt x="36" y="623" on="0"/>
        <pt x="33" y="626" on="1"/>
        <pt x="30" y="629" on="0"/>
        <pt x="30" y="634" on="1"/>
        <pt x="30" y="700" on="1"/>
        <pt x="308" y="700" on="1"/>
        <pt x="309" y="700" on="0"/>
        <pt x="309" y="700" on="1"/>
        <pt x="384" y="700" on="0"/>
        <pt x="477" y="656" on="0"/>
        <pt x="519" y="581" on="0"/>
        <pt x="519" y="535" on="1"/>
        <pt x="519" y="509" on="1"/>
        <pt x="519" y="451" on="0"/>
        <pt x="462" y="373" on="0"/>
        <pt x="403" y="356" on="1"/>
        <pt x="529" y="322" on="0"/>
        <pt x="529" y="211" on="1"/>
      </contour>
      <contour>
        <pt x="312" y="623" on="1"/>
        <pt x="175" y="623" on="1"/>
        <pt x="175" y="388" on="1"/>
        <pt x="288" y="388" on="1"/>
        <pt x="348" y="388" on="0"/>
        <pt x="412" y="416" on="0"/>
        <pt x="437" y="466" on="0"/>
        <pt x="437" y="498" on="1"/>
        <pt x="437" y="526" on="1"/>
        <pt x="437" y="573" on="0"/>
        <pt x="380" y="623" on="0"/>
      </contour>
      <contour>
        <pt x="285" y="323" on="1"/>
        <pt x="175" y="323" on="1"/>
        <pt x="175" y="77" on="1"/>
        <pt x="313" y="77" on="1"/>
        <pt x="382" y="77" on="0"/>
        <pt x="446" y="138" on="0"/>
        <pt x="446" y="191" on="1"/>
        <pt x="446" y="221" on="1"/>
        <pt x="446" y="250" on="0"/>
        <pt x="418" y="296" on="0"/>
        <pt x="348" y="323" on="0"/>
      </contour>
    </TTGlyph>
    <TTGlyph name="C" xMin="67" yMin="-20" xMax="533" yMax="720">
      <contour>
        <pt x="330" y="-20" on="1"/>
        <pt x="203" y="-20" on="0"/>
        <pt x="67" y="124" on="0"/>
        <pt x="67" y="248" on="1"/>
        <pt x="67" y="439" on="1"/>
        <pt x="67" y="573" on="0"/>
        <pt x="204" y="720" on="0"/>
        <pt x="334" y="720" on="1"/>
        <pt x="404" y="720" on="0"/>
        <pt x="497" y="684" on="0"/>
        <pt x="524" y="657" on="1"/>
        <pt x="530" y="651" on="0"/>
        <pt x="530" y="638" on="1"/>
        <pt x="530" y="487" on="1"/>
        <pt x="463" y="487" on="1"/>
        <pt x="458" y="487" on="0"/>
        <pt x="455" y="490" on="1"/>
        <pt x="452" y="493" on="0"/>
        <pt x="452" y="498" on="1"/>
        <pt x="452" y="614" on="1"/>
        <pt x="431" y="628" on="0"/>
        <pt x="373" y="643" on="0"/>
        <pt x="333" y="643" on="1"/>
        <pt x="243" y="643" on="0"/>
        <pt x="153" y="544" on="0"/>
        <pt x="153" y="440" on="1"/>
        <pt x="153" y="256" on="1"/>
        <pt x="153" y="161" on="0"/>
        <pt x="247" y="59" on="0"/>
        <pt x="330" y="59" on="1"/>
        <pt x="388" y="59" on="0"/>
        <pt x="477" y="87" on="0"/>
        <pt x="518" y="118" on="1"/>
        <pt x="533" y="118" on="1"/>
        <pt x="533" y="47" on="1"/>
        <pt x="533" y="42" on="0"/>
        <pt x="530" y="39" on="1"/>
        <pt x="504" y="13" on="0"/>
        <pt x="397" y="-20" on="0"/>
      </contour>
    </TTGlyph>
    <TTGlyph name="Cacute" xMin="67" yMin="-20" xMax="533" yMax="947">
      <contour>
        <pt x="350" y="775" on="1"/>
        <pt x="284" y="775" on="1"/>
        <pt x="313" y="820" on="0"/>
        <pt x="363" y="901" on="0"/>
        <pt x="393" y="947" on="1"/>
        <pt x="486" y="947" on="1"/>
        <pt x="492" y="947" on="0"/>
        <pt x="498" y="938" on="0"/>
        <pt x="493" y="933" on="1"/>
        <pt x="469" y="904" on="0"/>
        <pt x="435" y="863" on="0"/>
        <pt x="397" y="818" on="0"/>
        <pt x="367" y="782" on="1"/>
        <pt x="365" y="780" on="0"/>
        <pt x="356" y="775" on="0"/>
      </contour>
      <contour>
        <pt x="330" y="-20" on="1"/>
        <pt x="203" y="-20" on="0"/>
        <pt x="67" y="124" on="0"/>
        <pt x="67" y="248" on="1"/>
        <pt x="67" y="439" on="1"/>
        <pt x="67" y="573" on="0"/>
        <pt x="204" y="720" on="0"/>
        <pt x="334" y="720" on="1"/>
        <pt x="404" y="720" on="0"/>
        <pt x="497" y="684" on="0"/>
        <pt x="524" y="657" on="1"/>
        <pt x="530" y="651" on="0"/>
        <pt x="530" y="638" on="1"/>
        <pt x="530" y="487" on="1"/>
        <pt x="463" y="487" on="1"/>
        <pt x="458" y="487" on="0"/>
        <pt x="455" y="490" on="1"/>
        <pt x="452" y="493" on="0"/>
        <pt x="452" y="498" on="1"/>
        <pt x="452" y="614" on="1"/>
        <pt x="431" y="628" on="0"/>
        <pt x="373" y="643" on="0"/>
        <pt x="333" y="643" on="1"/>
        <pt x="243" y="643" on="0"/>
        <pt x="153" y="544" on="0"/>
        <pt x="153" y="440" on="1"/>
        <pt x="153" y="256" on="1"/>
        <pt x="153" y="161" on="0"/>
        <pt x="247" y="59" on="0"/>
        <pt x="330" y="59" on="1"/>
        <pt x="388" y="59" on="0"/>
        <pt x="477" y="87" on="0"/>
        <pt x="518" y="118" on="1"/>
        <pt x="533" y="118" on="1"/>
        <pt x="533" y="47" on="1"/>
        <pt x="533" y="42" on="0"/>
        <pt x="530" y="39" on="1"/>
        <pt x="504" y="13" on="0"/>
        <pt x="397" y="-20" on="0"/>
      </contour>
    </TTGlyph>
    <TTGlyph name="Ccaron" xMin="67" yMin="-20" xMax="540" yMax="945">
      <contour>
        <pt x="98" y="945" on="1"/>
        <pt x="172" y="945" on="1"/>
        <pt x="183" y="945" on="0"/>
        <pt x="195" y="941" on="0"/>
        <pt x="203" y="934" on="1"/>
        <pt x="218" y="923" on="0"/>
        <pt x="284" y="870" on="0"/>
        <pt x="325" y="838" on="1"/>
        <pt x="364" y="869" on="0"/>
        <pt x="431" y="921" on="0"/>
        <pt x="460" y="945" on="1"/>
        <pt x="528" y="945" on="1"/>
        <pt x="540" y="945" on="0"/>
        <pt x="540" y="938" on="1"/>
        <pt x="540" y="934" on="0"/>
        <pt x="532" y="926" on="0"/>
        <pt x="517" y="912" on="1"/>
        <pt x="505" y="901" on="0"/>
        <pt x="464" y="864" on="0"/>
        <pt x="418" y="822" on="0"/>
        <pt x="378" y="786" on="0"/>
        <pt x="367" y="776" on="1"/>
        <pt x="294" y="776" on="1"/>
        <pt x="287" y="776" on="0"/>
        <pt x="275" y="783" on="0"/>
        <pt x="260" y="796" on="1"/>
        <pt x="252" y="804" on="0"/>
        <pt x="215" y="838" on="0"/>
        <pt x="167" y="882" on="0"/>
        <pt x="118" y="927" on="0"/>
      </contour>
      <contour>
        <pt x="330" y="-20" on="1"/>
        <pt x="203" y="-20" on="0"/>
        <pt x="67" y="124" on="0"/>
        <pt x="67" y="248" on="1"/>
        <pt x="67" y="439" on="1"/>
        <pt x="67" y="573" on="0"/>
        <pt x="204" y="720" on="0"/>
        <pt x="334" y="720" on="1"/>
        <pt x="404" y="720" on="0"/>
        <pt x="497" y="684" on="0"/>
        <pt x="524" y="657" on="1"/>
        <pt x="530" y="651" on="0"/>
        <pt x="530" y="638" on="1"/>
        <pt x="530" y="487" on="1"/>
        <pt x="463" y="487" on="1"/>
        <pt x="458" y="487" on="0"/>
        <pt x="455" y="490" on="1"/>
        <pt x="452" y="493" on="0"/>
        <pt x="452" y="498" on="1"/>
        <pt x="452" y="614" on="1"/>
        <pt x="431" y="628" on="0"/>
        <pt x="373" y="643" on="0"/>
        <pt x="333" y="643" on="1"/>
        <pt x="243" y="643" on="0"/>
        <pt x="153" y="544" on="0"/>
        <pt x="153" y="440" on="1"/>
        <pt x="153" y="256" on="1"/>
        <pt x="153" y="161" on="0"/>
        <pt x="247" y="59" on="0"/>
        <pt x="330" y="59" on="1"/>
        <pt x="388" y="59" on="0"/>
        <pt x="477" y="87" on="0"/>
        <pt x="518" y="118" on="1"/>
        <pt x="533" y="118" on="1"/>
        <pt x="533" y="47" on="1"/>
        <pt x="533" y="42" on="0"/>
        <pt x="530" y="39" on="1"/>
        <pt x="504" y="13" on="0"/>
        <pt x="397" y="-20" on="0"/>
      </contour>
    </TTGlyph>
    <TTGlyph name="Ccedilla" xMin="67" yMin="-229" xMax="533" yMax="720">
      <contour>
        <pt x="433" y="-120" on="1"/>
        <pt x="433" y="-166" on="0"/>
        <pt x="367" y="-229" on="0"/>
        <pt x="302" y="-229" on="1"/>
        <pt x="259" y="-229" on="0"/>
        <pt x="220" y="-208" on="0"/>
        <pt x="220" y="-201" on="1"/>
        <pt x="220" y="-141" on="1"/>
        <pt x="232" y="-141" on="1"/>
        <pt x="245" y="-150" on="0"/>
        <pt x="273" y="-160" on="0"/>
        <pt x="298" y="-160" on="1"/>
        <pt x="328" y="-160" on="0"/>
        <pt x="364" y="-133" on="0"/>
        <pt x="364" y="-111" on="1"/>
        <pt x="364" y="-89" on="0"/>
        <pt x="337" y="-67" on="0"/>
        <pt x="296" y="-67" on="1"/>
        <pt x="285" y="-67" on="0"/>
        <pt x="287" y="-54" on="1"/>
        <pt x="290" y="-44" on="0"/>
        <pt x="295" y="-27" on="0"/>
        <pt x="297" y="-19" on="1"/>
        <pt x="186" y="-9" on="0"/>
        <pt x="67" y="133" on="0"/>
        <pt x="67" y="248" on="1"/>
        <pt x="67" y="439" on="1"/>
        <pt x="67" y="573" on="0"/>
        <pt x="204" y="720" on="0"/>
        <pt x="334" y="720" on="1"/>
        <pt x="404" y="720" on="0"/>
        <pt x="497" y="684" on="0"/>
        <pt x="524" y="657" on="1"/>
        <pt x="530" y="651" on="0"/>
        <pt x="530" y="638" on="1"/>
        <pt x="530" y="487" on="1"/>
        <pt x="463" y="487" on="1"/>
        <pt x="458" y="487" on="0"/>
        <pt x="455" y="490" on="1"/>
        <pt x="452" y="493" on="0"/>
        <pt x="452" y="498" on="1"/>
        <pt x="452" y="614" on="1"/>
        <pt x="431" y="628" on="0"/>
        <pt x="373" y="643" on="0"/>
        <pt x="333" y="643" on="1"/>
        <pt x="243" y="643" on="0"/>
        <pt x="153" y="544" on="0"/>
        <pt x="153" y="440" on="1"/>
        <pt x="153" y="256" on="1"/>
        <pt x="153" y="161" on="0"/>
        <pt x="247" y="59" on="0"/>
        <pt x="330" y="59" on="1"/>
        <pt x="388" y="59" on="0"/>
        <pt x="477" y="87" on="0"/>
        <pt x="518" y="118" on="1"/>
        <pt x="533" y="118" on="1"/>
        <pt x="533" y="47" on="1"/>
        <pt x="533" y="42" on="0"/>
        <pt x="530" y="39" on="1"/>
        <pt x="506" y="15" on="0"/>
        <pt x="409" y="-17" on="0"/>
        <pt x="349" y="-20" on="1"/>
        <pt x="348" y="-24" on="0"/>
        <pt x="347" y="-29" on="1"/>
        <pt x="387" y="-33" on="0"/>
        <pt x="433" y="-80" on="0"/>
      </contour>
    </TTGlyph>
    <TTGlyph name="Ccircumflex" xMin="67" yMin="-20" xMax="550" yMax="945">
      <contour>
        <pt x="188" y="776" on="1"/>
        <pt x="119" y="776" on="1"/>
        <pt x="108" y="776" on="0"/>
        <pt x="108" y="783" on="1"/>
        <pt x="108" y="787" on="0"/>
        <pt x="115" y="796" on="0"/>
        <pt x="130" y="809" on="1"/>
        <pt x="142" y="820" on="0"/>
        <pt x="184" y="857" on="0"/>
        <pt x="230" y="899" on="0"/>
        <pt x="270" y="935" on="0"/>
        <pt x="281" y="945" on="1"/>
        <pt x="353" y="945" on="1"/>
        <pt x="361" y="945" on="0"/>
        <pt x="372" y="938" on="0"/>
        <pt x="388" y="925" on="1"/>
        <pt x="396" y="918" on="0"/>
        <pt x="433" y="883" on="0"/>
        <pt x="481" y="839" on="0"/>
        <pt x="530" y="794" on="0"/>
        <pt x="550" y="776" on="1"/>
        <pt x="475" y="776" on="1"/>
        <pt x="464" y="776" on="0"/>
        <pt x="453" y="780" on="0"/>
        <pt x="445" y="786" on="1"/>
        <pt x="430" y="798" on="0"/>
        <pt x="364" y="850" on="0"/>
        <pt x="323" y="882" on="1"/>
        <pt x="283" y="851" on="0"/>
        <pt x="217" y="800" on="0"/>
      </contour>
      <contour>
        <pt x="330" y="-20" on="1"/>
        <pt x="203" y="-20" on="0"/>
        <pt x="67" y="124" on="0"/>
        <pt x="67" y="248" on="1"/>
        <pt x="67" y="439" on="1"/>
        <pt x="67" y="573" on="0"/>
        <pt x="204" y="720" on="0"/>
        <pt x="334" y="720" on="1"/>
        <pt x="404" y="720" on="0"/>
        <pt x="497" y="684" on="0"/>
        <pt x="524" y="657" on="1"/>
        <pt x="530" y="651" on="0"/>
        <pt x="530" y="638" on="1"/>
        <pt x="530" y="487" on="1"/>
        <pt x="463" y="487" on="1"/>
        <pt x="458" y="487" on="0"/>
        <pt x="455" y="490" on="1"/>
        <pt x="452" y="493" on="0"/>
        <pt x="452" y="498" on="1"/>
        <pt x="452" y="614" on="1"/>
        <pt x="431" y="628" on="0"/>
        <pt x="373" y="643" on="0"/>
        <pt x="333" y="643" on="1"/>
        <pt x="243" y="643" on="0"/>
        <pt x="153" y="544" on="0"/>
        <pt x="153" y="440" on="1"/>
        <pt x="153" y="256" on="1"/>
        <pt x="153" y="161" on="0"/>
        <pt x="247" y="59" on="0"/>
        <pt x="330" y="59" on="1"/>
        <pt x="388" y="59" on="0"/>
        <pt x="477" y="87" on="0"/>
        <pt x="518" y="118" on="1"/>
        <pt x="533" y="118" on="1"/>
        <pt x="533" y="47" on="1"/>
        <pt x="533" y="42" on="0"/>
        <pt x="530" y="39" on="1"/>
        <pt x="504" y="13" on="0"/>
        <pt x="397" y="-20" on="0"/>
      </contour>
    </TTGlyph>
    <TTGlyph name="Cdotaccent" xMin="67" yMin="-20" xMax="533" yMax="903">
      <contour>
        <pt x="380" y="801" on="1"/>
        <pt x="279" y="801" on="1"/>
        <pt x="268" y="801" on="0"/>
        <pt x="268" y="812" on="1"/>
        <pt x="268" y="903" on="1"/>
        <pt x="369" y="903" on="1"/>
        <pt x="380" y="903" on="0"/>
        <pt x="380" y="892" on="1"/>
      </contour>
      <contour>
        <pt x="330" y="-20" on="1"/>
        <pt x="203" y="-20" on="0"/>
        <pt x="67" y="124" on="0"/>
        <pt x="67" y="248" on="1"/>
        <pt x="67" y="439" on="1"/>
        <pt x="67" y="573" on="0"/>
        <pt x="204" y="720" on="0"/>
        <pt x="334" y="720" on="1"/>
        <pt x="404" y="720" on="0"/>
        <pt x="497" y="684" on="0"/>
        <pt x="524" y="657" on="1"/>
        <pt x="530" y="651" on="0"/>
        <pt x="530" y="638" on="1"/>
        <pt x="530" y="487" on="1"/>
        <pt x="463" y="487" on="1"/>
        <pt x="458" y="487" on="0"/>
        <pt x="455" y="490" on="1"/>
        <pt x="452" y="493" on="0"/>
        <pt x="452" y="498" on="1"/>
        <pt x="452" y="614" on="1"/>
        <pt x="431" y="628" on="0"/>
        <pt x="373" y="643" on="0"/>
        <pt x="333" y="643" on="1"/>
        <pt x="243" y="643" on="0"/>
        <pt x="153" y="544" on="0"/>
        <pt x="153" y="440" on="1"/>
        <pt x="153" y="256" on="1"/>
        <pt x="153" y="161" on="0"/>
        <pt x="247" y="59" on="0"/>
        <pt x="330" y="59" on="1"/>
        <pt x="388" y="59" on="0"/>
        <pt x="477" y="87" on="0"/>
        <pt x="518" y="118" on="1"/>
        <pt x="533" y="118" on="1"/>
        <pt x="533" y="47" on="1"/>
        <pt x="533" y="42" on="0"/>
        <pt x="530" y="39" on="1"/>
        <pt x="504" y="13" on="0"/>
        <pt x="397" y="-20" on="0"/>
      </contour>
    </TTGlyph>
    <TTGlyph name="D" xMin="33" yMin="0" xMax="537" yMax="700">
      <contour>
        <pt x="537" y="244" on="1"/>
        <pt x="537" y="129" on="0"/>
        <pt x="402" y="0" on="0"/>
        <pt x="283" y="0" on="1"/>
        <pt x="103" y="0" on="1"/>
        <pt x="92" y="0" on="0"/>
        <pt x="92" y="10" on="1"/>
        <pt x="92" y="10" on="0"/>
        <pt x="92" y="11" on="1"/>
        <pt x="92" y="623" on="1"/>
        <pt x="44" y="623" on="1"/>
        <pt x="39" y="623" on="0"/>
        <pt x="36" y="626" on="1"/>
        <pt x="33" y="629" on="0"/>
        <pt x="33" y="634" on="1"/>
        <pt x="33" y="700" on="1"/>
        <pt x="276" y="700" on="1"/>
        <pt x="350" y="700" on="0"/>
        <pt x="468" y="656" on="0"/>
        <pt x="537" y="548" on="0"/>
        <pt x="537" y="452" on="1"/>
      </contour>
      <contour>
        <pt x="277" y="623" on="1"/>
        <pt x="176" y="623" on="1"/>
        <pt x="176" y="77" on="1"/>
        <pt x="279" y="77" on="1"/>
        <pt x="364" y="77" on="0"/>
        <pt x="452" y="165" on="0"/>
        <pt x="452" y="246" on="1"/>
        <pt x="452" y="453" on="1"/>
        <pt x="452" y="543" on="0"/>
        <pt x="369" y="623" on="0"/>
      </contour>
    </TTGlyph>
    <TTGlyph name="Dcaron" xMin="33" yMin="0" xMax="537" yMax="945">
      <contour>
        <pt x="58" y="945" on="1"/>
        <pt x="133" y="945" on="1"/>
        <pt x="144" y="945" on="0"/>
        <pt x="156" y="941" on="0"/>
        <pt x="163" y="934" on="1"/>
        <pt x="178" y="923" on="0"/>
        <pt x="244" y="870" on="0"/>
        <pt x="285" y="838" on="1"/>
        <pt x="325" y="869" on="0"/>
        <pt x="391" y="921" on="0"/>
        <pt x="420" y="945" on="1"/>
        <pt x="489" y="945" on="1"/>
        <pt x="501" y="945" on="0"/>
        <pt x="501" y="938" on="1"/>
        <pt x="501" y="934" on="0"/>
        <pt x="493" y="926" on="0"/>
        <pt x="478" y="912" on="1"/>
        <pt x="466" y="901" on="0"/>
        <pt x="424" y="864" on="0"/>
        <pt x="379" y="822" on="0"/>
        <pt x="339" y="786" on="0"/>
        <pt x="328" y="776" on="1"/>
        <pt x="255" y="776" on="1"/>
        <pt x="248" y="776" on="0"/>
        <pt x="236" y="783" on="0"/>
        <pt x="221" y="796" on="1"/>
        <pt x="213" y="804" on="0"/>
        <pt x="176" y="838" on="0"/>
        <pt x="127" y="882" on="0"/>
        <pt x="78" y="927" on="0"/>
      </contour>
      <contour>
        <pt x="537" y="244" on="1"/>
        <pt x="537" y="129" on="0"/>
        <pt x="402" y="0" on="0"/>
        <pt x="283" y="0" on="1"/>
        <pt x="103" y="0" on="1"/>
        <pt x="92" y="0" on="0"/>
        <pt x="92" y="10" on="1"/>
        <pt x="92" y="10" on="0"/>
        <pt x="92" y="11" on="1"/>
        <pt x="92" y="623" on="1"/>
        <pt x="44" y="623" on="1"/>
        <pt x="39" y="623" on="0"/>
        <pt x="36" y="626" on="1"/>
        <pt x="33" y="629" on="0"/>
        <pt x="33" y="634" on="1"/>
        <pt x="33" y="700" on="1"/>
        <pt x="276" y="700" on="1"/>
        <pt x="350" y="700" on="0"/>
        <pt x="468" y="656" on="0"/>
        <pt x="537" y="548" on="0"/>
        <pt x="537" y="452" on="1"/>
      </contour>
      <contour>
        <pt x="277" y="623" on="1"/>
        <pt x="176" y="623" on="1"/>
        <pt x="176" y="77" on="1"/>
        <pt x="279" y="77" on="1"/>
        <pt x="364" y="77" on="0"/>
        <pt x="452" y="165" on="0"/>
        <pt x="452" y="246" on="1"/>
        <pt x="452" y="453" on="1"/>
        <pt x="452" y="543" on="0"/>
        <pt x="369" y="623" on="0"/>
      </contour>
    </TTGlyph>
    <TTGlyph name="Dcroat" xMin="21" yMin="0" xMax="537" yMax="700">
      <contour>
        <pt x="21" y="389" on="1"/>
        <pt x="92" y="389" on="1"/>
        <pt x="92" y="623" on="1"/>
        <pt x="44" y="623" on="1"/>
        <pt x="39" y="623" on="0"/>
        <pt x="36" y="626" on="1"/>
        <pt x="33" y="629" on="0"/>
        <pt x="33" y="634" on="1"/>
        <pt x="33" y="700" on="1"/>
        <pt x="276" y="700" on="1"/>
        <pt x="350" y="700" on="0"/>
        <pt x="468" y="656" on="0"/>
        <pt x="537" y="548" on="0"/>
        <pt x="537" y="452" on="1"/>
        <pt x="537" y="244" on="1"/>
        <pt x="537" y="129" on="0"/>
        <pt x="402" y="0" on="0"/>
        <pt x="283" y="0" on="1"/>
        <pt x="103" y="0" on="1"/>
        <pt x="92" y="0" on="0"/>
        <pt x="92" y="10" on="1"/>
        <pt x="92" y="10" on="0"/>
        <pt x="92" y="11" on="1"/>
        <pt x="92" y="325" on="1"/>
        <pt x="32" y="325" on="1"/>
        <pt x="21" y="325" on="0"/>
        <pt x="21" y="336" on="1"/>
      </contour>
      <contour>
        <pt x="357" y="325" on="1"/>
        <pt x="176" y="325" on="1"/>
        <pt x="176" y="77" on="1"/>
        <pt x="279" y="77" on="1"/>
        <pt x="364" y="77" on="0"/>
        <pt x="452" y="165" on="0"/>
        <pt x="452" y="246" on="1"/>
        <pt x="452" y="453" on="1"/>
        <pt x="452" y="543" on="0"/>
        <pt x="369" y="623" on="0"/>
        <pt x="277" y="623" on="1"/>
        <pt x="176" y="623" on="1"/>
        <pt x="176" y="389" on="1"/>
        <pt x="346" y="389" on="1"/>
        <pt x="357" y="389" on="0"/>
        <pt x="357" y="378" on="1"/>
      </contour>
    </TTGlyph>
    <TTGlyph name="E" xMin="30" yMin="0" xMax="533" yMax="700">
      <contour>
        <pt x="30" y="700" on="1"/>
        <pt x="522" y="700" on="1"/>
        <pt x="527" y="700" on="0"/>
        <pt x="530" y="697" on="1"/>
        <pt x="533" y="694" on="0"/>
        <pt x="533" y="689" on="1"/>
        <pt x="533" y="623" on="1"/>
        <pt x="177" y="623" on="1"/>
        <pt x="177" y="392" on="1"/>
        <pt x="469" y="392" on="1"/>
        <pt x="474" y="392" on="0"/>
        <pt x="477" y="389" on="1"/>
        <pt x="480" y="386" on="0"/>
        <pt x="480" y="381" on="1"/>
        <pt x="480" y="317" on="1"/>
        <pt x="177" y="317" on="1"/>
        <pt x="177" y="77" on="1"/>
        <pt x="522" y="77" on="1"/>
        <pt x="533" y="77" on="0"/>
        <pt x="533" y="66" on="1"/>
        <pt x="533" y="0" on="1"/>
        <pt x="103" y="0" on="1"/>
        <pt x="92" y="0" on="0"/>
        <pt x="92" y="11" on="1"/>
        <pt x="92" y="623" on="1"/>
        <pt x="41" y="623" on="1"/>
        <pt x="36" y="623" on="0"/>
        <pt x="33" y="626" on="1"/>
        <pt x="30" y="629" on="0"/>
        <pt x="30" y="634" on="1"/>
      </contour>
    </TTGlyph>
    <TTGlyph name="Eacute" xMin="30" yMin="0" xMax="533" yMax="947">
      <contour>
        <pt x="326" y="775" on="1"/>
        <pt x="260" y="775" on="1"/>
        <pt x="288" y="820" on="0"/>
        <pt x="339" y="901" on="0"/>
        <pt x="368" y="947" on="1"/>
        <pt x="462" y="947" on="1"/>
        <pt x="468" y="947" on="0"/>
        <pt x="474" y="938" on="0"/>
        <pt x="469" y="933" on="1"/>
        <pt x="445" y="904" on="0"/>
        <pt x="411" y="863" on="0"/>
        <pt x="373" y="818" on="0"/>
        <pt x="343" y="782" on="1"/>
        <pt x="341" y="780" on="0"/>
        <pt x="332" y="775" on="0"/>
      </contour>
      <contour>
        <pt x="30" y="700" on="1"/>
        <pt x="522" y="700" on="1"/>
        <pt x="527" y="700" on="0"/>
        <pt x="530" y="697" on="1"/>
        <pt x="533" y="694" on="0"/>
        <pt x="533" y="689" on="1"/>
        <pt x="533" y="623" on="1"/>
        <pt x="177" y="623" on="1"/>
        <pt x="177" y="392" on="1"/>
        <pt x="469" y="392" on="1"/>
        <pt x="474" y="392" on="0"/>
        <pt x="477" y="389" on="1"/>
        <pt x="480" y="386" on="0"/>
        <pt x="480" y="381" on="1"/>
        <pt x="480" y="317" on="1"/>
        <pt x="177" y="317" on="1"/>
        <pt x="177" y="77" on="1"/>
        <pt x="522" y="77" on="1"/>
        <pt x="533" y="77" on="0"/>
        <pt x="533" y="66" on="1"/>
        <pt x="533" y="0" on="1"/>
        <pt x="103" y="0" on="1"/>
        <pt x="92" y="0" on="0"/>
        <pt x="92" y="11" on="1"/>
        <pt x="92" y="623" on="1"/>
        <pt x="41" y="623" on="1"/>
        <pt x="36" y="623" on="0"/>
        <pt x="33" y="626" on="1"/>
        <pt x="30" y="629" on="0"/>
        <pt x="30" y="634" on="1"/>
      </contour>
    </TTGlyph>
    <TTGlyph name="Ebreve" xMin="30" yMin="0" xMax="533" yMax="939">
      <contour>
        <pt x="186" y="939" on="1"/>
        <pt x="206" y="899" on="0"/>
        <pt x="257" y="868" on="0"/>
        <pt x="300" y="868" on="1"/>
        <pt x="343" y="868" on="0"/>
        <pt x="394" y="899" on="0"/>
        <pt x="414" y="939" on="1"/>
        <pt x="466" y="939" on="1"/>
        <pt x="484" y="939" on="0"/>
        <pt x="478" y="918" on="1"/>
        <pt x="464" y="866" on="0"/>
        <pt x="375" y="797" on="0"/>
        <pt x="313" y="797" on="1"/>
        <pt x="287" y="797" on="1"/>
        <pt x="225" y="797" on="0"/>
        <pt x="136" y="866" on="0"/>
        <pt x="122" y="918" on="1"/>
        <pt x="116" y="939" on="0"/>
        <pt x="134" y="939" on="1"/>
      </contour>
      <contour>
        <pt x="30" y="700" on="1"/>
        <pt x="522" y="700" on="1"/>
        <pt x="527" y="700" on="0"/>
        <pt x="530" y="697" on="1"/>
        <pt x="533" y="694" on="0"/>
        <pt x="533" y="689" on="1"/>
        <pt x="533" y="623" on="1"/>
        <pt x="177" y="623" on="1"/>
        <pt x="177" y="392" on="1"/>
        <pt x="469" y="392" on="1"/>
        <pt x="474" y="392" on="0"/>
        <pt x="477" y="389" on="1"/>
        <pt x="480" y="386" on="0"/>
        <pt x="480" y="381" on="1"/>
        <pt x="480" y="317" on="1"/>
        <pt x="177" y="317" on="1"/>
        <pt x="177" y="77" on="1"/>
        <pt x="522" y="77" on="1"/>
        <pt x="533" y="77" on="0"/>
        <pt x="533" y="66" on="1"/>
        <pt x="533" y="0" on="1"/>
        <pt x="103" y="0" on="1"/>
        <pt x="92" y="0" on="0"/>
        <pt x="92" y="11" on="1"/>
        <pt x="92" y="623" on="1"/>
        <pt x="41" y="623" on="1"/>
        <pt x="36" y="623" on="0"/>
        <pt x="33" y="626" on="1"/>
        <pt x="30" y="629" on="0"/>
        <pt x="30" y="634" on="1"/>
      </contour>
    </TTGlyph>
    <TTGlyph name="Ecaron" xMin="30" yMin="0" xMax="533" yMax="945">
      <contour>
        <pt x="74" y="945" on="1"/>
        <pt x="148" y="945" on="1"/>
        <pt x="159" y="945" on="0"/>
        <pt x="171" y="941" on="0"/>
        <pt x="179" y="934" on="1"/>
        <pt x="194" y="923" on="0"/>
        <pt x="260" y="870" on="0"/>
        <pt x="301" y="838" on="1"/>
        <pt x="340" y="869" on="0"/>
        <pt x="406" y="921" on="0"/>
        <pt x="436" y="945" on="1"/>
        <pt x="504" y="945" on="1"/>
        <pt x="516" y="945" on="0"/>
        <pt x="516" y="938" on="1"/>
        <pt x="516" y="934" on="0"/>
        <pt x="508" y="926" on="0"/>
        <pt x="493" y="912" on="1"/>
        <pt x="481" y="901" on="0"/>
        <pt x="440" y="864" on="0"/>
        <pt x="394" y="822" on="0"/>
        <pt x="354" y="786" on="0"/>
        <pt x="343" y="776" on="1"/>
        <pt x="270" y="776" on="1"/>
        <pt x="263" y="776" on="0"/>
        <pt x="251" y="783" on="0"/>
        <pt x="236" y="796" on="1"/>
        <pt x="228" y="804" on="0"/>
        <pt x="191" y="838" on="0"/>
        <pt x="143" y="882" on="0"/>
        <pt x="94" y="927" on="0"/>
      </contour>
      <contour>
        <pt x="30" y="700" on="1"/>
        <pt x="522" y="700" on="1"/>
        <pt x="527" y="700" on="0"/>
        <pt x="530" y="697" on="1"/>
        <pt x="533" y="694" on="0"/>
        <pt x="533" y="689" on="1"/>
        <pt x="533" y="623" on="1"/>
        <pt x="177" y="623" on="1"/>
        <pt x="177" y="392" on="1"/>
        <pt x="469" y="392" on="1"/>
        <pt x="474" y="392" on="0"/>
        <pt x="477" y="389" on="1"/>
        <pt x="480" y="386" on="0"/>
        <pt x="480" y="381" on="1"/>
        <pt x="480" y="317" on="1"/>
        <pt x="177" y="317" on="1"/>
        <pt x="177" y="77" on="1"/>
        <pt x="522" y="77" on="1"/>
        <pt x="533" y="77" on="0"/>
        <pt x="533" y="66" on="1"/>
        <pt x="533" y="0" on="1"/>
        <pt x="103" y="0" on="1"/>
        <pt x="92" y="0" on="0"/>
        <pt x="92" y="11" on="1"/>
        <pt x="92" y="623" on="1"/>
        <pt x="41" y="623" on="1"/>
        <pt x="36" y="623" on="0"/>
        <pt x="33" y="626" on="1"/>
        <pt x="30" y="629" on="0"/>
        <pt x="30" y="634" on="1"/>
      </contour>
    </TTGlyph>
    <TTGlyph name="Ecircumflex" xMin="30" yMin="0" xMax="533" yMax="945">
      <contour>
        <pt x="164" y="776" on="1"/>
        <pt x="95" y="776" on="1"/>
        <pt x="84" y="776" on="0"/>
        <pt x="84" y="783" on="1"/>
        <pt x="84" y="787" on="0"/>
        <pt x="91" y="796" on="0"/>
        <pt x="106" y="809" on="1"/>
        <pt x="118" y="820" on="0"/>
        <pt x="160" y="857" on="0"/>
        <pt x="205" y="899" on="0"/>
        <pt x="245" y="935" on="0"/>
        <pt x="256" y="945" on="1"/>
        <pt x="329" y="945" on="1"/>
        <pt x="337" y="945" on="0"/>
        <pt x="348" y="938" on="0"/>
        <pt x="364" y="925" on="1"/>
        <pt x="372" y="918" on="0"/>
        <pt x="409" y="883" on="0"/>
        <pt x="457" y="839" on="0"/>
        <pt x="506" y="794" on="0"/>
        <pt x="526" y="776" on="1"/>
        <pt x="451" y="776" on="1"/>
        <pt x="440" y="776" on="0"/>
        <pt x="429" y="780" on="0"/>
        <pt x="421" y="786" on="1"/>
        <pt x="406" y="798" on="0"/>
        <pt x="340" y="850" on="0"/>
        <pt x="299" y="882" on="1"/>
        <pt x="259" y="851" on="0"/>
        <pt x="193" y="800" on="0"/>
      </contour>
      <contour>
        <pt x="30" y="700" on="1"/>
        <pt x="522" y="700" on="1"/>
        <pt x="527" y="700" on="0"/>
        <pt x="530" y="697" on="1"/>
        <pt x="533" y="694" on="0"/>
        <pt x="533" y="689" on="1"/>
        <pt x="533" y="623" on="1"/>
        <pt x="177" y="623" on="1"/>
        <pt x="177" y="392" on="1"/>
        <pt x="469" y="392" on="1"/>
        <pt x="474" y="392" on="0"/>
        <pt x="477" y="389" on="1"/>
        <pt x="480" y="386" on="0"/>
        <pt x="480" y="381" on="1"/>
        <pt x="480" y="317" on="1"/>
        <pt x="177" y="317" on="1"/>
        <pt x="177" y="77" on="1"/>
        <pt x="522" y="77" on="1"/>
        <pt x="533" y="77" on="0"/>
        <pt x="533" y="66" on="1"/>
        <pt x="533" y="0" on="1"/>
        <pt x="103" y="0" on="1"/>
        <pt x="92" y="0" on="0"/>
        <pt x="92" y="11" on="1"/>
        <pt x="92" y="623" on="1"/>
        <pt x="41" y="623" on="1"/>
        <pt x="36" y="623" on="0"/>
        <pt x="33" y="626" on="1"/>
        <pt x="30" y="629" on="0"/>
        <pt x="30" y="634" on="1"/>
      </contour>
    </TTGlyph>
    <TTGlyph name="Edieresis" xMin="30" yMin="0" xMax="533" yMax="903">
      <contour>
        <pt x="249" y="802" on="1"/>
        <pt x="156" y="802" on="1"/>
        <pt x="145" y="802" on="0"/>
        <pt x="145" y="813" on="1"/>
        <pt x="145" y="903" on="1"/>
        <pt x="238" y="903" on="1"/>
        <pt x="249" y="903" on="0"/>
        <pt x="249" y="892" on="1"/>
      </contour>
      <contour>
        <pt x="455" y="802" on="1"/>
        <pt x="362" y="802" on="1"/>
        <pt x="351" y="802" on="0"/>
        <pt x="351" y="813" on="1"/>
        <pt x="351" y="903" on="1"/>
        <pt x="444" y="903" on="1"/>
        <pt x="455" y="903" on="0"/>
        <pt x="455" y="892" on="1"/>
      </contour>
      <contour>
        <pt x="30" y="700" on="1"/>
        <pt x="522" y="700" on="1"/>
        <pt x="527" y="700" on="0"/>
        <pt x="530" y="697" on="1"/>
        <pt x="533" y="694" on="0"/>
        <pt x="533" y="689" on="1"/>
        <pt x="533" y="623" on="1"/>
        <pt x="177" y="623" on="1"/>
        <pt x="177" y="392" on="1"/>
        <pt x="469" y="392" on="1"/>
        <pt x="474" y="392" on="0"/>
        <pt x="477" y="389" on="1"/>
        <pt x="480" y="386" on="0"/>
        <pt x="480" y="381" on="1"/>
        <pt x="480" y="317" on="1"/>
        <pt x="177" y="317" on="1"/>
        <pt x="177" y="77" on="1"/>
        <pt x="522" y="77" on="1"/>
        <pt x="533" y="77" on="0"/>
        <pt x="533" y="66" on="1"/>
        <pt x="533" y="0" on="1"/>
        <pt x="103" y="0" on="1"/>
        <pt x="92" y="0" on="0"/>
        <pt x="92" y="11" on="1"/>
        <pt x="92" y="623" on="1"/>
        <pt x="41" y="623" on="1"/>
        <pt x="36" y="623" on="0"/>
        <pt x="33" y="626" on="1"/>
        <pt x="30" y="629" on="0"/>
        <pt x="30" y="634" on="1"/>
      </contour>
    </TTGlyph>
    <TTGlyph name="Edotaccent" xMin="30" yMin="0" xMax="533" yMax="903">
      <contour>
        <pt x="356" y="801" on="1"/>
        <pt x="255" y="801" on="1"/>
        <pt x="244" y="801" on="0"/>
        <pt x="244" y="812" on="1"/>
        <pt x="244" y="903" on="1"/>
        <pt x="345" y="903" on="1"/>
        <pt x="356" y="903" on="0"/>
        <pt x="356" y="892" on="1"/>
      </contour>
      <contour>
        <pt x="30" y="700" on="1"/>
        <pt x="522" y="700" on="1"/>
        <pt x="527" y="700" on="0"/>
        <pt x="530" y="697" on="1"/>
        <pt x="533" y="694" on="0"/>
        <pt x="533" y="689" on="1"/>
        <pt x="533" y="623" on="1"/>
        <pt x="177" y="623" on="1"/>
        <pt x="177" y="392" on="1"/>
        <pt x="469" y="392" on="1"/>
        <pt x="474" y="392" on="0"/>
        <pt x="477" y="389" on="1"/>
        <pt x="480" y="386" on="0"/>
        <pt x="480" y="381" on="1"/>
        <pt x="480" y="317" on="1"/>
        <pt x="177" y="317" on="1"/>
        <pt x="177" y="77" on="1"/>
        <pt x="522" y="77" on="1"/>
        <pt x="533" y="77" on="0"/>
        <pt x="533" y="66" on="1"/>
        <pt x="533" y="0" on="1"/>
        <pt x="103" y="0" on="1"/>
        <pt x="92" y="0" on="0"/>
        <pt x="92" y="11" on="1"/>
        <pt x="92" y="623" on="1"/>
        <pt x="41" y="623" on="1"/>
        <pt x="36" y="623" on="0"/>
        <pt x="33" y="626" on="1"/>
        <pt x="30" y="629" on="0"/>
        <pt x="30" y="634" on="1"/>
      </contour>
    </TTGlyph>
    <TTGlyph name="Edotbelow" xMin="30" yMin="-204" xMax="533" yMax="700">
      <contour>
        <pt x="30" y="700" on="1"/>
        <pt x="522" y="700" on="1"/>
        <pt x="527" y="700" on="0"/>
        <pt x="530" y="697" on="1"/>
        <pt x="533" y="694" on="0"/>
        <pt x="533" y="689" on="1"/>
        <pt x="533" y="623" on="1"/>
        <pt x="177" y="623" on="1"/>
        <pt x="177" y="392" on="1"/>
        <pt x="469" y="392" on="1"/>
        <pt x="474" y="392" on="0"/>
        <pt x="477" y="389" on="1"/>
        <pt x="480" y="386" on="0"/>
        <pt x="480" y="381" on="1"/>
        <pt x="480" y="317" on="1"/>
        <pt x="177" y="317" on="1"/>
        <pt x="177" y="77" on="1"/>
        <pt x="522" y="77" on="1"/>
        <pt x="533" y="77" on="0"/>
        <pt x="533" y="66" on="1"/>
        <pt x="533" y="0" on="1"/>
        <pt x="103" y="0" on="1"/>
        <pt x="92" y="0" on="0"/>
        <pt x="92" y="11" on="1"/>
        <pt x="92" y="623" on="1"/>
        <pt x="41" y="623" on="1"/>
        <pt x="36" y="623" on="0"/>
        <pt x="33" y="626" on="1"/>
        <pt x="30" y="629" on="0"/>
        <pt x="30" y="634" on="1"/>
      </contour>
      <contour>
        <pt x="376" y="-204" on="1"/>
        <pt x="275" y="-204" on="1"/>
        <pt x="264" y="-204" on="0"/>
        <pt x="264" y="-193" on="1"/>
        <pt x="264" y="-102" on="1"/>
        <pt x="365" y="-102" on="1"/>
        <pt x="376" y="-102" on="0"/>
        <pt x="376" y="-113" on="1"/>
      </contour>
    </TTGlyph>
    <TTGlyph name="Egrave" xMin="30" yMin="0" xMax="533" yMax="948">
      <contour>
        <pt x="340" y="776" on="1"/>
        <pt x="274" y="776" on="1"/>
        <pt x="262" y="776" on="0"/>
        <pt x="257" y="783" on="1"/>
        <pt x="227" y="819" on="0"/>
        <pt x="189" y="864" on="0"/>
        <pt x="156" y="904" on="0"/>
        <pt x="131" y="933" on="1"/>
        <pt x="127" y="938" on="0"/>
        <pt x="132" y="948" on="0"/>
        <pt x="138" y="948" on="1"/>
        <pt x="232" y="948" on="1"/>
        <pt x="261" y="902" on="0"/>
        <pt x="312" y="821" on="0"/>
      </contour>
      <contour>
        <pt x="30" y="700" on="1"/>
        <pt x="522" y="700" on="1"/>
        <pt x="527" y="700" on="0"/>
        <pt x="530" y="697" on="1"/>
        <pt x="533" y="694" on="0"/>
        <pt x="533" y="689" on="1"/>
        <pt x="533" y="623" on="1"/>
        <pt x="177" y="623" on="1"/>
        <pt x="177" y="392" on="1"/>
        <pt x="469" y="392" on="1"/>
        <pt x="474" y="392" on="0"/>
        <pt x="477" y="389" on="1"/>
        <pt x="480" y="386" on="0"/>
        <pt x="480" y="381" on="1"/>
        <pt x="480" y="317" on="1"/>
        <pt x="177" y="317" on="1"/>
        <pt x="177" y="77" on="1"/>
        <pt x="522" y="77" on="1"/>
        <pt x="533" y="77" on="0"/>
        <pt x="533" y="66" on="1"/>
        <pt x="533" y="0" on="1"/>
        <pt x="103" y="0" on="1"/>
        <pt x="92" y="0" on="0"/>
        <pt x="92" y="11" on="1"/>
        <pt x="92" y="623" on="1"/>
        <pt x="41" y="623" on="1"/>
        <pt x="36" y="623" on="0"/>
        <pt x="33" y="626" on="1"/>
        <pt x="30" y="629" on="0"/>
        <pt x="30" y="634" on="1"/>
      </contour>
    </TTGlyph>
    <TTGlyph name="Emacron" xMin="30" yMin="0" xMax="533" yMax="881">
      <contour>
        <pt x="124" y="881" on="1"/>
        <pt x="465" y="881" on="1"/>
        <pt x="476" y="881" on="0"/>
        <pt x="476" y="870" on="1"/>
        <pt x="476" y="808" on="1"/>
        <pt x="135" y="808" on="1"/>
        <pt x="124" y="808" on="0"/>
        <pt x="124" y="819" on="1"/>
      </contour>
      <contour>
        <pt x="30" y="700" on="1"/>
        <pt x="522" y="700" on="1"/>
        <pt x="527" y="700" on="0"/>
        <pt x="530" y="697" on="1"/>
        <pt x="533" y="694" on="0"/>
        <pt x="533" y="689" on="1"/>
        <pt x="533" y="623" on="1"/>
        <pt x="177" y="623" on="1"/>
        <pt x="177" y="392" on="1"/>
        <pt x="469" y="392" on="1"/>
        <pt x="474" y="392" on="0"/>
        <pt x="477" y="389" on="1"/>
        <pt x="480" y="386" on="0"/>
        <pt x="480" y="381" on="1"/>
        <pt x="480" y="317" on="1"/>
        <pt x="177" y="317" on="1"/>
        <pt x="177" y="77" on="1"/>
        <pt x="522" y="77" on="1"/>
        <pt x="533" y="77" on="0"/>
        <pt x="533" y="66" on="1"/>
        <pt x="533" y="0" on="1"/>
        <pt x="103" y="0" on="1"/>
        <pt x="92" y="0" on="0"/>
        <pt x="92" y="11" on="1"/>
        <pt x="92" y="623" on="1"/>
        <pt x="41" y="623" on="1"/>
        <pt x="36" y="623" on="0"/>
        <pt x="33" y="626" on="1"/>
        <pt x="30" y="629" on="0"/>
        <pt x="30" y="634" on="1"/>
      </contour>
    </TTGlyph>
    <TTGlyph name="Eng" xMin="75" yMin="-250" xMax="525" yMax="700">
      <contour>
        <pt x="156" y="0" on="1"/>
        <pt x="86" y="0" on="1"/>
        <pt x="75" y="0" on="0"/>
        <pt x="75" y="11" on="1"/>
        <pt x="75" y="700" on="1"/>
        <pt x="164" y="700" on="1"/>
        <pt x="176" y="700" on="0"/>
        <pt x="181" y="690" on="1"/>
        <pt x="246" y="555" on="0"/>
        <pt x="379" y="281" on="0"/>
        <pt x="445" y="144" on="1"/>
        <pt x="444" y="158" on="0"/>
        <pt x="444" y="161" on="1"/>
        <pt x="444" y="700" on="1"/>
        <pt x="514" y="700" on="1"/>
        <pt x="525" y="700" on="0"/>
        <pt x="525" y="689" on="1"/>
        <pt x="525" y="0" on="1"/>
        <pt x="525" y="-120" on="0"/>
        <pt x="414" y="-250" on="0"/>
        <pt x="302" y="-250" on="1"/>
        <pt x="256" y="-250" on="0"/>
        <pt x="179" y="-230" on="0"/>
        <pt x="168" y="-220" on="1"/>
        <pt x="165" y="-217" on="0"/>
        <pt x="165" y="-212" on="1"/>
        <pt x="165" y="-144" on="1"/>
        <pt x="180" y="-144" on="1"/>
        <pt x="206" y="-157" on="0"/>
        <pt x="264" y="-171" on="0"/>
        <pt x="301" y="-171" on="1"/>
        <pt x="372" y="-171" on="0"/>
        <pt x="444" y="-89" on="0"/>
        <pt x="447" y="0" on="1"/>
        <pt x="444" y="0" on="1"/>
        <pt x="435" y="0" on="0"/>
        <pt x="431" y="7" on="1"/>
        <pt x="361" y="149" on="0"/>
        <pt x="222" y="435" on="0"/>
        <pt x="153" y="577" on="1"/>
        <pt x="154" y="557" on="0"/>
        <pt x="156" y="529" on="0"/>
        <pt x="156" y="525" on="1"/>
      </contour>
    </TTGlyph>
    <TTGlyph name="Eogonek" xMin="30" yMin="-251" xMax="533" yMax="700">
      <contour>
        <pt x="317" y="-137" on="1"/>
        <pt x="317" y="-87" on="0"/>
        <pt x="370" y="-19" on="0"/>
        <pt x="407" y="0" on="1"/>
        <pt x="103" y="0" on="1"/>
        <pt x="92" y="0" on="0"/>
        <pt x="92" y="11" on="1"/>
        <pt x="92" y="623" on="1"/>
        <pt x="41" y="623" on="1"/>
        <pt x="36" y="623" on="0"/>
        <pt x="33" y="626" on="1"/>
        <pt x="30" y="629" on="0"/>
        <pt x="30" y="634" on="1"/>
        <pt x="30" y="700" on="1"/>
        <pt x="522" y="700" on="1"/>
        <pt x="527" y="700" on="0"/>
        <pt x="530" y="697" on="1"/>
        <pt x="533" y="694" on="0"/>
        <pt x="533" y="689" on="1"/>
        <pt x="533" y="623" on="1"/>
        <pt x="177" y="623" on="1"/>
        <pt x="177" y="392" on="1"/>
        <pt x="469" y="392" on="1"/>
        <pt x="474" y="392" on="0"/>
        <pt x="477" y="389" on="1"/>
        <pt x="480" y="386" on="0"/>
        <pt x="480" y="381" on="1"/>
        <pt x="480" y="317" on="1"/>
        <pt x="177" y="317" on="1"/>
        <pt x="177" y="77" on="1"/>
        <pt x="522" y="77" on="1"/>
        <pt x="533" y="77" on="0"/>
        <pt x="533" y="66" on="1"/>
        <pt x="533" y="0" on="1"/>
        <pt x="532" y="0" on="1"/>
        <pt x="532" y="-1" on="1"/>
        <pt x="532" y="-5" on="0"/>
        <pt x="529" y="-10" on="0"/>
        <pt x="521" y="-12" on="1"/>
        <pt x="449" y="-28" on="0"/>
        <pt x="394" y="-86" on="0"/>
        <pt x="394" y="-118" on="1"/>
        <pt x="394" y="-146" on="0"/>
        <pt x="427" y="-173" on="0"/>
        <pt x="452" y="-173" on="1"/>
        <pt x="488" y="-173" on="0"/>
        <pt x="514" y="-153" on="1"/>
        <pt x="529" y="-153" on="1"/>
        <pt x="529" y="-217" on="1"/>
        <pt x="529" y="-229" on="0"/>
        <pt x="483" y="-251" on="0"/>
        <pt x="448" y="-251" on="1"/>
        <pt x="387" y="-251" on="0"/>
        <pt x="317" y="-190" on="0"/>
      </contour>
    </TTGlyph>
    <TTGlyph name="Eth" xMin="21" yMin="0" xMax="537" yMax="700">
      <contour>
        <pt x="21" y="389" on="1"/>
        <pt x="92" y="389" on="1"/>
        <pt x="92" y="623" on="1"/>
        <pt x="44" y="623" on="1"/>
        <pt x="39" y="623" on="0"/>
        <pt x="36" y="626" on="1"/>
        <pt x="33" y="629" on="0"/>
        <pt x="33" y="634" on="1"/>
        <pt x="33" y="700" on="1"/>
        <pt x="276" y="700" on="1"/>
        <pt x="350" y="700" on="0"/>
        <pt x="468" y="656" on="0"/>
        <pt x="537" y="548" on="0"/>
        <pt x="537" y="452" on="1"/>
        <pt x="537" y="244" on="1"/>
        <pt x="537" y="129" on="0"/>
        <pt x="402" y="0" on="0"/>
        <pt x="283" y="0" on="1"/>
        <pt x="103" y="0" on="1"/>
        <pt x="92" y="0" on="0"/>
        <pt x="92" y="10" on="1"/>
        <pt x="92" y="10" on="0"/>
        <pt x="92" y="11" on="1"/>
        <pt x="92" y="325" on="1"/>
        <pt x="32" y="325" on="1"/>
        <pt x="21" y="325" on="0"/>
        <pt x="21" y="336" on="1"/>
      </contour>
      <contour>
        <pt x="357" y="325" on="1"/>
        <pt x="176" y="325" on="1"/>
        <pt x="176" y="77" on="1"/>
        <pt x="279" y="77" on="1"/>
        <pt x="364" y="77" on="0"/>
        <pt x="452" y="165" on="0"/>
        <pt x="452" y="246" on="1"/>
        <pt x="452" y="453" on="1"/>
        <pt x="452" y="543" on="0"/>
        <pt x="369" y="623" on="0"/>
        <pt x="277" y="623" on="1"/>
        <pt x="176" y="623" on="1"/>
        <pt x="176" y="389" on="1"/>
        <pt x="346" y="389" on="1"/>
        <pt x="357" y="389" on="0"/>
        <pt x="357" y="378" on="1"/>
      </contour>
    </TTGlyph>
    <TTGlyph name="Etilde" xMin="30" yMin="0" xMax="533" yMax="928">
      <contour>
        <pt x="393" y="866" on="1"/>
        <pt x="419" y="866" on="0"/>
        <pt x="454" y="888" on="0"/>
        <pt x="473" y="911" on="1"/>
        <pt x="486" y="911" on="1"/>
        <pt x="486" y="845" on="1"/>
        <pt x="486" y="840" on="0"/>
        <pt x="484" y="832" on="0"/>
        <pt x="479" y="827" on="1"/>
        <pt x="463" y="811" on="0"/>
        <pt x="423" y="790" on="0"/>
        <pt x="392" y="790" on="1"/>
        <pt x="364" y="790" on="0"/>
        <pt x="316" y="809" on="0"/>
        <pt x="273" y="833" on="0"/>
        <pt x="230" y="852" on="0"/>
        <pt x="207" y="852" on="1"/>
        <pt x="182" y="852" on="0"/>
        <pt x="147" y="831" on="0"/>
        <pt x="127" y="808" on="1"/>
        <pt x="114" y="808" on="1"/>
        <pt x="114" y="874" on="1"/>
        <pt x="114" y="878" on="0"/>
        <pt x="116" y="886" on="0"/>
        <pt x="121" y="891" on="1"/>
        <pt x="137" y="908" on="0"/>
        <pt x="177" y="928" on="0"/>
        <pt x="208" y="928" on="1"/>
        <pt x="236" y="928" on="0"/>
        <pt x="284" y="909" on="0"/>
        <pt x="327" y="885" on="0"/>
        <pt x="370" y="866" on="0"/>
      </contour>
      <contour>
        <pt x="30" y="700" on="1"/>
        <pt x="522" y="700" on="1"/>
        <pt x="527" y="700" on="0"/>
        <pt x="530" y="697" on="1"/>
        <pt x="533" y="694" on="0"/>
        <pt x="533" y="689" on="1"/>
        <pt x="533" y="623" on="1"/>
        <pt x="177" y="623" on="1"/>
        <pt x="177" y="392" on="1"/>
        <pt x="469" y="392" on="1"/>
        <pt x="474" y="392" on="0"/>
        <pt x="477" y="389" on="1"/>
        <pt x="480" y="386" on="0"/>
        <pt x="480" y="381" on="1"/>
        <pt x="480" y="317" on="1"/>
        <pt x="177" y="317" on="1"/>
        <pt x="177" y="77" on="1"/>
        <pt x="522" y="77" on="1"/>
        <pt x="533" y="77" on="0"/>
        <pt x="533" y="66" on="1"/>
        <pt x="533" y="0" on="1"/>
        <pt x="103" y="0" on="1"/>
        <pt x="92" y="0" on="0"/>
        <pt x="92" y="11" on="1"/>
        <pt x="92" y="623" on="1"/>
        <pt x="41" y="623" on="1"/>
        <pt x="36" y="623" on="0"/>
        <pt x="33" y="626" on="1"/>
        <pt x="30" y="629" on="0"/>
        <pt x="30" y="634" on="1"/>
      </contour>
    </TTGlyph>
    <TTGlyph name="Euro" xMin="21" yMin="-20" xMax="533" yMax="720">
      <contour>
        <pt x="330" y="-20" on="1"/>
        <pt x="212" y="-20" on="0"/>
        <pt x="74" y="113" on="0"/>
        <pt x="68" y="225" on="1"/>
        <pt x="32" y="225" on="1"/>
        <pt x="21" y="225" on="0"/>
        <pt x="21" y="236" on="1"/>
        <pt x="21" y="289" on="1"/>
        <pt x="67" y="289" on="1"/>
        <pt x="67" y="394" on="1"/>
        <pt x="32" y="394" on="1"/>
        <pt x="21" y="394" on="0"/>
        <pt x="21" y="405" on="1"/>
        <pt x="21" y="458" on="1"/>
        <pt x="67" y="458" on="1"/>
        <pt x="72" y="583" on="0"/>
        <pt x="208" y="720" on="0"/>
        <pt x="334" y="720" on="1"/>
        <pt x="403" y="720" on="0"/>
        <pt x="496" y="685" on="0"/>
        <pt x="523" y="658" on="1"/>
        <pt x="523" y="658" on="0"/>
        <pt x="523" y="658" on="1"/>
        <pt x="527" y="654" on="0"/>
        <pt x="530" y="646" on="0"/>
        <pt x="530" y="637" on="1"/>
        <pt x="530" y="542" on="1"/>
        <pt x="463" y="542" on="1"/>
        <pt x="452" y="542" on="0"/>
        <pt x="452" y="553" on="1"/>
        <pt x="452" y="616" on="1"/>
        <pt x="431" y="630" on="0"/>
        <pt x="373" y="645" on="0"/>
        <pt x="333" y="645" on="1"/>
        <pt x="247" y="645" on="0"/>
        <pt x="157" y="554" on="0"/>
        <pt x="153" y="458" on="1"/>
        <pt x="365" y="458" on="1"/>
        <pt x="376" y="458" on="0"/>
        <pt x="376" y="447" on="1"/>
        <pt x="376" y="394" on="1"/>
        <pt x="153" y="394" on="1"/>
        <pt x="153" y="289" on="1"/>
        <pt x="365" y="289" on="1"/>
        <pt x="370" y="289" on="0"/>
        <pt x="373" y="286" on="1"/>
        <pt x="376" y="283" on="0"/>
        <pt x="376" y="278" on="1"/>
        <pt x="376" y="225" on="1"/>
        <pt x="154" y="225" on="1"/>
        <pt x="162" y="144" on="0"/>
        <pt x="254" y="58" on="0"/>
        <pt x="332" y="58" on="1"/>
        <pt x="388" y="58" on="0"/>
        <pt x="477" y="85" on="0"/>
        <pt x="518" y="116" on="1"/>
        <pt x="533" y="116" on="1"/>
        <pt x="533" y="47" on="1"/>
        <pt x="533" y="42" on="0"/>
        <pt x="530" y="39" on="1"/>
        <pt x="504" y="13" on="0"/>
        <pt x="397" y="-20" on="0"/>
      </contour>
    </TTGlyph>
    <TTGlyph name="F" xMin="53" yMin="0" xMax="533" yMax="700">
      <contour>
        <pt x="200" y="0" on="1"/>
        <pt x="127" y="0" on="1"/>
        <pt x="116" y="0" on="0"/>
        <pt x="116" y="11" on="1"/>
        <pt x="116" y="623" on="1"/>
        <pt x="64" y="623" on="1"/>
        <pt x="59" y="623" on="0"/>
        <pt x="56" y="626" on="1"/>
        <pt x="53" y="629" on="0"/>
        <pt x="53" y="634" on="1"/>
        <pt x="53" y="700" on="1"/>
        <pt x="522" y="700" on="1"/>
        <pt x="527" y="700" on="0"/>
        <pt x="530" y="697" on="1"/>
        <pt x="533" y="694" on="0"/>
        <pt x="533" y="689" on="1"/>
        <pt x="533" y="623" on="1"/>
        <pt x="200" y="623" on="1"/>
        <pt x="200" y="369" on="1"/>
        <pt x="475" y="369" on="1"/>
        <pt x="480" y="369" on="0"/>
        <pt x="483" y="366" on="1"/>
        <pt x="486" y="363" on="0"/>
        <pt x="486" y="358" on="1"/>
        <pt x="486" y="293" on="1"/>
        <pt x="200" y="293" on="1"/>
      </contour>
    </TTGlyph>
    <TTGlyph name="G" xMin="67" yMin="-20" xMax="567" yMax="720">
      <contour>
        <pt x="311" y="56" on="1"/>
        <pt x="353" y="56" on="0"/>
        <pt x="412" y="74" on="0"/>
        <pt x="444" y="94" on="0"/>
        <pt x="444" y="96" on="1"/>
        <pt x="444" y="283" on="1"/>
        <pt x="330" y="283" on="1"/>
        <pt x="325" y="283" on="0"/>
        <pt x="322" y="286" on="1"/>
        <pt x="319" y="289" on="0"/>
        <pt x="319" y="294" on="1"/>
        <pt x="319" y="356" on="1"/>
        <pt x="556" y="356" on="1"/>
        <pt x="567" y="356" on="0"/>
        <pt x="567" y="345" on="1"/>
        <pt x="567" y="283" on="1"/>
        <pt x="524" y="283" on="1"/>
        <pt x="524" y="68" on="1"/>
        <pt x="524" y="58" on="0"/>
        <pt x="477" y="16" on="0"/>
        <pt x="381" y="-20" on="0"/>
        <pt x="309" y="-20" on="1"/>
        <pt x="194" y="-20" on="0"/>
        <pt x="67" y="112" on="0"/>
        <pt x="67" y="222" on="1"/>
        <pt x="67" y="452" on="1"/>
        <pt x="67" y="586" on="0"/>
        <pt x="199" y="720" on="0"/>
        <pt x="325" y="720" on="1"/>
        <pt x="390" y="720" on="0"/>
        <pt x="491" y="683" on="0"/>
        <pt x="517" y="657" on="1"/>
        <pt x="523" y="651" on="0"/>
        <pt x="523" y="638" on="1"/>
        <pt x="523" y="497" on="1"/>
        <pt x="456" y="497" on="1"/>
        <pt x="445" y="497" on="0"/>
        <pt x="445" y="508" on="1"/>
        <pt x="445" y="616" on="1"/>
        <pt x="420" y="631" on="0"/>
        <pt x="361" y="644" on="0"/>
        <pt x="320" y="644" on="1"/>
        <pt x="232" y="644" on="0"/>
        <pt x="150" y="551" on="0"/>
        <pt x="150" y="453" on="1"/>
        <pt x="150" y="225" on="1"/>
        <pt x="150" y="142" on="0"/>
        <pt x="235" y="56" on="0"/>
      </contour>
    </TTGlyph>
    <TTGlyph name="Gbreve" xMin="67" yMin="-20" xMax="567" yMax="939">
      <contour>
        <pt x="202" y="939" on="1"/>
        <pt x="222" y="899" on="0"/>
        <pt x="274" y="868" on="0"/>
        <pt x="317" y="868" on="1"/>
        <pt x="360" y="868" on="0"/>
        <pt x="411" y="899" on="0"/>
        <pt x="431" y="939" on="1"/>
        <pt x="483" y="939" on="1"/>
        <pt x="501" y="939" on="0"/>
        <pt x="495" y="918" on="1"/>
        <pt x="481" y="866" on="0"/>
        <pt x="392" y="797" on="0"/>
        <pt x="330" y="797" on="1"/>
        <pt x="303" y="797" on="1"/>
        <pt x="242" y="797" on="0"/>
        <pt x="152" y="866" on="0"/>
        <pt x="138" y="918" on="1"/>
        <pt x="132" y="939" on="0"/>
        <pt x="150" y="939" on="1"/>
      </contour>
      <contour>
        <pt x="311" y="56" on="1"/>
        <pt x="353" y="56" on="0"/>
        <pt x="412" y="74" on="0"/>
        <pt x="444" y="94" on="0"/>
        <pt x="444" y="96" on="1"/>
        <pt x="444" y="283" on="1"/>
        <pt x="330" y="283" on="1"/>
        <pt x="325" y="283" on="0"/>
        <pt x="322" y="286" on="1"/>
        <pt x="319" y="289" on="0"/>
        <pt x="319" y="294" on="1"/>
        <pt x="319" y="356" on="1"/>
        <pt x="556" y="356" on="1"/>
        <pt x="567" y="356" on="0"/>
        <pt x="567" y="345" on="1"/>
        <pt x="567" y="283" on="1"/>
        <pt x="524" y="283" on="1"/>
        <pt x="524" y="68" on="1"/>
        <pt x="524" y="58" on="0"/>
        <pt x="477" y="16" on="0"/>
        <pt x="381" y="-20" on="0"/>
        <pt x="309" y="-20" on="1"/>
        <pt x="194" y="-20" on="0"/>
        <pt x="67" y="112" on="0"/>
        <pt x="67" y="222" on="1"/>
        <pt x="67" y="452" on="1"/>
        <pt x="67" y="586" on="0"/>
        <pt x="199" y="720" on="0"/>
        <pt x="325" y="720" on="1"/>
        <pt x="390" y="720" on="0"/>
        <pt x="491" y="683" on="0"/>
        <pt x="517" y="657" on="1"/>
        <pt x="523" y="651" on="0"/>
        <pt x="523" y="638" on="1"/>
        <pt x="523" y="497" on="1"/>
        <pt x="456" y="497" on="1"/>
        <pt x="445" y="497" on="0"/>
        <pt x="445" y="508" on="1"/>
        <pt x="445" y="616" on="1"/>
        <pt x="420" y="631" on="0"/>
        <pt x="361" y="644" on="0"/>
        <pt x="320" y="644" on="1"/>
        <pt x="232" y="644" on="0"/>
        <pt x="150" y="551" on="0"/>
        <pt x="150" y="453" on="1"/>
        <pt x="150" y="225" on="1"/>
        <pt x="150" y="142" on="0"/>
        <pt x="235" y="56" on="0"/>
      </contour>
    </TTGlyph>
    <TTGlyph name="Gcaron" xMin="67" yMin="-20" xMax="567" yMax="945">
      <contour>
        <pt x="91" y="945" on="1"/>
        <pt x="165" y="945" on="1"/>
        <pt x="176" y="945" on="0"/>
        <pt x="188" y="941" on="0"/>
        <pt x="195" y="934" on="1"/>
        <pt x="210" y="923" on="0"/>
        <pt x="276" y="870" on="0"/>
        <pt x="317" y="838" on="1"/>
        <pt x="357" y="869" on="0"/>
        <pt x="423" y="921" on="0"/>
        <pt x="452" y="945" on="1"/>
        <pt x="521" y="945" on="1"/>
        <pt x="533" y="945" on="0"/>
        <pt x="533" y="938" on="1"/>
        <pt x="533" y="934" on="0"/>
        <pt x="525" y="926" on="0"/>
        <pt x="510" y="912" on="1"/>
        <pt x="498" y="901" on="0"/>
        <pt x="457" y="864" on="0"/>
        <pt x="411" y="822" on="0"/>
        <pt x="371" y="786" on="0"/>
        <pt x="360" y="776" on="1"/>
        <pt x="287" y="776" on="1"/>
        <pt x="280" y="776" on="0"/>
        <pt x="268" y="783" on="0"/>
        <pt x="253" y="796" on="1"/>
        <pt x="245" y="804" on="0"/>
        <pt x="208" y="838" on="0"/>
        <pt x="160" y="882" on="0"/>
        <pt x="111" y="927" on="0"/>
      </contour>
      <contour>
        <pt x="311" y="56" on="1"/>
        <pt x="353" y="56" on="0"/>
        <pt x="412" y="74" on="0"/>
        <pt x="444" y="94" on="0"/>
        <pt x="444" y="96" on="1"/>
        <pt x="444" y="283" on="1"/>
        <pt x="330" y="283" on="1"/>
        <pt x="325" y="283" on="0"/>
        <pt x="322" y="286" on="1"/>
        <pt x="319" y="289" on="0"/>
        <pt x="319" y="294" on="1"/>
        <pt x="319" y="356" on="1"/>
        <pt x="556" y="356" on="1"/>
        <pt x="567" y="356" on="0"/>
        <pt x="567" y="345" on="1"/>
        <pt x="567" y="283" on="1"/>
        <pt x="524" y="283" on="1"/>
        <pt x="524" y="68" on="1"/>
        <pt x="524" y="58" on="0"/>
        <pt x="477" y="16" on="0"/>
        <pt x="381" y="-20" on="0"/>
        <pt x="309" y="-20" on="1"/>
        <pt x="194" y="-20" on="0"/>
        <pt x="67" y="112" on="0"/>
        <pt x="67" y="222" on="1"/>
        <pt x="67" y="452" on="1"/>
        <pt x="67" y="586" on="0"/>
        <pt x="199" y="720" on="0"/>
        <pt x="325" y="720" on="1"/>
        <pt x="390" y="720" on="0"/>
        <pt x="491" y="683" on="0"/>
        <pt x="517" y="657" on="1"/>
        <pt x="523" y="651" on="0"/>
        <pt x="523" y="638" on="1"/>
        <pt x="523" y="497" on="1"/>
        <pt x="456" y="497" on="1"/>
        <pt x="445" y="497" on="0"/>
        <pt x="445" y="508" on="1"/>
        <pt x="445" y="616" on="1"/>
        <pt x="420" y="631" on="0"/>
        <pt x="361" y="644" on="0"/>
        <pt x="320" y="644" on="1"/>
        <pt x="232" y="644" on="0"/>
        <pt x="150" y="551" on="0"/>
        <pt x="150" y="453" on="1"/>
        <pt x="150" y="225" on="1"/>
        <pt x="150" y="142" on="0"/>
        <pt x="235" y="56" on="0"/>
      </contour>
    </TTGlyph>
    <TTGlyph name="Gcircumflex" xMin="67" yMin="-20" xMax="567" yMax="945">
      <contour>
        <pt x="181" y="776" on="1"/>
        <pt x="112" y="776" on="1"/>
        <pt x="100" y="776" on="0"/>
        <pt x="100" y="783" on="1"/>
        <pt x="100" y="787" on="0"/>
        <pt x="108" y="796" on="0"/>
        <pt x="123" y="809" on="1"/>
        <pt x="135" y="820" on="0"/>
        <pt x="176" y="857" on="0"/>
        <pt x="222" y="899" on="0"/>
        <pt x="262" y="935" on="0"/>
        <pt x="273" y="945" on="1"/>
        <pt x="346" y="945" on="1"/>
        <pt x="354" y="945" on="0"/>
        <pt x="365" y="938" on="0"/>
        <pt x="380" y="925" on="1"/>
        <pt x="388" y="918" on="0"/>
        <pt x="425" y="883" on="0"/>
        <pt x="473" y="839" on="0"/>
        <pt x="523" y="794" on="0"/>
        <pt x="542" y="776" on="1"/>
        <pt x="468" y="776" on="1"/>
        <pt x="457" y="776" on="0"/>
        <pt x="446" y="780" on="0"/>
        <pt x="438" y="786" on="1"/>
        <pt x="423" y="798" on="0"/>
        <pt x="357" y="850" on="0"/>
        <pt x="316" y="882" on="1"/>
        <pt x="276" y="851" on="0"/>
        <pt x="210" y="800" on="0"/>
      </contour>
      <contour>
        <pt x="311" y="56" on="1"/>
        <pt x="353" y="56" on="0"/>
        <pt x="412" y="74" on="0"/>
        <pt x="444" y="94" on="0"/>
        <pt x="444" y="96" on="1"/>
        <pt x="444" y="283" on="1"/>
        <pt x="330" y="283" on="1"/>
        <pt x="325" y="283" on="0"/>
        <pt x="322" y="286" on="1"/>
        <pt x="319" y="289" on="0"/>
        <pt x="319" y="294" on="1"/>
        <pt x="319" y="356" on="1"/>
        <pt x="556" y="356" on="1"/>
        <pt x="567" y="356" on="0"/>
        <pt x="567" y="345" on="1"/>
        <pt x="567" y="283" on="1"/>
        <pt x="524" y="283" on="1"/>
        <pt x="524" y="68" on="1"/>
        <pt x="524" y="58" on="0"/>
        <pt x="477" y="16" on="0"/>
        <pt x="381" y="-20" on="0"/>
        <pt x="309" y="-20" on="1"/>
        <pt x="194" y="-20" on="0"/>
        <pt x="67" y="112" on="0"/>
        <pt x="67" y="222" on="1"/>
        <pt x="67" y="452" on="1"/>
        <pt x="67" y="586" on="0"/>
        <pt x="199" y="720" on="0"/>
        <pt x="325" y="720" on="1"/>
        <pt x="390" y="720" on="0"/>
        <pt x="491" y="683" on="0"/>
        <pt x="517" y="657" on="1"/>
        <pt x="523" y="651" on="0"/>
        <pt x="523" y="638" on="1"/>
        <pt x="523" y="497" on="1"/>
        <pt x="456" y="497" on="1"/>
        <pt x="445" y="497" on="0"/>
        <pt x="445" y="508" on="1"/>
        <pt x="445" y="616" on="1"/>
        <pt x="420" y="631" on="0"/>
        <pt x="361" y="644" on="0"/>
        <pt x="320" y="644" on="1"/>
        <pt x="232" y="644" on="0"/>
        <pt x="150" y="551" on="0"/>
        <pt x="150" y="453" on="1"/>
        <pt x="150" y="225" on="1"/>
        <pt x="150" y="142" on="0"/>
        <pt x="235" y="56" on="0"/>
      </contour>
    </TTGlyph>
    <TTGlyph name="Gcommaaccent" xMin="67" yMin="-239" xMax="567" yMax="720">
      <contour>
        <pt x="311" y="56" on="1"/>
        <pt x="353" y="56" on="0"/>
        <pt x="412" y="74" on="0"/>
        <pt x="444" y="94" on="0"/>
        <pt x="444" y="96" on="1"/>
        <pt x="444" y="283" on="1"/>
        <pt x="330" y="283" on="1"/>
        <pt x="325" y="283" on="0"/>
        <pt x="322" y="286" on="1"/>
        <pt x="319" y="289" on="0"/>
        <pt x="319" y="294" on="1"/>
        <pt x="319" y="356" on="1"/>
        <pt x="556" y="356" on="1"/>
        <pt x="567" y="356" on="0"/>
        <pt x="567" y="345" on="1"/>
        <pt x="567" y="283" on="1"/>
        <pt x="524" y="283" on="1"/>
        <pt x="524" y="68" on="1"/>
        <pt x="524" y="58" on="0"/>
        <pt x="477" y="16" on="0"/>
        <pt x="381" y="-20" on="0"/>
        <pt x="309" y="-20" on="1"/>
        <pt x="194" y="-20" on="0"/>
        <pt x="67" y="112" on="0"/>
        <pt x="67" y="222" on="1"/>
        <pt x="67" y="452" on="1"/>
        <pt x="67" y="586" on="0"/>
        <pt x="199" y="720" on="0"/>
        <pt x="325" y="720" on="1"/>
        <pt x="390" y="720" on="0"/>
        <pt x="491" y="683" on="0"/>
        <pt x="517" y="657" on="1"/>
        <pt x="523" y="651" on="0"/>
        <pt x="523" y="638" on="1"/>
        <pt x="523" y="497" on="1"/>
        <pt x="456" y="497" on="1"/>
        <pt x="445" y="497" on="0"/>
        <pt x="445" y="508" on="1"/>
        <pt x="445" y="616" on="1"/>
        <pt x="420" y="631" on="0"/>
        <pt x="361" y="644" on="0"/>
        <pt x="320" y="644" on="1"/>
        <pt x="232" y="644" on="0"/>
        <pt x="150" y="551" on="0"/>
        <pt x="150" y="453" on="1"/>
        <pt x="150" y="225" on="1"/>
        <pt x="150" y="142" on="0"/>
        <pt x="235" y="56" on="0"/>
      </contour>
      <contour>
        <pt x="306" y="-239" on="1"/>
        <pt x="248" y="-239" on="1"/>
        <pt x="258" y="-189" on="0"/>
        <pt x="273" y="-112" on="0"/>
        <pt x="282" y="-67" on="1"/>
        <pt x="367" y="-67" on="1"/>
        <pt x="373" y="-67" on="0"/>
        <pt x="379" y="-75" on="0"/>
        <pt x="377" y="-81" on="1"/>
        <pt x="366" y="-110" on="0"/>
        <pt x="349" y="-154" on="0"/>
        <pt x="333" y="-198" on="0"/>
        <pt x="321" y="-229" on="1"/>
        <pt x="320" y="-233" on="0"/>
        <pt x="313" y="-239" on="0"/>
      </contour>
    </TTGlyph>
    <TTGlyph name="Gdotaccent" xMin="67" yMin="-20" xMax="567" yMax="903">
      <contour>
        <pt x="372" y="801" on="1"/>
        <pt x="272" y="801" on="1"/>
        <pt x="261" y="801" on="0"/>
        <pt x="261" y="812" on="1"/>
        <pt x="261" y="903" on="1"/>
        <pt x="361" y="903" on="1"/>
        <pt x="372" y="903" on="0"/>
        <pt x="372" y="892" on="1"/>
      </contour>
      <contour>
        <pt x="311" y="56" on="1"/>
        <pt x="353" y="56" on="0"/>
        <pt x="412" y="74" on="0"/>
        <pt x="444" y="94" on="0"/>
        <pt x="444" y="96" on="1"/>
        <pt x="444" y="283" on="1"/>
        <pt x="330" y="283" on="1"/>
        <pt x="325" y="283" on="0"/>
        <pt x="322" y="286" on="1"/>
        <pt x="319" y="289" on="0"/>
        <pt x="319" y="294" on="1"/>
        <pt x="319" y="356" on="1"/>
        <pt x="556" y="356" on="1"/>
        <pt x="567" y="356" on="0"/>
        <pt x="567" y="345" on="1"/>
        <pt x="567" y="283" on="1"/>
        <pt x="524" y="283" on="1"/>
        <pt x="524" y="68" on="1"/>
        <pt x="524" y="58" on="0"/>
        <pt x="477" y="16" on="0"/>
        <pt x="381" y="-20" on="0"/>
        <pt x="309" y="-20" on="1"/>
        <pt x="194" y="-20" on="0"/>
        <pt x="67" y="112" on="0"/>
        <pt x="67" y="222" on="1"/>
        <pt x="67" y="452" on="1"/>
        <pt x="67" y="586" on="0"/>
        <pt x="199" y="720" on="0"/>
        <pt x="325" y="720" on="1"/>
        <pt x="390" y="720" on="0"/>
        <pt x="491" y="683" on="0"/>
        <pt x="517" y="657" on="1"/>
        <pt x="523" y="651" on="0"/>
        <pt x="523" y="638" on="1"/>
        <pt x="523" y="497" on="1"/>
        <pt x="456" y="497" on="1"/>
        <pt x="445" y="497" on="0"/>
        <pt x="445" y="508" on="1"/>
        <pt x="445" y="616" on="1"/>
        <pt x="420" y="631" on="0"/>
        <pt x="361" y="644" on="0"/>
        <pt x="320" y="644" on="1"/>
        <pt x="232" y="644" on="0"/>
        <pt x="150" y="551" on="0"/>
        <pt x="150" y="453" on="1"/>
        <pt x="150" y="225" on="1"/>
        <pt x="150" y="142" on="0"/>
        <pt x="235" y="56" on="0"/>
      </contour>
    </TTGlyph>
    <TTGlyph name="H" xMin="78" yMin="0" xMax="522" yMax="700">
      <contour>
        <pt x="522" y="0" on="1"/>
        <pt x="448" y="0" on="1"/>
        <pt x="443" y="0" on="0"/>
        <pt x="440" y="3" on="1"/>
        <pt x="437" y="6" on="0"/>
        <pt x="437" y="11" on="1"/>
        <pt x="437" y="316" on="1"/>
        <pt x="163" y="316" on="1"/>
        <pt x="163" y="0" on="1"/>
        <pt x="89" y="0" on="1"/>
        <pt x="78" y="0" on="0"/>
        <pt x="78" y="11" on="1"/>
        <pt x="78" y="700" on="1"/>
        <pt x="152" y="700" on="1"/>
        <pt x="157" y="700" on="0"/>
        <pt x="160" y="697" on="1"/>
        <pt x="163" y="694" on="0"/>
        <pt x="163" y="689" on="1"/>
        <pt x="163" y="393" on="1"/>
        <pt x="437" y="393" on="1"/>
        <pt x="437" y="700" on="1"/>
        <pt x="511" y="700" on="1"/>
        <pt x="522" y="700" on="0"/>
        <pt x="522" y="689" on="1"/>
      </contour>
    </TTGlyph>
    <TTGlyph name="Hbar" xMin="20" yMin="0" xMax="580" yMax="700">
      <contour>
        <pt x="522" y="0" on="1"/>
        <pt x="448" y="0" on="1"/>
        <pt x="443" y="0" on="0"/>
        <pt x="440" y="3" on="1"/>
        <pt x="437" y="6" on="0"/>
        <pt x="437" y="11" on="1"/>
        <pt x="437" y="316" on="1"/>
        <pt x="163" y="316" on="1"/>
        <pt x="163" y="0" on="1"/>
        <pt x="89" y="0" on="1"/>
        <pt x="78" y="0" on="0"/>
        <pt x="78" y="11" on="1"/>
        <pt x="78" y="519" on="1"/>
        <pt x="31" y="519" on="1"/>
        <pt x="20" y="519" on="0"/>
        <pt x="20" y="530" on="1"/>
        <pt x="20" y="586" on="1"/>
        <pt x="78" y="586" on="1"/>
        <pt x="78" y="700" on="1"/>
        <pt x="152" y="700" on="1"/>
        <pt x="157" y="700" on="0"/>
        <pt x="160" y="697" on="1"/>
        <pt x="163" y="694" on="0"/>
        <pt x="163" y="689" on="1"/>
        <pt x="163" y="586" on="1"/>
        <pt x="437" y="586" on="1"/>
        <pt x="437" y="700" on="1"/>
        <pt x="511" y="700" on="1"/>
        <pt x="522" y="700" on="0"/>
        <pt x="522" y="689" on="1"/>
        <pt x="522" y="586" on="1"/>
        <pt x="569" y="586" on="1"/>
        <pt x="580" y="586" on="0"/>
        <pt x="580" y="575" on="1"/>
        <pt x="580" y="519" on="1"/>
        <pt x="522" y="519" on="1"/>
      </contour>
      <contour>
        <pt x="163" y="393" on="1"/>
        <pt x="437" y="393" on="1"/>
        <pt x="437" y="519" on="1"/>
        <pt x="163" y="519" on="1"/>
      </contour>
    </TTGlyph>
    <TTGlyph name="Hcircumflex" xMin="78" yMin="0" xMax="526" yMax="945">
      <contour>
        <pt x="164" y="776" on="1"/>
        <pt x="95" y="776" on="1"/>
        <pt x="84" y="776" on="0"/>
        <pt x="84" y="783" on="1"/>
        <pt x="84" y="787" on="0"/>
        <pt x="91" y="796" on="0"/>
        <pt x="106" y="809" on="1"/>
        <pt x="118" y="820" on="0"/>
        <pt x="160" y="857" on="0"/>
        <pt x="205" y="899" on="0"/>
        <pt x="245" y="935" on="0"/>
        <pt x="256" y="945" on="1"/>
        <pt x="329" y="945" on="1"/>
        <pt x="337" y="945" on="0"/>
        <pt x="348" y="938" on="0"/>
        <pt x="364" y="925" on="1"/>
        <pt x="372" y="918" on="0"/>
        <pt x="409" y="883" on="0"/>
        <pt x="457" y="839" on="0"/>
        <pt x="506" y="794" on="0"/>
        <pt x="526" y="776" on="1"/>
        <pt x="451" y="776" on="1"/>
        <pt x="440" y="776" on="0"/>
        <pt x="429" y="780" on="0"/>
        <pt x="421" y="786" on="1"/>
        <pt x="406" y="798" on="0"/>
        <pt x="340" y="850" on="0"/>
        <pt x="299" y="882" on="1"/>
        <pt x="259" y="851" on="0"/>
        <pt x="193" y="800" on="0"/>
      </contour>
      <contour>
        <pt x="522" y="0" on="1"/>
        <pt x="448" y="0" on="1"/>
        <pt x="443" y="0" on="0"/>
        <pt x="440" y="3" on="1"/>
        <pt x="437" y="6" on="0"/>
        <pt x="437" y="11" on="1"/>
        <pt x="437" y="316" on="1"/>
        <pt x="163" y="316" on="1"/>
        <pt x="163" y="0" on="1"/>
        <pt x="89" y="0" on="1"/>
        <pt x="78" y="0" on="0"/>
        <pt x="78" y="11" on="1"/>
        <pt x="78" y="700" on="1"/>
        <pt x="152" y="700" on="1"/>
        <pt x="157" y="700" on="0"/>
        <pt x="160" y="697" on="1"/>
        <pt x="163" y="694" on="0"/>
        <pt x="163" y="689" on="1"/>
        <pt x="163" y="393" on="1"/>
        <pt x="437" y="393" on="1"/>
        <pt x="437" y="700" on="1"/>
        <pt x="511" y="700" on="1"/>
        <pt x="522" y="700" on="0"/>
        <pt x="522" y="689" on="1"/>
      </contour>
    </TTGlyph>
    <TTGlyph name="I" xMin="84" yMin="0" xMax="516" yMax="700">
      <contour>
        <pt x="84" y="77" on="1"/>
        <pt x="258" y="77" on="1"/>
        <pt x="258" y="623" on="1"/>
        <pt x="95" y="623" on="1"/>
        <pt x="90" y="623" on="0"/>
        <pt x="87" y="626" on="1"/>
        <pt x="84" y="629" on="0"/>
        <pt x="84" y="634" on="1"/>
        <pt x="84" y="700" on="1"/>
        <pt x="505" y="700" on="1"/>
        <pt x="516" y="700" on="0"/>
        <pt x="516" y="689" on="1"/>
        <pt x="516" y="623" on="1"/>
        <pt x="342" y="623" on="1"/>
        <pt x="342" y="77" on="1"/>
        <pt x="505" y="77" on="1"/>
        <pt x="516" y="77" on="0"/>
        <pt x="516" y="66" on="1"/>
        <pt x="516" y="0" on="1"/>
        <pt x="95" y="0" on="1"/>
        <pt x="90" y="0" on="0"/>
        <pt x="87" y="3" on="1"/>
        <pt x="84" y="6" on="0"/>
        <pt x="84" y="11" on="1"/>
      </contour>
    </TTGlyph>
    <TTGlyph name="IJ" xMin="89" yMin="-162" xMax="533" yMax="700">
      <contour>
        <pt x="89" y="700" on="1"/>
        <pt x="162" y="700" on="1"/>
        <pt x="167" y="700" on="0"/>
        <pt x="170" y="697" on="1"/>
        <pt x="173" y="694" on="0"/>
        <pt x="173" y="689" on="1"/>
        <pt x="173" y="0" on="1"/>
        <pt x="100" y="0" on="1"/>
        <pt x="89" y="0" on="0"/>
        <pt x="89" y="11" on="1"/>
      </contour>
      <contour>
        <pt x="355" y="-82" on="1"/>
        <pt x="403" y="-82" on="0"/>
        <pt x="447" y="-33" on="0"/>
        <pt x="447" y="19" on="1"/>
        <pt x="447" y="623" on="1"/>
        <pt x="287" y="623" on="1"/>
        <pt x="276" y="623" on="0"/>
        <pt x="276" y="634" on="1"/>
        <pt x="276" y="700" on="1"/>
        <pt x="522" y="700" on="1"/>
        <pt x="533" y="700" on="0"/>
        <pt x="533" y="689" on="1"/>
        <pt x="533" y="24" on="1"/>
        <pt x="533" y="-58" on="0"/>
        <pt x="453" y="-162" on="0"/>
        <pt x="367" y="-162" on="1"/>
        <pt x="360" y="-162" on="1"/>
        <pt x="326" y="-162" on="0"/>
        <pt x="265" y="-145" on="0"/>
        <pt x="253" y="-133" on="1"/>
        <pt x="250" y="-130" on="0"/>
        <pt x="250" y="-125" on="1"/>
        <pt x="250" y="-57" on="1"/>
        <pt x="264" y="-57" on="1"/>
        <pt x="287" y="-71" on="0"/>
        <pt x="330" y="-82" on="0"/>
      </contour>
    </TTGlyph>
    <TTGlyph name="IJacute" xMin="89" yMin="-162" xMax="624" yMax="948">
      <contour>
        <pt x="156" y="775" on="1"/>
        <pt x="90" y="775" on="1"/>
        <pt x="118" y="821" on="0"/>
        <pt x="169" y="901" on="0"/>
        <pt x="198" y="948" on="1"/>
        <pt x="292" y="948" on="1"/>
        <pt x="298" y="948" on="0"/>
        <pt x="304" y="938" on="0"/>
        <pt x="299" y="933" on="1"/>
        <pt x="275" y="904" on="0"/>
        <pt x="241" y="863" on="0"/>
        <pt x="203" y="819" on="0"/>
        <pt x="173" y="783" on="1"/>
        <pt x="167" y="775" on="0"/>
      </contour>
      <contour>
        <pt x="476" y="775" on="1"/>
        <pt x="410" y="775" on="1"/>
        <pt x="438" y="821" on="0"/>
        <pt x="489" y="901" on="0"/>
        <pt x="518" y="948" on="1"/>
        <pt x="612" y="948" on="1"/>
        <pt x="618" y="948" on="0"/>
        <pt x="624" y="938" on="0"/>
        <pt x="619" y="933" on="1"/>
        <pt x="595" y="904" on="0"/>
        <pt x="561" y="863" on="0"/>
        <pt x="523" y="819" on="0"/>
        <pt x="493" y="783" on="1"/>
        <pt x="487" y="775" on="0"/>
      </contour>
      <contour>
        <pt x="89" y="700" on="1"/>
        <pt x="162" y="700" on="1"/>
        <pt x="167" y="700" on="0"/>
        <pt x="170" y="697" on="1"/>
        <pt x="173" y="694" on="0"/>
        <pt x="173" y="689" on="1"/>
        <pt x="173" y="0" on="1"/>
        <pt x="100" y="0" on="1"/>
        <pt x="89" y="0" on="0"/>
        <pt x="89" y="11" on="1"/>
      </contour>
      <contour>
        <pt x="355" y="-82" on="1"/>
        <pt x="403" y="-82" on="0"/>
        <pt x="447" y="-33" on="0"/>
        <pt x="447" y="19" on="1"/>
        <pt x="447" y="623" on="1"/>
        <pt x="287" y="623" on="1"/>
        <pt x="276" y="623" on="0"/>
        <pt x="276" y="634" on="1"/>
        <pt x="276" y="700" on="1"/>
        <pt x="522" y="700" on="1"/>
        <pt x="533" y="700" on="0"/>
        <pt x="533" y="689" on="1"/>
        <pt x="533" y="24" on="1"/>
        <pt x="533" y="-58" on="0"/>
        <pt x="453" y="-162" on="0"/>
        <pt x="367" y="-162" on="1"/>
        <pt x="360" y="-162" on="1"/>
        <pt x="326" y="-162" on="0"/>
        <pt x="265" y="-145" on="0"/>
        <pt x="253" y="-133" on="1"/>
        <pt x="250" y="-130" on="0"/>
        <pt x="250" y="-125" on="1"/>
        <pt x="250" y="-57" on="1"/>
        <pt x="264" y="-57" on="1"/>
        <pt x="287" y="-71" on="0"/>
        <pt x="330" y="-82" on="0"/>
      </contour>
    </TTGlyph>
    <TTGlyph name="Iacute" xMin="84" yMin="0" xMax="516" yMax="947">
      <contour>
        <pt x="326" y="775" on="1"/>
        <pt x="260" y="775" on="1"/>
        <pt x="288" y="820" on="0"/>
        <pt x="339" y="901" on="0"/>
        <pt x="368" y="947" on="1"/>
        <pt x="462" y="947" on="1"/>
        <pt x="468" y="947" on="0"/>
        <pt x="474" y="938" on="0"/>
        <pt x="469" y="933" on="1"/>
        <pt x="445" y="904" on="0"/>
        <pt x="411" y="863" on="0"/>
        <pt x="373" y="818" on="0"/>
        <pt x="343" y="782" on="1"/>
        <pt x="341" y="780" on="0"/>
        <pt x="332" y="775" on="0"/>
      </contour>
      <contour>
        <pt x="84" y="77" on="1"/>
        <pt x="258" y="77" on="1"/>
        <pt x="258" y="623" on="1"/>
        <pt x="95" y="623" on="1"/>
        <pt x="90" y="623" on="0"/>
        <pt x="87" y="626" on="1"/>
        <pt x="84" y="629" on="0"/>
        <pt x="84" y="634" on="1"/>
        <pt x="84" y="700" on="1"/>
        <pt x="505" y="700" on="1"/>
        <pt x="516" y="700" on="0"/>
        <pt x="516" y="689" on="1"/>
        <pt x="516" y="623" on="1"/>
        <pt x="342" y="623" on="1"/>
        <pt x="342" y="77" on="1"/>
        <pt x="505" y="77" on="1"/>
        <pt x="516" y="77" on="0"/>
        <pt x="516" y="66" on="1"/>
        <pt x="516" y="0" on="1"/>
        <pt x="95" y="0" on="1"/>
        <pt x="90" y="0" on="0"/>
        <pt x="87" y="3" on="1"/>
        <pt x="84" y="6" on="0"/>
        <pt x="84" y="11" on="1"/>
      </contour>
    </TTGlyph>
    <TTGlyph name="Ibreve" xMin="84" yMin="0" xMax="516" yMax="939">
      <contour>
        <pt x="186" y="939" on="1"/>
        <pt x="206" y="899" on="0"/>
        <pt x="257" y="868" on="0"/>
        <pt x="300" y="868" on="1"/>
        <pt x="343" y="868" on="0"/>
        <pt x="394" y="899" on="0"/>
        <pt x="414" y="939" on="1"/>
        <pt x="466" y="939" on="1"/>
        <pt x="484" y="939" on="0"/>
        <pt x="478" y="918" on="1"/>
        <pt x="464" y="866" on="0"/>
        <pt x="375" y="797" on="0"/>
        <pt x="313" y="797" on="1"/>
        <pt x="287" y="797" on="1"/>
        <pt x="225" y="797" on="0"/>
        <pt x="136" y="866" on="0"/>
        <pt x="122" y="918" on="1"/>
        <pt x="116" y="939" on="0"/>
        <pt x="134" y="939" on="1"/>
      </contour>
      <contour>
        <pt x="84" y="77" on="1"/>
        <pt x="258" y="77" on="1"/>
        <pt x="258" y="623" on="1"/>
        <pt x="95" y="623" on="1"/>
        <pt x="90" y="623" on="0"/>
        <pt x="87" y="626" on="1"/>
        <pt x="84" y="629" on="0"/>
        <pt x="84" y="634" on="1"/>
        <pt x="84" y="700" on="1"/>
        <pt x="505" y="700" on="1"/>
        <pt x="516" y="700" on="0"/>
        <pt x="516" y="689" on="1"/>
        <pt x="516" y="623" on="1"/>
        <pt x="342" y="623" on="1"/>
        <pt x="342" y="77" on="1"/>
        <pt x="505" y="77" on="1"/>
        <pt x="516" y="77" on="0"/>
        <pt x="516" y="66" on="1"/>
        <pt x="516" y="0" on="1"/>
        <pt x="95" y="0" on="1"/>
        <pt x="90" y="0" on="0"/>
        <pt x="87" y="3" on="1"/>
        <pt x="84" y="6" on="0"/>
        <pt x="84" y="11" on="1"/>
      </contour>
    </TTGlyph>
    <TTGlyph name="Icircumflex" xMin="84" yMin="0" xMax="526" yMax="945">
      <contour>
        <pt x="164" y="776" on="1"/>
        <pt x="95" y="776" on="1"/>
        <pt x="84" y="776" on="0"/>
        <pt x="84" y="783" on="1"/>
        <pt x="84" y="787" on="0"/>
        <pt x="91" y="796" on="0"/>
        <pt x="106" y="809" on="1"/>
        <pt x="118" y="820" on="0"/>
        <pt x="160" y="857" on="0"/>
        <pt x="205" y="899" on="0"/>
        <pt x="245" y="935" on="0"/>
        <pt x="256" y="945" on="1"/>
        <pt x="329" y="945" on="1"/>
        <pt x="337" y="945" on="0"/>
        <pt x="348" y="938" on="0"/>
        <pt x="364" y="925" on="1"/>
        <pt x="372" y="918" on="0"/>
        <pt x="409" y="883" on="0"/>
        <pt x="457" y="839" on="0"/>
        <pt x="506" y="794" on="0"/>
        <pt x="526" y="776" on="1"/>
        <pt x="451" y="776" on="1"/>
        <pt x="440" y="776" on="0"/>
        <pt x="429" y="780" on="0"/>
        <pt x="421" y="786" on="1"/>
        <pt x="406" y="798" on="0"/>
        <pt x="340" y="850" on="0"/>
        <pt x="299" y="882" on="1"/>
        <pt x="259" y="851" on="0"/>
        <pt x="193" y="800" on="0"/>
      </contour>
      <contour>
        <pt x="84" y="77" on="1"/>
        <pt x="258" y="77" on="1"/>
        <pt x="258" y="623" on="1"/>
        <pt x="95" y="623" on="1"/>
        <pt x="90" y="623" on="0"/>
        <pt x="87" y="626" on="1"/>
        <pt x="84" y="629" on="0"/>
        <pt x="84" y="634" on="1"/>
        <pt x="84" y="700" on="1"/>
        <pt x="505" y="700" on="1"/>
        <pt x="516" y="700" on="0"/>
        <pt x="516" y="689" on="1"/>
        <pt x="516" y="623" on="1"/>
        <pt x="342" y="623" on="1"/>
        <pt x="342" y="77" on="1"/>
        <pt x="505" y="77" on="1"/>
        <pt x="516" y="77" on="0"/>
        <pt x="516" y="66" on="1"/>
        <pt x="516" y="0" on="1"/>
        <pt x="95" y="0" on="1"/>
        <pt x="90" y="0" on="0"/>
        <pt x="87" y="3" on="1"/>
        <pt x="84" y="6" on="0"/>
        <pt x="84" y="11" on="1"/>
      </contour>
    </TTGlyph>
    <TTGlyph name="Idieresis" xMin="84" yMin="0" xMax="516" yMax="903">
      <contour>
        <pt x="249" y="802" on="1"/>
        <pt x="156" y="802" on="1"/>
        <pt x="145" y="802" on="0"/>
        <pt x="145" y="813" on="1"/>
        <pt x="145" y="903" on="1"/>
        <pt x="238" y="903" on="1"/>
        <pt x="249" y="903" on="0"/>
        <pt x="249" y="892" on="1"/>
      </contour>
      <contour>
        <pt x="455" y="802" on="1"/>
        <pt x="362" y="802" on="1"/>
        <pt x="351" y="802" on="0"/>
        <pt x="351" y="813" on="1"/>
        <pt x="351" y="903" on="1"/>
        <pt x="444" y="903" on="1"/>
        <pt x="455" y="903" on="0"/>
        <pt x="455" y="892" on="1"/>
      </contour>
      <contour>
        <pt x="84" y="77" on="1"/>
        <pt x="258" y="77" on="1"/>
        <pt x="258" y="623" on="1"/>
        <pt x="95" y="623" on="1"/>
        <pt x="90" y="623" on="0"/>
        <pt x="87" y="626" on="1"/>
        <pt x="84" y="629" on="0"/>
        <pt x="84" y="634" on="1"/>
        <pt x="84" y="700" on="1"/>
        <pt x="505" y="700" on="1"/>
        <pt x="516" y="700" on="0"/>
        <pt x="516" y="689" on="1"/>
        <pt x="516" y="623" on="1"/>
        <pt x="342" y="623" on="1"/>
        <pt x="342" y="77" on="1"/>
        <pt x="505" y="77" on="1"/>
        <pt x="516" y="77" on="0"/>
        <pt x="516" y="66" on="1"/>
        <pt x="516" y="0" on="1"/>
        <pt x="95" y="0" on="1"/>
        <pt x="90" y="0" on="0"/>
        <pt x="87" y="3" on="1"/>
        <pt x="84" y="6" on="0"/>
        <pt x="84" y="11" on="1"/>
      </contour>
    </TTGlyph>
    <TTGlyph name="Idotaccent" xMin="84" yMin="0" xMax="516" yMax="903">
      <contour>
        <pt x="356" y="801" on="1"/>
        <pt x="255" y="801" on="1"/>
        <pt x="244" y="801" on="0"/>
        <pt x="244" y="812" on="1"/>
        <pt x="244" y="903" on="1"/>
        <pt x="345" y="903" on="1"/>
        <pt x="356" y="903" on="0"/>
        <pt x="356" y="892" on="1"/>
      </contour>
      <contour>
        <pt x="84" y="77" on="1"/>
        <pt x="258" y="77" on="1"/>
        <pt x="258" y="623" on="1"/>
        <pt x="95" y="623" on="1"/>
        <pt x="90" y="623" on="0"/>
        <pt x="87" y="626" on="1"/>
        <pt x="84" y="629" on="0"/>
        <pt x="84" y="634" on="1"/>
        <pt x="84" y="700" on="1"/>
        <pt x="505" y="700" on="1"/>
        <pt x="516" y="700" on="0"/>
        <pt x="516" y="689" on="1"/>
        <pt x="516" y="623" on="1"/>
        <pt x="342" y="623" on="1"/>
        <pt x="342" y="77" on="1"/>
        <pt x="505" y="77" on="1"/>
        <pt x="516" y="77" on="0"/>
        <pt x="516" y="66" on="1"/>
        <pt x="516" y="0" on="1"/>
        <pt x="95" y="0" on="1"/>
        <pt x="90" y="0" on="0"/>
        <pt x="87" y="3" on="1"/>
        <pt x="84" y="6" on="0"/>
        <pt x="84" y="11" on="1"/>
      </contour>
    </TTGlyph>
    <TTGlyph name="Idotbelow" xMin="84" yMin="-204" xMax="516" yMax="700">
      <contour>
        <pt x="84" y="77" on="1"/>
        <pt x="258" y="77" on="1"/>
        <pt x="258" y="623" on="1"/>
        <pt x="95" y="623" on="1"/>
        <pt x="90" y="623" on="0"/>
        <pt x="87" y="626" on="1"/>
        <pt x="84" y="629" on="0"/>
        <pt x="84" y="634" on="1"/>
        <pt x="84" y="700" on="1"/>
        <pt x="505" y="700" on="1"/>
        <pt x="516" y="700" on="0"/>
        <pt x="516" y="689" on="1"/>
        <pt x="516" y="623" on="1"/>
        <pt x="342" y="623" on="1"/>
        <pt x="342" y="77" on="1"/>
        <pt x="505" y="77" on="1"/>
        <pt x="516" y="77" on="0"/>
        <pt x="516" y="66" on="1"/>
        <pt x="516" y="0" on="1"/>
        <pt x="95" y="0" on="1"/>
        <pt x="90" y="0" on="0"/>
        <pt x="87" y="3" on="1"/>
        <pt x="84" y="6" on="0"/>
        <pt x="84" y="11" on="1"/>
      </contour>
      <contour>
        <pt x="356" y="-204" on="1"/>
        <pt x="255" y="-204" on="1"/>
        <pt x="244" y="-204" on="0"/>
        <pt x="244" y="-193" on="1"/>
        <pt x="244" y="-102" on="1"/>
        <pt x="345" y="-102" on="1"/>
        <pt x="356" y="-102" on="0"/>
        <pt x="356" y="-113" on="1"/>
      </contour>
    </TTGlyph>
    <TTGlyph name="Igrave" xMin="84" yMin="0" xMax="516" yMax="948">
      <contour>
        <pt x="340" y="776" on="1"/>
        <pt x="274" y="776" on="1"/>
        <pt x="262" y="776" on="0"/>
        <pt x="257" y="783" on="1"/>
        <pt x="227" y="819" on="0"/>
        <pt x="189" y="864" on="0"/>
        <pt x="156" y="904" on="0"/>
        <pt x="131" y="933" on="1"/>
        <pt x="127" y="938" on="0"/>
        <pt x="132" y="948" on="0"/>
        <pt x="138" y="948" on="1"/>
        <pt x="232" y="948" on="1"/>
        <pt x="261" y="902" on="0"/>
        <pt x="312" y="821" on="0"/>
      </contour>
      <contour>
        <pt x="84" y="77" on="1"/>
        <pt x="258" y="77" on="1"/>
        <pt x="258" y="623" on="1"/>
        <pt x="95" y="623" on="1"/>
        <pt x="90" y="623" on="0"/>
        <pt x="87" y="626" on="1"/>
        <pt x="84" y="629" on="0"/>
        <pt x="84" y="634" on="1"/>
        <pt x="84" y="700" on="1"/>
        <pt x="505" y="700" on="1"/>
        <pt x="516" y="700" on="0"/>
        <pt x="516" y="689" on="1"/>
        <pt x="516" y="623" on="1"/>
        <pt x="342" y="623" on="1"/>
        <pt x="342" y="77" on="1"/>
        <pt x="505" y="77" on="1"/>
        <pt x="516" y="77" on="0"/>
        <pt x="516" y="66" on="1"/>
        <pt x="516" y="0" on="1"/>
        <pt x="95" y="0" on="1"/>
        <pt x="90" y="0" on="0"/>
        <pt x="87" y="3" on="1"/>
        <pt x="84" y="6" on="0"/>
        <pt x="84" y="11" on="1"/>
      </contour>
    </TTGlyph>
    <TTGlyph name="Imacron" xMin="84" yMin="0" xMax="516" yMax="881">
      <contour>
        <pt x="124" y="881" on="1"/>
        <pt x="465" y="881" on="1"/>
        <pt x="476" y="881" on="0"/>
        <pt x="476" y="870" on="1"/>
        <pt x="476" y="808" on="1"/>
        <pt x="135" y="808" on="1"/>
        <pt x="124" y="808" on="0"/>
        <pt x="124" y="819" on="1"/>
      </contour>
      <contour>
        <pt x="84" y="77" on="1"/>
        <pt x="258" y="77" on="1"/>
        <pt x="258" y="623" on="1"/>
        <pt x="95" y="623" on="1"/>
        <pt x="90" y="623" on="0"/>
        <pt x="87" y="626" on="1"/>
        <pt x="84" y="629" on="0"/>
        <pt x="84" y="634" on="1"/>
        <pt x="84" y="700" on="1"/>
        <pt x="505" y="700" on="1"/>
        <pt x="516" y="700" on="0"/>
        <pt x="516" y="689" on="1"/>
        <pt x="516" y="623" on="1"/>
        <pt x="342" y="623" on="1"/>
        <pt x="342" y="77" on="1"/>
        <pt x="505" y="77" on="1"/>
        <pt x="516" y="77" on="0"/>
        <pt x="516" y="66" on="1"/>
        <pt x="516" y="0" on="1"/>
        <pt x="95" y="0" on="1"/>
        <pt x="90" y="0" on="0"/>
        <pt x="87" y="3" on="1"/>
        <pt x="84" y="6" on="0"/>
        <pt x="84" y="11" on="1"/>
      </contour>
    </TTGlyph>
    <TTGlyph name="Iogonek" xMin="84" yMin="-251" xMax="516" yMax="700">
      <contour>
        <pt x="84" y="77" on="1"/>
        <pt x="258" y="77" on="1"/>
        <pt x="258" y="623" on="1"/>
        <pt x="95" y="623" on="1"/>
        <pt x="90" y="623" on="0"/>
        <pt x="87" y="626" on="1"/>
        <pt x="84" y="629" on="0"/>
        <pt x="84" y="634" on="1"/>
        <pt x="84" y="700" on="1"/>
        <pt x="505" y="700" on="1"/>
        <pt x="516" y="700" on="0"/>
        <pt x="516" y="689" on="1"/>
        <pt x="516" y="623" on="1"/>
        <pt x="342" y="623" on="1"/>
        <pt x="342" y="77" on="1"/>
        <pt x="505" y="77" on="1"/>
        <pt x="516" y="77" on="0"/>
        <pt x="516" y="66" on="1"/>
        <pt x="516" y="0" on="1"/>
        <pt x="516" y="0" on="1"/>
        <pt x="516" y="-1" on="1"/>
        <pt x="516" y="-8" on="0"/>
        <pt x="504" y="-12" on="1"/>
        <pt x="432" y="-28" on="0"/>
        <pt x="377" y="-86" on="0"/>
        <pt x="377" y="-118" on="1"/>
        <pt x="377" y="-146" on="0"/>
        <pt x="410" y="-173" on="0"/>
        <pt x="435" y="-173" on="1"/>
        <pt x="471" y="-173" on="0"/>
        <pt x="497" y="-153" on="1"/>
        <pt x="512" y="-153" on="1"/>
        <pt x="512" y="-217" on="1"/>
        <pt x="512" y="-229" on="0"/>
        <pt x="466" y="-251" on="0"/>
        <pt x="431" y="-251" on="1"/>
        <pt x="370" y="-251" on="0"/>
        <pt x="301" y="-190" on="0"/>
        <pt x="301" y="-137" on="1"/>
        <pt x="301" y="-87" on="0"/>
        <pt x="353" y="-19" on="0"/>
        <pt x="390" y="0" on="1"/>
        <pt x="95" y="0" on="1"/>
        <pt x="90" y="0" on="0"/>
        <pt x="87" y="3" on="1"/>
        <pt x="84" y="6" on="0"/>
        <pt x="84" y="11" on="1"/>
      </contour>
    </TTGlyph>
    <TTGlyph name="Itilde" xMin="84" yMin="0" xMax="516" yMax="928">
      <contour>
        <pt x="393" y="866" on="1"/>
        <pt x="419" y="866" on="0"/>
        <pt x="454" y="888" on="0"/>
        <pt x="473" y="911" on="1"/>
        <pt x="486" y="911" on="1"/>
        <pt x="486" y="845" on="1"/>
        <pt x="486" y="840" on="0"/>
        <pt x="484" y="832" on="0"/>
        <pt x="479" y="827" on="1"/>
        <pt x="463" y="811" on="0"/>
        <pt x="423" y="790" on="0"/>
        <pt x="392" y="790" on="1"/>
        <pt x="364" y="790" on="0"/>
        <pt x="316" y="809" on="0"/>
        <pt x="273" y="833" on="0"/>
        <pt x="230" y="852" on="0"/>
        <pt x="207" y="852" on="1"/>
        <pt x="182" y="852" on="0"/>
        <pt x="147" y="831" on="0"/>
        <pt x="127" y="808" on="1"/>
        <pt x="114" y="808" on="1"/>
        <pt x="114" y="874" on="1"/>
        <pt x="114" y="878" on="0"/>
        <pt x="116" y="886" on="0"/>
        <pt x="121" y="891" on="1"/>
        <pt x="137" y="908" on="0"/>
        <pt x="177" y="928" on="0"/>
        <pt x="208" y="928" on="1"/>
        <pt x="236" y="928" on="0"/>
        <pt x="284" y="909" on="0"/>
        <pt x="327" y="885" on="0"/>
        <pt x="370" y="866" on="0"/>
      </contour>
      <contour>
        <pt x="84" y="77" on="1"/>
        <pt x="258" y="77" on="1"/>
        <pt x="258" y="623" on="1"/>
        <pt x="95" y="623" on="1"/>
        <pt x="90" y="623" on="0"/>
        <pt x="87" y="626" on="1"/>
        <pt x="84" y="629" on="0"/>
        <pt x="84" y="634" on="1"/>
        <pt x="84" y="700" on="1"/>
        <pt x="505" y="700" on="1"/>
        <pt x="516" y="700" on="0"/>
        <pt x="516" y="689" on="1"/>
        <pt x="516" y="623" on="1"/>
        <pt x="342" y="623" on="1"/>
        <pt x="342" y="77" on="1"/>
        <pt x="505" y="77" on="1"/>
        <pt x="516" y="77" on="0"/>
        <pt x="516" y="66" on="1"/>
        <pt x="516" y="0" on="1"/>
        <pt x="95" y="0" on="1"/>
        <pt x="90" y="0" on="0"/>
        <pt x="87" y="3" on="1"/>
        <pt x="84" y="6" on="0"/>
        <pt x="84" y="11" on="1"/>
      </contour>
    </TTGlyph>
    <TTGlyph name="J" xMin="101" yMin="-20" xMax="496" yMax="700">
      <contour>
        <pt x="256" y="58" on="1"/>
        <pt x="337" y="58" on="0"/>
        <pt x="410" y="142" on="0"/>
        <pt x="410" y="223" on="1"/>
        <pt x="410" y="623" on="1"/>
        <pt x="145" y="623" on="1"/>
        <pt x="140" y="623" on="0"/>
        <pt x="137" y="626" on="1"/>
        <pt x="134" y="629" on="0"/>
        <pt x="134" y="634" on="1"/>
        <pt x="134" y="700" on="1"/>
        <pt x="485" y="700" on="1"/>
        <pt x="496" y="700" on="0"/>
        <pt x="496" y="689" on="1"/>
        <pt x="496" y="228" on="1"/>
        <pt x="496" y="227" on="0"/>
        <pt x="496" y="227" on="1"/>
        <pt x="496" y="225" on="0"/>
        <pt x="496" y="225" on="1"/>
        <pt x="495" y="153" on="0"/>
        <pt x="445" y="43" on="0"/>
        <pt x="342" y="-20" on="0"/>
        <pt x="262" y="-20" on="1"/>
        <pt x="250" y="-20" on="1"/>
        <pt x="204" y="-20" on="0"/>
        <pt x="120" y="6" on="0"/>
        <pt x="104" y="22" on="1"/>
        <pt x="101" y="25" on="0"/>
        <pt x="101" y="30" on="1"/>
        <pt x="101" y="99" on="1"/>
        <pt x="115" y="99" on="1"/>
        <pt x="151" y="77" on="0"/>
        <pt x="218" y="58" on="0"/>
      </contour>
    </TTGlyph>
    <TTGlyph name="Jcircumflex" xMin="82" yMin="-20" xMax="524" yMax="945">
      <contour>
        <pt x="162" y="776" on="1"/>
        <pt x="94" y="776" on="1"/>
        <pt x="82" y="776" on="0"/>
        <pt x="82" y="783" on="1"/>
        <pt x="82" y="787" on="0"/>
        <pt x="90" y="796" on="0"/>
        <pt x="105" y="809" on="1"/>
        <pt x="117" y="820" on="0"/>
        <pt x="158" y="857" on="0"/>
        <pt x="204" y="899" on="0"/>
        <pt x="244" y="935" on="0"/>
        <pt x="255" y="945" on="1"/>
        <pt x="328" y="945" on="1"/>
        <pt x="336" y="945" on="0"/>
        <pt x="347" y="938" on="0"/>
        <pt x="362" y="925" on="1"/>
        <pt x="370" y="918" on="0"/>
        <pt x="407" y="883" on="0"/>
        <pt x="455" y="839" on="0"/>
        <pt x="505" y="794" on="0"/>
        <pt x="524" y="776" on="1"/>
        <pt x="450" y="776" on="1"/>
        <pt x="439" y="776" on="0"/>
        <pt x="427" y="780" on="0"/>
        <pt x="419" y="786" on="1"/>
        <pt x="404" y="798" on="0"/>
        <pt x="338" y="850" on="0"/>
        <pt x="297" y="882" on="1"/>
        <pt x="258" y="851" on="0"/>
        <pt x="192" y="800" on="0"/>
      </contour>
      <contour>
        <pt x="256" y="58" on="1"/>
        <pt x="337" y="58" on="0"/>
        <pt x="410" y="142" on="0"/>
        <pt x="410" y="223" on="1"/>
        <pt x="410" y="623" on="1"/>
        <pt x="145" y="623" on="1"/>
        <pt x="140" y="623" on="0"/>
        <pt x="137" y="626" on="1"/>
        <pt x="134" y="629" on="0"/>
        <pt x="134" y="634" on="1"/>
        <pt x="134" y="700" on="1"/>
        <pt x="485" y="700" on="1"/>
        <pt x="496" y="700" on="0"/>
        <pt x="496" y="689" on="1"/>
        <pt x="496" y="228" on="1"/>
        <pt x="496" y="227" on="0"/>
        <pt x="496" y="227" on="1"/>
        <pt x="496" y="225" on="0"/>
        <pt x="496" y="225" on="1"/>
        <pt x="495" y="153" on="0"/>
        <pt x="445" y="43" on="0"/>
        <pt x="342" y="-20" on="0"/>
        <pt x="262" y="-20" on="1"/>
        <pt x="250" y="-20" on="1"/>
        <pt x="204" y="-20" on="0"/>
        <pt x="120" y="6" on="0"/>
        <pt x="104" y="22" on="1"/>
        <pt x="101" y="25" on="0"/>
        <pt x="101" y="30" on="1"/>
        <pt x="101" y="99" on="1"/>
        <pt x="115" y="99" on="1"/>
        <pt x="151" y="77" on="0"/>
        <pt x="218" y="58" on="0"/>
      </contour>
    </TTGlyph>
    <TTGlyph name="K" xMin="84" yMin="-3" xMax="563" yMax="700">
      <contour>
        <pt x="84" y="700" on="1"/>
        <pt x="157" y="700" on="1"/>
        <pt x="162" y="700" on="0"/>
        <pt x="165" y="697" on="1"/>
        <pt x="168" y="694" on="0"/>
        <pt x="168" y="689" on="1"/>
        <pt x="168" y="306" on="1"/>
        <pt x="235" y="401" on="0"/>
        <pt x="382" y="605" on="0"/>
        <pt x="450" y="700" on="1"/>
        <pt x="534" y="700" on="1"/>
        <pt x="542" y="700" on="0"/>
        <pt x="542" y="693" on="1"/>
        <pt x="542" y="690" on="0"/>
        <pt x="538" y="681" on="0"/>
        <pt x="520" y="656" on="0"/>
        <pt x="499" y="628" on="1"/>
        <pt x="460" y="575" on="0"/>
        <pt x="361" y="444" on="0"/>
        <pt x="304" y="369" on="1"/>
        <pt x="476" y="111" on="1"/>
        <pt x="490" y="91" on="0"/>
        <pt x="513" y="78" on="0"/>
        <pt x="533" y="78" on="1"/>
        <pt x="563" y="78" on="1"/>
        <pt x="563" y="8" on="1"/>
        <pt x="563" y="-3" on="0"/>
        <pt x="552" y="-3" on="1"/>
        <pt x="522" y="-3" on="1"/>
        <pt x="480" y="-3" on="0"/>
        <pt x="435" y="24" on="0"/>
        <pt x="410" y="61" on="1"/>
        <pt x="251" y="298" on="1"/>
        <pt x="231" y="271" on="0"/>
        <pt x="189" y="216" on="0"/>
        <pt x="168" y="188" on="1"/>
        <pt x="168" y="0" on="1"/>
        <pt x="95" y="0" on="1"/>
        <pt x="84" y="0" on="0"/>
        <pt x="84" y="11" on="1"/>
      </contour>
    </TTGlyph>
    <TTGlyph name="Kcommaaccent" xMin="84" yMin="-239" xMax="563" yMax="700">
      <contour>
        <pt x="84" y="700" on="1"/>
        <pt x="157" y="700" on="1"/>
        <pt x="162" y="700" on="0"/>
        <pt x="165" y="697" on="1"/>
        <pt x="168" y="694" on="0"/>
        <pt x="168" y="689" on="1"/>
        <pt x="168" y="306" on="1"/>
        <pt x="235" y="401" on="0"/>
        <pt x="382" y="605" on="0"/>
        <pt x="450" y="700" on="1"/>
        <pt x="534" y="700" on="1"/>
        <pt x="542" y="700" on="0"/>
        <pt x="542" y="693" on="1"/>
        <pt x="542" y="690" on="0"/>
        <pt x="538" y="681" on="0"/>
        <pt x="520" y="656" on="0"/>
        <pt x="499" y="628" on="1"/>
        <pt x="460" y="575" on="0"/>
        <pt x="361" y="444" on="0"/>
        <pt x="304" y="369" on="1"/>
        <pt x="476" y="111" on="1"/>
        <pt x="490" y="91" on="0"/>
        <pt x="513" y="78" on="0"/>
        <pt x="533" y="78" on="1"/>
        <pt x="563" y="78" on="1"/>
        <pt x="563" y="8" on="1"/>
        <pt x="563" y="-3" on="0"/>
        <pt x="552" y="-3" on="1"/>
        <pt x="522" y="-3" on="1"/>
        <pt x="480" y="-3" on="0"/>
        <pt x="435" y="24" on="0"/>
        <pt x="410" y="61" on="1"/>
        <pt x="251" y="298" on="1"/>
        <pt x="231" y="271" on="0"/>
        <pt x="189" y="216" on="0"/>
        <pt x="168" y="188" on="1"/>
        <pt x="168" y="0" on="1"/>
        <pt x="95" y="0" on="1"/>
        <pt x="84" y="0" on="0"/>
        <pt x="84" y="11" on="1"/>
      </contour>
      <contour>
        <pt x="313" y="-239" on="1"/>
        <pt x="255" y="-239" on="1"/>
        <pt x="265" y="-189" on="0"/>
        <pt x="280" y="-112" on="0"/>
        <pt x="288" y="-67" on="1"/>
        <pt x="373" y="-67" on="1"/>
        <pt x="379" y="-67" on="0"/>
        <pt x="386" y="-75" on="0"/>
        <pt x="384" y="-81" on="1"/>
        <pt x="373" y="-110" on="0"/>
        <pt x="356" y="-154" on="0"/>
        <pt x="340" y="-198" on="0"/>
        <pt x="328" y="-229" on="1"/>
        <pt x="327" y="-233" on="0"/>
        <pt x="320" y="-239" on="0"/>
      </contour>
    </TTGlyph>
    <TTGlyph name="L" xMin="84" yMin="0" xMax="533" yMax="700">
      <contour>
        <pt x="95" y="0" on="1"/>
        <pt x="84" y="0" on="0"/>
        <pt x="84" y="11" on="1"/>
        <pt x="84" y="700" on="1"/>
        <pt x="157" y="700" on="1"/>
        <pt x="162" y="700" on="0"/>
        <pt x="165" y="697" on="1"/>
        <pt x="168" y="694" on="0"/>
        <pt x="168" y="689" on="1"/>
        <pt x="168" y="77" on="1"/>
        <pt x="522" y="77" on="1"/>
        <pt x="533" y="77" on="0"/>
        <pt x="533" y="66" on="1"/>
        <pt x="533" y="0" on="1"/>
      </contour>
    </TTGlyph>
    <TTGlyph name="Lacute" xMin="84" yMin="0" xMax="533" yMax="947">
      <contour>
        <pt x="152" y="775" on="1"/>
        <pt x="86" y="775" on="1"/>
        <pt x="114" y="820" on="0"/>
        <pt x="165" y="901" on="0"/>
        <pt x="194" y="947" on="1"/>
        <pt x="288" y="947" on="1"/>
        <pt x="294" y="947" on="0"/>
        <pt x="299" y="938" on="0"/>
        <pt x="295" y="933" on="1"/>
        <pt x="271" y="904" on="0"/>
        <pt x="237" y="863" on="0"/>
        <pt x="199" y="818" on="0"/>
        <pt x="169" y="782" on="1"/>
        <pt x="167" y="780" on="0"/>
        <pt x="158" y="775" on="0"/>
      </contour>
      <contour>
        <pt x="95" y="0" on="1"/>
        <pt x="84" y="0" on="0"/>
        <pt x="84" y="11" on="1"/>
        <pt x="84" y="700" on="1"/>
        <pt x="157" y="700" on="1"/>
        <pt x="162" y="700" on="0"/>
        <pt x="165" y="697" on="1"/>
        <pt x="168" y="694" on="0"/>
        <pt x="168" y="689" on="1"/>
        <pt x="168" y="77" on="1"/>
        <pt x="522" y="77" on="1"/>
        <pt x="533" y="77" on="0"/>
        <pt x="533" y="66" on="1"/>
        <pt x="533" y="0" on="1"/>
      </contour>
    </TTGlyph>
    <TTGlyph name="Lcaron" xMin="84" yMin="0" xMax="533" yMax="700">
      <contour>
        <pt x="95" y="0" on="1"/>
        <pt x="84" y="0" on="0"/>
        <pt x="84" y="11" on="1"/>
        <pt x="84" y="700" on="1"/>
        <pt x="157" y="700" on="1"/>
        <pt x="162" y="700" on="0"/>
        <pt x="165" y="697" on="1"/>
        <pt x="168" y="694" on="0"/>
        <pt x="168" y="689" on="1"/>
        <pt x="168" y="77" on="1"/>
        <pt x="522" y="77" on="1"/>
        <pt x="533" y="77" on="0"/>
        <pt x="533" y="66" on="1"/>
        <pt x="533" y="0" on="1"/>
      </contour>
      <contour>
        <pt x="403" y="475" on="1"/>
        <pt x="356" y="475" on="1"/>
        <pt x="361" y="522" on="0"/>
        <pt x="367" y="587" on="0"/>
        <pt x="374" y="653" on="0"/>
        <pt x="378" y="700" on="1"/>
        <pt x="465" y="700" on="1"/>
        <pt x="474" y="700" on="0"/>
        <pt x="480" y="690" on="0"/>
        <pt x="478" y="684" on="1"/>
        <pt x="466" y="645" on="0"/>
        <pt x="447" y="585" on="0"/>
        <pt x="430" y="526" on="0"/>
        <pt x="418" y="486" on="1"/>
        <pt x="414" y="475" on="0"/>
      </contour>
    </TTGlyph>
    <TTGlyph name="Lcommaaccent" xMin="84" yMin="-239" xMax="533" yMax="700">
      <contour>
        <pt x="95" y="0" on="1"/>
        <pt x="84" y="0" on="0"/>
        <pt x="84" y="11" on="1"/>
        <pt x="84" y="700" on="1"/>
        <pt x="157" y="700" on="1"/>
        <pt x="162" y="700" on="0"/>
        <pt x="165" y="697" on="1"/>
        <pt x="168" y="694" on="0"/>
        <pt x="168" y="689" on="1"/>
        <pt x="168" y="77" on="1"/>
        <pt x="522" y="77" on="1"/>
        <pt x="533" y="77" on="0"/>
        <pt x="533" y="66" on="1"/>
        <pt x="533" y="0" on="1"/>
      </contour>
      <contour>
        <pt x="298" y="-239" on="1"/>
        <pt x="240" y="-239" on="1"/>
        <pt x="250" y="-189" on="0"/>
        <pt x="265" y="-112" on="0"/>
        <pt x="273" y="-67" on="1"/>
        <pt x="358" y="-67" on="1"/>
        <pt x="364" y="-67" on="0"/>
        <pt x="371" y="-75" on="0"/>
        <pt x="369" y="-81" on="1"/>
        <pt x="358" y="-110" on="0"/>
        <pt x="341" y="-154" on="0"/>
        <pt x="325" y="-198" on="0"/>
        <pt x="313" y="-229" on="1"/>
        <pt x="312" y="-233" on="0"/>
        <pt x="305" y="-239" on="0"/>
      </contour>
    </TTGlyph>
    <TTGlyph name="Ldot" xMin="84" yMin="0" xMax="533" yMax="700">
      <contour>
        <pt x="95" y="0" on="1"/>
        <pt x="84" y="0" on="0"/>
        <pt x="84" y="11" on="1"/>
        <pt x="84" y="700" on="1"/>
        <pt x="157" y="700" on="1"/>
        <pt x="162" y="700" on="0"/>
        <pt x="165" y="697" on="1"/>
        <pt x="168" y="694" on="0"/>
        <pt x="168" y="689" on="1"/>
        <pt x="168" y="77" on="1"/>
        <pt x="522" y="77" on="1"/>
        <pt x="533" y="77" on="0"/>
        <pt x="533" y="66" on="1"/>
        <pt x="533" y="0" on="1"/>
      </contour>
      <contour>
        <pt x="447" y="346" on="1"/>
        <pt x="347" y="346" on="1"/>
        <pt x="336" y="346" on="0"/>
        <pt x="336" y="357" on="1"/>
        <pt x="336" y="454" on="1"/>
        <pt x="436" y="454" on="1"/>
        <pt x="447" y="454" on="0"/>
        <pt x="447" y="443" on="1"/>
      </contour>
    </TTGlyph>
    <TTGlyph name="Lslash" xMin="37" yMin="0" xMax="533" yMax="700">
      <contour>
        <pt x="392" y="500" on="1"/>
        <pt x="392" y="430" on="1"/>
        <pt x="392" y="419" on="0"/>
        <pt x="384" y="414" on="1"/>
        <pt x="190" y="313" on="1"/>
        <pt x="190" y="77" on="1"/>
        <pt x="522" y="77" on="1"/>
        <pt x="533" y="77" on="0"/>
        <pt x="533" y="66" on="1"/>
        <pt x="533" y="0" on="1"/>
        <pt x="116" y="0" on="1"/>
        <pt x="105" y="0" on="0"/>
        <pt x="105" y="11" on="1"/>
        <pt x="105" y="279" on="1"/>
        <pt x="37" y="243" on="1"/>
        <pt x="37" y="311" on="1"/>
        <pt x="37" y="324" on="0"/>
        <pt x="44" y="327" on="1"/>
        <pt x="105" y="358" on="1"/>
        <pt x="105" y="700" on="1"/>
        <pt x="179" y="700" on="1"/>
        <pt x="184" y="700" on="0"/>
        <pt x="187" y="697" on="1"/>
        <pt x="190" y="694" on="0"/>
        <pt x="190" y="689" on="1"/>
        <pt x="190" y="392" on="1"/>
      </contour>
    </TTGlyph>
    <TTGlyph name="M" xMin="66" yMin="0" xMax="534" yMax="700">
      <contour>
        <pt x="148" y="0" on="1"/>
        <pt x="77" y="0" on="1"/>
        <pt x="72" y="0" on="0"/>
        <pt x="69" y="3" on="1"/>
        <pt x="66" y="6" on="0"/>
        <pt x="66" y="11" on="1"/>
        <pt x="66" y="700" on="1"/>
        <pt x="144" y="700" on="1"/>
        <pt x="155" y="700" on="0"/>
        <pt x="159" y="688" on="1"/>
        <pt x="195" y="592" on="0"/>
        <pt x="265" y="402" on="0"/>
        <pt x="300" y="306" on="1"/>
        <pt x="337" y="404" on="0"/>
        <pt x="412" y="603" on="0"/>
        <pt x="448" y="700" on="1"/>
        <pt x="523" y="700" on="1"/>
        <pt x="528" y="700" on="0"/>
        <pt x="531" y="697" on="1"/>
        <pt x="534" y="694" on="0"/>
        <pt x="534" y="689" on="1"/>
        <pt x="534" y="0" on="1"/>
        <pt x="463" y="0" on="1"/>
        <pt x="458" y="0" on="0"/>
        <pt x="455" y="3" on="1"/>
        <pt x="452" y="6" on="0"/>
        <pt x="452" y="11" on="1"/>
        <pt x="452" y="162" on="1"/>
        <pt x="452" y="195" on="0"/>
        <pt x="454" y="288" on="0"/>
        <pt x="457" y="396" on="0"/>
        <pt x="460" y="505" on="0"/>
        <pt x="462" y="553" on="1"/>
        <pt x="424" y="455" on="0"/>
        <pt x="347" y="259" on="0"/>
        <pt x="308" y="161" on="1"/>
        <pt x="297" y="161" on="1"/>
        <pt x="289" y="161" on="0"/>
        <pt x="286" y="168" on="1"/>
        <pt x="248" y="266" on="0"/>
        <pt x="174" y="462" on="0"/>
        <pt x="137" y="560" on="1"/>
        <pt x="139" y="492" on="0"/>
        <pt x="144" y="345" on="0"/>
        <pt x="148" y="211" on="0"/>
        <pt x="148" y="162" on="1"/>
      </contour>
    </TTGlyph>
    <TTGlyph name="N" xMin="75" yMin="0" xMax="525" yMax="700">
      <contour>
        <pt x="156" y="0" on="1"/>
        <pt x="86" y="0" on="1"/>
        <pt x="75" y="0" on="0"/>
        <pt x="75" y="11" on="1"/>
        <pt x="75" y="700" on="1"/>
        <pt x="164" y="700" on="1"/>
        <pt x="176" y="700" on="0"/>
        <pt x="181" y="690" on="1"/>
        <pt x="246" y="555" on="0"/>
        <pt x="379" y="281" on="0"/>
        <pt x="445" y="144" on="1"/>
        <pt x="444" y="158" on="0"/>
        <pt x="444" y="161" on="1"/>
        <pt x="444" y="700" on="1"/>
        <pt x="514" y="700" on="1"/>
        <pt x="525" y="700" on="0"/>
        <pt x="525" y="689" on="1"/>
        <pt x="525" y="0" on="1"/>
        <pt x="444" y="0" on="1"/>
        <pt x="435" y="0" on="0"/>
        <pt x="431" y="7" on="1"/>
        <pt x="361" y="149" on="0"/>
        <pt x="222" y="435" on="0"/>
        <pt x="153" y="577" on="1"/>
        <pt x="154" y="557" on="0"/>
        <pt x="156" y="529" on="0"/>
        <pt x="156" y="525" on="1"/>
      </contour>
    </TTGlyph>
    <TTGlyph name="Nacute" xMin="75" yMin="0" xMax="525" yMax="947">
      <contour>
        <pt x="326" y="775" on="1"/>
        <pt x="260" y="775" on="1"/>
        <pt x="288" y="820" on="0"/>
        <pt x="339" y="901" on="0"/>
        <pt x="368" y="947" on="1"/>
        <pt x="462" y="947" on="1"/>
        <pt x="468" y="947" on="0"/>
        <pt x="474" y="937" on="0"/>
        <pt x="469" y="932" on="1"/>
        <pt x="445" y="903" on="0"/>
        <pt x="411" y="863" on="0"/>
        <pt x="373" y="818" on="0"/>
        <pt x="343" y="782" on="1"/>
        <pt x="338" y="775" on="0"/>
      </contour>
      <contour>
        <pt x="156" y="0" on="1"/>
        <pt x="86" y="0" on="1"/>
        <pt x="75" y="0" on="0"/>
        <pt x="75" y="11" on="1"/>
        <pt x="75" y="700" on="1"/>
        <pt x="164" y="700" on="1"/>
        <pt x="176" y="700" on="0"/>
        <pt x="181" y="690" on="1"/>
        <pt x="246" y="555" on="0"/>
        <pt x="379" y="281" on="0"/>
        <pt x="445" y="144" on="1"/>
        <pt x="444" y="158" on="0"/>
        <pt x="444" y="161" on="1"/>
        <pt x="444" y="700" on="1"/>
        <pt x="514" y="700" on="1"/>
        <pt x="525" y="700" on="0"/>
        <pt x="525" y="689" on="1"/>
        <pt x="525" y="0" on="1"/>
        <pt x="444" y="0" on="1"/>
        <pt x="435" y="0" on="0"/>
        <pt x="431" y="7" on="1"/>
        <pt x="361" y="149" on="0"/>
        <pt x="222" y="435" on="0"/>
        <pt x="153" y="577" on="1"/>
        <pt x="154" y="557" on="0"/>
        <pt x="156" y="529" on="0"/>
        <pt x="156" y="525" on="1"/>
      </contour>
    </TTGlyph>
    <TTGlyph name="Ncaron" xMin="74" yMin="0" xMax="525" yMax="945">
      <contour>
        <pt x="74" y="945" on="1"/>
        <pt x="148" y="945" on="1"/>
        <pt x="159" y="945" on="0"/>
        <pt x="171" y="941" on="0"/>
        <pt x="179" y="934" on="1"/>
        <pt x="194" y="922" on="0"/>
        <pt x="260" y="870" on="0"/>
        <pt x="301" y="838" on="1"/>
        <pt x="340" y="869" on="0"/>
        <pt x="406" y="921" on="0"/>
        <pt x="436" y="945" on="1"/>
        <pt x="504" y="945" on="1"/>
        <pt x="516" y="945" on="0"/>
        <pt x="516" y="937" on="1"/>
        <pt x="516" y="933" on="0"/>
        <pt x="508" y="925" on="0"/>
        <pt x="493" y="911" on="1"/>
        <pt x="481" y="900" on="0"/>
        <pt x="440" y="863" on="0"/>
        <pt x="394" y="821" on="0"/>
        <pt x="354" y="785" on="0"/>
        <pt x="343" y="775" on="1"/>
        <pt x="270" y="775" on="1"/>
        <pt x="263" y="775" on="0"/>
        <pt x="251" y="783" on="0"/>
        <pt x="236" y="796" on="1"/>
        <pt x="228" y="803" on="0"/>
        <pt x="191" y="837" on="0"/>
        <pt x="143" y="882" on="0"/>
        <pt x="94" y="927" on="0"/>
      </contour>
      <contour>
        <pt x="156" y="0" on="1"/>
        <pt x="86" y="0" on="1"/>
        <pt x="75" y="0" on="0"/>
        <pt x="75" y="11" on="1"/>
        <pt x="75" y="700" on="1"/>
        <pt x="164" y="700" on="1"/>
        <pt x="176" y="700" on="0"/>
        <pt x="181" y="690" on="1"/>
        <pt x="246" y="555" on="0"/>
        <pt x="379" y="281" on="0"/>
        <pt x="445" y="144" on="1"/>
        <pt x="444" y="158" on="0"/>
        <pt x="444" y="161" on="1"/>
        <pt x="444" y="700" on="1"/>
        <pt x="514" y="700" on="1"/>
        <pt x="525" y="700" on="0"/>
        <pt x="525" y="689" on="1"/>
        <pt x="525" y="0" on="1"/>
        <pt x="444" y="0" on="1"/>
        <pt x="435" y="0" on="0"/>
        <pt x="431" y="7" on="1"/>
        <pt x="361" y="149" on="0"/>
        <pt x="222" y="435" on="0"/>
        <pt x="153" y="577" on="1"/>
        <pt x="154" y="557" on="0"/>
        <pt x="156" y="529" on="0"/>
        <pt x="156" y="525" on="1"/>
      </contour>
    </TTGlyph>
    <TTGlyph name="Ncommaaccent" xMin="75" yMin="-239" xMax="525" yMax="700">
      <contour>
        <pt x="156" y="0" on="1"/>
        <pt x="86" y="0" on="1"/>
        <pt x="75" y="0" on="0"/>
        <pt x="75" y="11" on="1"/>
        <pt x="75" y="700" on="1"/>
        <pt x="164" y="700" on="1"/>
        <pt x="176" y="700" on="0"/>
        <pt x="181" y="690" on="1"/>
        <pt x="246" y="555" on="0"/>
        <pt x="379" y="281" on="0"/>
        <pt x="445" y="144" on="1"/>
        <pt x="444" y="158" on="0"/>
        <pt x="444" y="161" on="1"/>
        <pt x="444" y="700" on="1"/>
        <pt x="514" y="700" on="1"/>
        <pt x="525" y="700" on="0"/>
        <pt x="525" y="689" on="1"/>
        <pt x="525" y="0" on="1"/>
        <pt x="444" y="0" on="1"/>
        <pt x="435" y="0" on="0"/>
        <pt x="431" y="7" on="1"/>
        <pt x="361" y="149" on="0"/>
        <pt x="222" y="435" on="0"/>
        <pt x="153" y="577" on="1"/>
        <pt x="154" y="557" on="0"/>
        <pt x="156" y="529" on="0"/>
        <pt x="156" y="525" on="1"/>
      </contour>
      <contour>
        <pt x="289" y="-239" on="1"/>
        <pt x="232" y="-239" on="1"/>
        <pt x="241" y="-189" on="0"/>
        <pt x="256" y="-112" on="0"/>
        <pt x="265" y="-67" on="1"/>
        <pt x="350" y="-67" on="1"/>
        <pt x="356" y="-67" on="0"/>
        <pt x="362" y="-75" on="0"/>
        <pt x="360" y="-81" on="1"/>
        <pt x="349" y="-110" on="0"/>
        <pt x="332" y="-154" on="0"/>
        <pt x="316" y="-198" on="0"/>
        <pt x="304" y="-229" on="1"/>
        <pt x="303" y="-233" on="0"/>
        <pt x="296" y="-239" on="0"/>
      </contour>
    </TTGlyph>
    <TTGlyph name="Nhookleft" xMin="-51" yMin="-159" xMax="525" yMax="700">
      <contour>
        <pt x="13" y="-81" on="1"/>
        <pt x="44" y="-81" on="0"/>
        <pt x="75" y="-43" on="0"/>
        <pt x="75" y="5" on="1"/>
        <pt x="75" y="700" on="1"/>
        <pt x="164" y="700" on="1"/>
        <pt x="176" y="700" on="0"/>
        <pt x="181" y="690" on="1"/>
        <pt x="246" y="555" on="0"/>
        <pt x="379" y="281" on="0"/>
        <pt x="445" y="144" on="1"/>
        <pt x="444" y="158" on="0"/>
        <pt x="444" y="161" on="1"/>
        <pt x="444" y="700" on="1"/>
        <pt x="514" y="700" on="1"/>
        <pt x="525" y="700" on="0"/>
        <pt x="525" y="689" on="1"/>
        <pt x="525" y="0" on="1"/>
        <pt x="444" y="0" on="1"/>
        <pt x="435" y="0" on="0"/>
        <pt x="431" y="7" on="1"/>
        <pt x="361" y="149" on="0"/>
        <pt x="222" y="435" on="0"/>
        <pt x="153" y="577" on="1"/>
        <pt x="154" y="557" on="0"/>
        <pt x="156" y="529" on="0"/>
        <pt x="156" y="525" on="1"/>
        <pt x="156" y="-4" on="1"/>
        <pt x="156" y="-71" on="0"/>
        <pt x="91" y="-159" on="0"/>
        <pt x="25" y="-159" on="1"/>
        <pt x="18" y="-159" on="1"/>
        <pt x="-3" y="-159" on="0"/>
        <pt x="-40" y="-145" on="0"/>
        <pt x="-48" y="-137" on="1"/>
        <pt x="-51" y="-134" on="0"/>
        <pt x="-51" y="-129" on="1"/>
        <pt x="-51" y="-64" on="1"/>
        <pt x="-37" y="-64" on="1"/>
        <pt x="-23" y="-72" on="0"/>
        <pt x="-1" y="-81" on="0"/>
      </contour>
    </TTGlyph>
    <TTGlyph name="Ntilde" xMin="75" yMin="0" xMax="525" yMax="928">
      <contour>
        <pt x="393" y="866" on="1"/>
        <pt x="419" y="866" on="0"/>
        <pt x="454" y="888" on="0"/>
        <pt x="473" y="910" on="1"/>
        <pt x="486" y="910" on="1"/>
        <pt x="486" y="845" on="1"/>
        <pt x="486" y="840" on="0"/>
        <pt x="484" y="832" on="0"/>
        <pt x="479" y="827" on="1"/>
        <pt x="463" y="811" on="0"/>
        <pt x="423" y="790" on="0"/>
        <pt x="392" y="790" on="1"/>
        <pt x="364" y="790" on="0"/>
        <pt x="316" y="809" on="0"/>
        <pt x="273" y="833" on="0"/>
        <pt x="230" y="852" on="0"/>
        <pt x="207" y="852" on="1"/>
        <pt x="182" y="852" on="0"/>
        <pt x="147" y="831" on="0"/>
        <pt x="127" y="808" on="1"/>
        <pt x="114" y="808" on="1"/>
        <pt x="114" y="874" on="1"/>
        <pt x="114" y="878" on="0"/>
        <pt x="116" y="886" on="0"/>
        <pt x="121" y="891" on="1"/>
        <pt x="137" y="908" on="0"/>
        <pt x="177" y="928" on="0"/>
        <pt x="208" y="928" on="1"/>
        <pt x="236" y="928" on="0"/>
        <pt x="284" y="909" on="0"/>
        <pt x="327" y="885" on="0"/>
        <pt x="370" y="866" on="0"/>
      </contour>
      <contour>
        <pt x="156" y="0" on="1"/>
        <pt x="86" y="0" on="1"/>
        <pt x="75" y="0" on="0"/>
        <pt x="75" y="11" on="1"/>
        <pt x="75" y="700" on="1"/>
        <pt x="164" y="700" on="1"/>
        <pt x="176" y="700" on="0"/>
        <pt x="181" y="690" on="1"/>
        <pt x="246" y="555" on="0"/>
        <pt x="379" y="281" on="0"/>
        <pt x="445" y="144" on="1"/>
        <pt x="444" y="158" on="0"/>
        <pt x="444" y="161" on="1"/>
        <pt x="444" y="700" on="1"/>
        <pt x="514" y="700" on="1"/>
        <pt x="525" y="700" on="0"/>
        <pt x="525" y="689" on="1"/>
        <pt x="525" y="0" on="1"/>
        <pt x="444" y="0" on="1"/>
        <pt x="435" y="0" on="0"/>
        <pt x="431" y="7" on="1"/>
        <pt x="361" y="149" on="0"/>
        <pt x="222" y="435" on="0"/>
        <pt x="153" y="577" on="1"/>
        <pt x="154" y="557" on="0"/>
        <pt x="156" y="529" on="0"/>
        <pt x="156" y="525" on="1"/>
      </contour>
    </TTGlyph>
    <TTGlyph name="O" xMin="63" yMin="-20" xMax="536" yMax="720">
      <contour>
        <pt x="298" y="720" on="1"/>
        <pt x="299" y="720" on="0"/>
        <pt x="299" y="720" on="1"/>
        <pt x="410" y="720" on="0"/>
        <pt x="536" y="600" on="0"/>
        <pt x="536" y="481" on="1"/>
        <pt x="536" y="230" on="1"/>
        <pt x="536" y="147" on="0"/>
        <pt x="474" y="36" on="0"/>
        <pt x="367" y="-20" on="0"/>
        <pt x="301" y="-20" on="1"/>
        <pt x="191" y="-20" on="0"/>
        <pt x="63" y="101" on="0"/>
        <pt x="63" y="219" on="1"/>
        <pt x="63" y="470" on="1"/>
        <pt x="63" y="553" on="0"/>
        <pt x="126" y="664" on="0"/>
        <pt x="233" y="720" on="0"/>
      </contour>
      <contour>
        <pt x="145" y="223" on="1"/>
        <pt x="145" y="181" on="0"/>
        <pt x="169" y="105" on="0"/>
        <pt x="236" y="57" on="0"/>
        <pt x="300" y="57" on="1"/>
        <pt x="380" y="57" on="0"/>
        <pt x="455" y="152" on="0"/>
        <pt x="455" y="231" on="1"/>
        <pt x="455" y="477" on="1"/>
        <pt x="455" y="519" on="0"/>
        <pt x="430" y="595" on="0"/>
        <pt x="364" y="643" on="0"/>
        <pt x="300" y="643" on="1"/>
        <pt x="221" y="643" on="0"/>
        <pt x="145" y="549" on="0"/>
        <pt x="145" y="469" on="1"/>
      </contour>
    </TTGlyph>
    <TTGlyph name="OE" xMin="52" yMin="-7" xMax="566" yMax="707">
      <contour>
        <pt x="253" y="707" on="1"/>
        <pt x="284" y="707" on="0"/>
        <pt x="306" y="700" on="1"/>
        <pt x="555" y="700" on="1"/>
        <pt x="560" y="700" on="0"/>
        <pt x="563" y="697" on="1"/>
        <pt x="566" y="694" on="0"/>
        <pt x="566" y="689" on="1"/>
        <pt x="566" y="624" on="1"/>
        <pt x="371" y="624" on="1"/>
        <pt x="371" y="391" on="1"/>
        <pt x="528" y="391" on="1"/>
        <pt x="539" y="391" on="0"/>
        <pt x="539" y="380" on="1"/>
        <pt x="539" y="317" on="1"/>
        <pt x="371" y="317" on="1"/>
        <pt x="371" y="76" on="1"/>
        <pt x="555" y="76" on="1"/>
        <pt x="566" y="76" on="0"/>
        <pt x="566" y="65" on="1"/>
        <pt x="566" y="0" on="1"/>
        <pt x="313" y="0" on="1"/>
        <pt x="289" y="-7" on="0"/>
        <pt x="254" y="-7" on="1"/>
        <pt x="197" y="-7" on="0"/>
        <pt x="106" y="45" on="0"/>
        <pt x="52" y="149" on="0"/>
        <pt x="52" y="227" on="1"/>
        <pt x="52" y="473" on="1"/>
        <pt x="52" y="554" on="0"/>
        <pt x="110" y="657" on="0"/>
        <pt x="202" y="707" on="0"/>
      </contour>
      <contour>
        <pt x="130" y="225" on="1"/>
        <pt x="130" y="152" on="0"/>
        <pt x="198" y="68" on="0"/>
        <pt x="264" y="68" on="1"/>
        <pt x="281" y="68" on="0"/>
        <pt x="295" y="71" on="1"/>
        <pt x="295" y="629" on="1"/>
        <pt x="279" y="632" on="0"/>
        <pt x="260" y="632" on="1"/>
        <pt x="199" y="632" on="0"/>
        <pt x="130" y="547" on="0"/>
        <pt x="130" y="470" on="1"/>
      </contour>
    </TTGlyph>
    <TTGlyph name="Oacute" xMin="63" yMin="-20" xMax="536" yMax="947">
      <contour>
        <pt x="326" y="775" on="1"/>
        <pt x="260" y="775" on="1"/>
        <pt x="288" y="820" on="0"/>
        <pt x="339" y="901" on="0"/>
        <pt x="368" y="947" on="1"/>
        <pt x="462" y="947" on="1"/>
        <pt x="468" y="947" on="0"/>
        <pt x="474" y="938" on="0"/>
        <pt x="469" y="933" on="1"/>
        <pt x="445" y="904" on="0"/>
        <pt x="411" y="863" on="0"/>
        <pt x="373" y="818" on="0"/>
        <pt x="343" y="782" on="1"/>
        <pt x="341" y="780" on="0"/>
        <pt x="332" y="775" on="0"/>
      </contour>
      <contour>
        <pt x="298" y="720" on="1"/>
        <pt x="299" y="720" on="0"/>
        <pt x="299" y="720" on="1"/>
        <pt x="410" y="720" on="0"/>
        <pt x="536" y="600" on="0"/>
        <pt x="536" y="481" on="1"/>
        <pt x="536" y="230" on="1"/>
        <pt x="536" y="147" on="0"/>
        <pt x="474" y="36" on="0"/>
        <pt x="367" y="-20" on="0"/>
        <pt x="301" y="-20" on="1"/>
        <pt x="191" y="-20" on="0"/>
        <pt x="63" y="101" on="0"/>
        <pt x="63" y="219" on="1"/>
        <pt x="63" y="470" on="1"/>
        <pt x="63" y="553" on="0"/>
        <pt x="126" y="664" on="0"/>
        <pt x="233" y="720" on="0"/>
      </contour>
      <contour>
        <pt x="145" y="223" on="1"/>
        <pt x="145" y="181" on="0"/>
        <pt x="169" y="105" on="0"/>
        <pt x="236" y="57" on="0"/>
        <pt x="300" y="57" on="1"/>
        <pt x="380" y="57" on="0"/>
        <pt x="455" y="152" on="0"/>
        <pt x="455" y="231" on="1"/>
        <pt x="455" y="477" on="1"/>
        <pt x="455" y="519" on="0"/>
        <pt x="430" y="595" on="0"/>
        <pt x="364" y="643" on="0"/>
        <pt x="300" y="643" on="1"/>
        <pt x="221" y="643" on="0"/>
        <pt x="145" y="549" on="0"/>
        <pt x="145" y="469" on="1"/>
      </contour>
    </TTGlyph>
    <TTGlyph name="Obreve" xMin="63" yMin="-20" xMax="536" yMax="939">
      <contour>
        <pt x="186" y="939" on="1"/>
        <pt x="206" y="899" on="0"/>
        <pt x="257" y="868" on="0"/>
        <pt x="300" y="868" on="1"/>
        <pt x="343" y="868" on="0"/>
        <pt x="394" y="899" on="0"/>
        <pt x="414" y="939" on="1"/>
        <pt x="466" y="939" on="1"/>
        <pt x="484" y="939" on="0"/>
        <pt x="478" y="918" on="1"/>
        <pt x="464" y="866" on="0"/>
        <pt x="375" y="797" on="0"/>
        <pt x="313" y="797" on="1"/>
        <pt x="287" y="797" on="1"/>
        <pt x="225" y="797" on="0"/>
        <pt x="136" y="866" on="0"/>
        <pt x="122" y="918" on="1"/>
        <pt x="116" y="939" on="0"/>
        <pt x="134" y="939" on="1"/>
      </contour>
      <contour>
        <pt x="298" y="720" on="1"/>
        <pt x="299" y="720" on="0"/>
        <pt x="299" y="720" on="1"/>
        <pt x="410" y="720" on="0"/>
        <pt x="536" y="600" on="0"/>
        <pt x="536" y="481" on="1"/>
        <pt x="536" y="230" on="1"/>
        <pt x="536" y="147" on="0"/>
        <pt x="474" y="36" on="0"/>
        <pt x="367" y="-20" on="0"/>
        <pt x="301" y="-20" on="1"/>
        <pt x="191" y="-20" on="0"/>
        <pt x="63" y="101" on="0"/>
        <pt x="63" y="219" on="1"/>
        <pt x="63" y="470" on="1"/>
        <pt x="63" y="553" on="0"/>
        <pt x="126" y="664" on="0"/>
        <pt x="233" y="720" on="0"/>
      </contour>
      <contour>
        <pt x="145" y="223" on="1"/>
        <pt x="145" y="181" on="0"/>
        <pt x="169" y="105" on="0"/>
        <pt x="236" y="57" on="0"/>
        <pt x="300" y="57" on="1"/>
        <pt x="380" y="57" on="0"/>
        <pt x="455" y="152" on="0"/>
        <pt x="455" y="231" on="1"/>
        <pt x="455" y="477" on="1"/>
        <pt x="455" y="519" on="0"/>
        <pt x="430" y="595" on="0"/>
        <pt x="364" y="643" on="0"/>
        <pt x="300" y="643" on="1"/>
        <pt x="221" y="643" on="0"/>
        <pt x="145" y="549" on="0"/>
        <pt x="145" y="469" on="1"/>
      </contour>
    </TTGlyph>
    <TTGlyph name="Ocircumflex" xMin="63" yMin="-20" xMax="536" yMax="945">
      <contour>
        <pt x="164" y="776" on="1"/>
        <pt x="95" y="776" on="1"/>
        <pt x="84" y="776" on="0"/>
        <pt x="84" y="783" on="1"/>
        <pt x="84" y="787" on="0"/>
        <pt x="91" y="796" on="0"/>
        <pt x="106" y="809" on="1"/>
        <pt x="118" y="820" on="0"/>
        <pt x="160" y="857" on="0"/>
        <pt x="205" y="899" on="0"/>
        <pt x="245" y="935" on="0"/>
        <pt x="256" y="945" on="1"/>
        <pt x="329" y="945" on="1"/>
        <pt x="337" y="945" on="0"/>
        <pt x="348" y="938" on="0"/>
        <pt x="364" y="925" on="1"/>
        <pt x="372" y="918" on="0"/>
        <pt x="409" y="883" on="0"/>
        <pt x="457" y="839" on="0"/>
        <pt x="506" y="794" on="0"/>
        <pt x="526" y="776" on="1"/>
        <pt x="451" y="776" on="1"/>
        <pt x="440" y="776" on="0"/>
        <pt x="429" y="780" on="0"/>
        <pt x="421" y="786" on="1"/>
        <pt x="406" y="798" on="0"/>
        <pt x="340" y="850" on="0"/>
        <pt x="299" y="882" on="1"/>
        <pt x="259" y="851" on="0"/>
        <pt x="193" y="800" on="0"/>
      </contour>
      <contour>
        <pt x="298" y="720" on="1"/>
        <pt x="299" y="720" on="0"/>
        <pt x="299" y="720" on="1"/>
        <pt x="410" y="720" on="0"/>
        <pt x="536" y="600" on="0"/>
        <pt x="536" y="481" on="1"/>
        <pt x="536" y="230" on="1"/>
        <pt x="536" y="147" on="0"/>
        <pt x="474" y="36" on="0"/>
        <pt x="367" y="-20" on="0"/>
        <pt x="301" y="-20" on="1"/>
        <pt x="191" y="-20" on="0"/>
        <pt x="63" y="101" on="0"/>
        <pt x="63" y="219" on="1"/>
        <pt x="63" y="470" on="1"/>
        <pt x="63" y="553" on="0"/>
        <pt x="126" y="664" on="0"/>
        <pt x="233" y="720" on="0"/>
      </contour>
      <contour>
        <pt x="145" y="223" on="1"/>
        <pt x="145" y="181" on="0"/>
        <pt x="169" y="105" on="0"/>
        <pt x="236" y="57" on="0"/>
        <pt x="300" y="57" on="1"/>
        <pt x="380" y="57" on="0"/>
        <pt x="455" y="152" on="0"/>
        <pt x="455" y="231" on="1"/>
        <pt x="455" y="477" on="1"/>
        <pt x="455" y="519" on="0"/>
        <pt x="430" y="595" on="0"/>
        <pt x="364" y="643" on="0"/>
        <pt x="300" y="643" on="1"/>
        <pt x="221" y="643" on="0"/>
        <pt x="145" y="549" on="0"/>
        <pt x="145" y="469" on="1"/>
      </contour>
    </TTGlyph>
    <TTGlyph name="Odieresis" xMin="63" yMin="-20" xMax="536" yMax="903">
      <contour>
        <pt x="249" y="802" on="1"/>
        <pt x="156" y="802" on="1"/>
        <pt x="145" y="802" on="0"/>
        <pt x="145" y="813" on="1"/>
        <pt x="145" y="903" on="1"/>
        <pt x="238" y="903" on="1"/>
        <pt x="249" y="903" on="0"/>
        <pt x="249" y="892" on="1"/>
      </contour>
      <contour>
        <pt x="455" y="802" on="1"/>
        <pt x="362" y="802" on="1"/>
        <pt x="351" y="802" on="0"/>
        <pt x="351" y="813" on="1"/>
        <pt x="351" y="903" on="1"/>
        <pt x="444" y="903" on="1"/>
        <pt x="455" y="903" on="0"/>
        <pt x="455" y="892" on="1"/>
      </contour>
      <contour>
        <pt x="298" y="720" on="1"/>
        <pt x="299" y="720" on="0"/>
        <pt x="299" y="720" on="1"/>
        <pt x="410" y="720" on="0"/>
        <pt x="536" y="600" on="0"/>
        <pt x="536" y="481" on="1"/>
        <pt x="536" y="230" on="1"/>
        <pt x="536" y="147" on="0"/>
        <pt x="474" y="36" on="0"/>
        <pt x="367" y="-20" on="0"/>
        <pt x="301" y="-20" on="1"/>
        <pt x="191" y="-20" on="0"/>
        <pt x="63" y="101" on="0"/>
        <pt x="63" y="219" on="1"/>
        <pt x="63" y="470" on="1"/>
        <pt x="63" y="553" on="0"/>
        <pt x="126" y="664" on="0"/>
        <pt x="233" y="720" on="0"/>
      </contour>
      <contour>
        <pt x="145" y="223" on="1"/>
        <pt x="145" y="181" on="0"/>
        <pt x="169" y="105" on="0"/>
        <pt x="236" y="57" on="0"/>
        <pt x="300" y="57" on="1"/>
        <pt x="380" y="57" on="0"/>
        <pt x="455" y="152" on="0"/>
        <pt x="455" y="231" on="1"/>
        <pt x="455" y="477" on="1"/>
        <pt x="455" y="519" on="0"/>
        <pt x="430" y="595" on="0"/>
        <pt x="364" y="643" on="0"/>
        <pt x="300" y="643" on="1"/>
        <pt x="221" y="643" on="0"/>
        <pt x="145" y="549" on="0"/>
        <pt x="145" y="469" on="1"/>
      </contour>
    </TTGlyph>
    <TTGlyph name="Odotbelow" xMin="63" yMin="-204" xMax="536" yMax="720">
      <contour>
        <pt x="298" y="720" on="1"/>
        <pt x="299" y="720" on="0"/>
        <pt x="299" y="720" on="1"/>
        <pt x="410" y="720" on="0"/>
        <pt x="536" y="600" on="0"/>
        <pt x="536" y="481" on="1"/>
        <pt x="536" y="230" on="1"/>
        <pt x="536" y="147" on="0"/>
        <pt x="474" y="36" on="0"/>
        <pt x="367" y="-20" on="0"/>
        <pt x="301" y="-20" on="1"/>
        <pt x="191" y="-20" on="0"/>
        <pt x="63" y="101" on="0"/>
        <pt x="63" y="219" on="1"/>
        <pt x="63" y="470" on="1"/>
        <pt x="63" y="553" on="0"/>
        <pt x="126" y="664" on="0"/>
        <pt x="233" y="720" on="0"/>
      </contour>
      <contour>
        <pt x="145" y="223" on="1"/>
        <pt x="145" y="181" on="0"/>
        <pt x="169" y="105" on="0"/>
        <pt x="236" y="57" on="0"/>
        <pt x="300" y="57" on="1"/>
        <pt x="380" y="57" on="0"/>
        <pt x="455" y="152" on="0"/>
        <pt x="455" y="231" on="1"/>
        <pt x="455" y="477" on="1"/>
        <pt x="455" y="519" on="0"/>
        <pt x="430" y="595" on="0"/>
        <pt x="364" y="643" on="0"/>
        <pt x="300" y="643" on="1"/>
        <pt x="221" y="643" on="0"/>
        <pt x="145" y="549" on="0"/>
        <pt x="145" y="469" on="1"/>
      </contour>
      <contour>
        <pt x="356" y="-204" on="1"/>
        <pt x="255" y="-204" on="1"/>
        <pt x="244" y="-204" on="0"/>
        <pt x="244" y="-193" on="1"/>
        <pt x="244" y="-102" on="1"/>
        <pt x="345" y="-102" on="1"/>
        <pt x="356" y="-102" on="0"/>
        <pt x="356" y="-113" on="1"/>
      </contour>
    </TTGlyph>
    <TTGlyph name="Ograve" xMin="63" yMin="-20" xMax="536" yMax="948">
      <contour>
        <pt x="340" y="776" on="1"/>
        <pt x="274" y="776" on="1"/>
        <pt x="262" y="776" on="0"/>
        <pt x="257" y="783" on="1"/>
        <pt x="227" y="819" on="0"/>
        <pt x="189" y="864" on="0"/>
        <pt x="156" y="904" on="0"/>
        <pt x="131" y="933" on="1"/>
        <pt x="127" y="938" on="0"/>
        <pt x="132" y="948" on="0"/>
        <pt x="138" y="948" on="1"/>
        <pt x="232" y="948" on="1"/>
        <pt x="261" y="902" on="0"/>
        <pt x="312" y="821" on="0"/>
      </contour>
      <contour>
        <pt x="298" y="720" on="1"/>
        <pt x="299" y="720" on="0"/>
        <pt x="299" y="720" on="1"/>
        <pt x="410" y="720" on="0"/>
        <pt x="536" y="600" on="0"/>
        <pt x="536" y="481" on="1"/>
        <pt x="536" y="230" on="1"/>
        <pt x="536" y="147" on="0"/>
        <pt x="474" y="36" on="0"/>
        <pt x="367" y="-20" on="0"/>
        <pt x="301" y="-20" on="1"/>
        <pt x="191" y="-20" on="0"/>
        <pt x="63" y="101" on="0"/>
        <pt x="63" y="219" on="1"/>
        <pt x="63" y="470" on="1"/>
        <pt x="63" y="553" on="0"/>
        <pt x="126" y="664" on="0"/>
        <pt x="233" y="720" on="0"/>
      </contour>
      <contour>
        <pt x="145" y="223" on="1"/>
        <pt x="145" y="181" on="0"/>
        <pt x="169" y="105" on="0"/>
        <pt x="236" y="57" on="0"/>
        <pt x="300" y="57" on="1"/>
        <pt x="380" y="57" on="0"/>
        <pt x="455" y="152" on="0"/>
        <pt x="455" y="231" on="1"/>
        <pt x="455" y="477" on="1"/>
        <pt x="455" y="519" on="0"/>
        <pt x="430" y="595" on="0"/>
        <pt x="364" y="643" on="0"/>
        <pt x="300" y="643" on="1"/>
        <pt x="221" y="643" on="0"/>
        <pt x="145" y="549" on="0"/>
        <pt x="145" y="469" on="1"/>
      </contour>
    </TTGlyph>
    <TTGlyph name="Ohungarumlaut" xMin="63" yMin="-20" xMax="614" yMax="951">
      <contour>
        <pt x="231" y="778" on="1"/>
        <pt x="164" y="778" on="1"/>
        <pt x="193" y="823" on="0"/>
        <pt x="244" y="904" on="0"/>
        <pt x="273" y="951" on="1"/>
        <pt x="367" y="951" on="1"/>
        <pt x="373" y="951" on="0"/>
        <pt x="378" y="941" on="0"/>
        <pt x="374" y="936" on="1"/>
        <pt x="350" y="907" on="0"/>
        <pt x="316" y="866" on="0"/>
        <pt x="278" y="822" on="0"/>
        <pt x="248" y="786" on="1"/>
        <pt x="242" y="778" on="0"/>
      </contour>
      <contour>
        <pt x="467" y="778" on="1"/>
        <pt x="401" y="778" on="1"/>
        <pt x="429" y="823" on="0"/>
        <pt x="480" y="904" on="0"/>
        <pt x="509" y="951" on="1"/>
        <pt x="603" y="951" on="1"/>
        <pt x="609" y="951" on="0"/>
        <pt x="614" y="941" on="0"/>
        <pt x="610" y="936" on="1"/>
        <pt x="586" y="907" on="0"/>
        <pt x="552" y="866" on="0"/>
        <pt x="514" y="822" on="0"/>
        <pt x="484" y="786" on="1"/>
        <pt x="478" y="778" on="0"/>
      </contour>
      <contour>
        <pt x="298" y="720" on="1"/>
        <pt x="299" y="720" on="0"/>
        <pt x="299" y="720" on="1"/>
        <pt x="410" y="720" on="0"/>
        <pt x="536" y="600" on="0"/>
        <pt x="536" y="481" on="1"/>
        <pt x="536" y="230" on="1"/>
        <pt x="536" y="147" on="0"/>
        <pt x="474" y="36" on="0"/>
        <pt x="367" y="-20" on="0"/>
        <pt x="301" y="-20" on="1"/>
        <pt x="191" y="-20" on="0"/>
        <pt x="63" y="101" on="0"/>
        <pt x="63" y="219" on="1"/>
        <pt x="63" y="470" on="1"/>
        <pt x="63" y="553" on="0"/>
        <pt x="126" y="664" on="0"/>
        <pt x="233" y="720" on="0"/>
      </contour>
      <contour>
        <pt x="145" y="223" on="1"/>
        <pt x="145" y="181" on="0"/>
        <pt x="169" y="105" on="0"/>
        <pt x="236" y="57" on="0"/>
        <pt x="300" y="57" on="1"/>
        <pt x="380" y="57" on="0"/>
        <pt x="455" y="152" on="0"/>
        <pt x="455" y="231" on="1"/>
        <pt x="455" y="477" on="1"/>
        <pt x="455" y="519" on="0"/>
        <pt x="430" y="595" on="0"/>
        <pt x="364" y="643" on="0"/>
        <pt x="300" y="643" on="1"/>
        <pt x="221" y="643" on="0"/>
        <pt x="145" y="549" on="0"/>
        <pt x="145" y="469" on="1"/>
      </contour>
    </TTGlyph>
    <TTGlyph name="Omacron" xMin="63" yMin="-20" xMax="536" yMax="881">
      <contour>
        <pt x="124" y="881" on="1"/>
        <pt x="465" y="881" on="1"/>
        <pt x="476" y="881" on="0"/>
        <pt x="476" y="870" on="1"/>
        <pt x="476" y="808" on="1"/>
        <pt x="135" y="808" on="1"/>
        <pt x="124" y="808" on="0"/>
        <pt x="124" y="819" on="1"/>
      </contour>
      <contour>
        <pt x="298" y="720" on="1"/>
        <pt x="299" y="720" on="0"/>
        <pt x="299" y="720" on="1"/>
        <pt x="410" y="720" on="0"/>
        <pt x="536" y="600" on="0"/>
        <pt x="536" y="481" on="1"/>
        <pt x="536" y="230" on="1"/>
        <pt x="536" y="147" on="0"/>
        <pt x="474" y="36" on="0"/>
        <pt x="367" y="-20" on="0"/>
        <pt x="301" y="-20" on="1"/>
        <pt x="191" y="-20" on="0"/>
        <pt x="63" y="101" on="0"/>
        <pt x="63" y="219" on="1"/>
        <pt x="63" y="470" on="1"/>
        <pt x="63" y="553" on="0"/>
        <pt x="126" y="664" on="0"/>
        <pt x="233" y="720" on="0"/>
      </contour>
      <contour>
        <pt x="145" y="223" on="1"/>
        <pt x="145" y="181" on="0"/>
        <pt x="169" y="105" on="0"/>
        <pt x="236" y="57" on="0"/>
        <pt x="300" y="57" on="1"/>
        <pt x="380" y="57" on="0"/>
        <pt x="455" y="152" on="0"/>
        <pt x="455" y="231" on="1"/>
        <pt x="455" y="477" on="1"/>
        <pt x="455" y="519" on="0"/>
        <pt x="430" y="595" on="0"/>
        <pt x="364" y="643" on="0"/>
        <pt x="300" y="643" on="1"/>
        <pt x="221" y="643" on="0"/>
        <pt x="145" y="549" on="0"/>
        <pt x="145" y="469" on="1"/>
      </contour>
    </TTGlyph>
    <TTGlyph name="Oogonek" xMin="63" yMin="-241" xMax="536" yMax="720">
      <contour>
        <pt x="188" y="-127" on="1"/>
        <pt x="188" y="-91" on="0"/>
        <pt x="217" y="-35" on="0"/>
        <pt x="240" y="-15" on="1"/>
        <pt x="157" y="0" on="0"/>
        <pt x="63" y="118" on="0"/>
        <pt x="63" y="219" on="1"/>
        <pt x="63" y="470" on="1"/>
        <pt x="63" y="553" on="0"/>
        <pt x="126" y="664" on="0"/>
        <pt x="233" y="720" on="0"/>
        <pt x="298" y="720" on="1"/>
        <pt x="299" y="720" on="0"/>
        <pt x="299" y="720" on="1"/>
        <pt x="410" y="720" on="0"/>
        <pt x="536" y="600" on="0"/>
        <pt x="536" y="481" on="1"/>
        <pt x="536" y="230" on="1"/>
        <pt x="536" y="119" on="0"/>
        <pt x="426" y="-5" on="0"/>
        <pt x="343" y="-17" on="1"/>
        <pt x="299" y="-34" on="0"/>
        <pt x="265" y="-82" on="0"/>
        <pt x="265" y="-108" on="1"/>
        <pt x="265" y="-136" on="0"/>
        <pt x="298" y="-163" on="0"/>
        <pt x="323" y="-163" on="1"/>
        <pt x="359" y="-163" on="0"/>
        <pt x="385" y="-143" on="1"/>
        <pt x="400" y="-143" on="1"/>
        <pt x="400" y="-207" on="1"/>
        <pt x="400" y="-219" on="0"/>
        <pt x="354" y="-241" on="0"/>
        <pt x="318" y="-241" on="1"/>
        <pt x="257" y="-241" on="0"/>
        <pt x="188" y="-180" on="0"/>
      </contour>
      <contour>
        <pt x="145" y="223" on="1"/>
        <pt x="145" y="181" on="0"/>
        <pt x="169" y="105" on="0"/>
        <pt x="236" y="57" on="0"/>
        <pt x="300" y="57" on="1"/>
        <pt x="380" y="57" on="0"/>
        <pt x="455" y="152" on="0"/>
        <pt x="455" y="231" on="1"/>
        <pt x="455" y="477" on="1"/>
        <pt x="455" y="519" on="0"/>
        <pt x="430" y="595" on="0"/>
        <pt x="364" y="643" on="0"/>
        <pt x="300" y="643" on="1"/>
        <pt x="221" y="643" on="0"/>
        <pt x="145" y="549" on="0"/>
        <pt x="145" y="469" on="1"/>
      </contour>
    </TTGlyph>
    <TTGlyph name="Oslash" xMin="58" yMin="-76" xMax="538" yMax="776">
      <contour>
        <pt x="538" y="776" on="1"/>
        <pt x="523" y="745" on="0"/>
        <pt x="494" y="684" on="0"/>
        <pt x="479" y="653" on="1"/>
        <pt x="507" y="624" on="0"/>
        <pt x="536" y="537" on="0"/>
        <pt x="536" y="481" on="1"/>
        <pt x="536" y="230" on="1"/>
        <pt x="536" y="147" on="0"/>
        <pt x="474" y="36" on="0"/>
        <pt x="367" y="-20" on="0"/>
        <pt x="301" y="-20" on="1"/>
        <pt x="227" y="-20" on="0"/>
        <pt x="174" y="7" on="1"/>
        <pt x="166" y="-10" on="0"/>
        <pt x="150" y="-45" on="0"/>
        <pt x="141" y="-64" on="1"/>
        <pt x="137" y="-73" on="0"/>
        <pt x="131" y="-76" on="0"/>
        <pt x="124" y="-76" on="1"/>
        <pt x="58" y="-76" on="1"/>
        <pt x="74" y="-42" on="0"/>
        <pt x="108" y="27" on="0"/>
        <pt x="118" y="49" on="1"/>
        <pt x="91" y="79" on="0"/>
        <pt x="63" y="164" on="0"/>
        <pt x="63" y="219" on="1"/>
        <pt x="63" y="470" on="1"/>
        <pt x="63" y="553" on="0"/>
        <pt x="126" y="664" on="0"/>
        <pt x="233" y="720" on="0"/>
        <pt x="298" y="720" on="1"/>
        <pt x="370" y="720" on="0"/>
        <pt x="422" y="695" on="1"/>
        <pt x="440" y="733" on="0"/>
        <pt x="451" y="757" on="1"/>
        <pt x="457" y="770" on="0"/>
        <pt x="465" y="776" on="0"/>
        <pt x="475" y="776" on="1"/>
      </contour>
      <contour>
        <pt x="143" y="221" on="1"/>
        <pt x="143" y="197" on="0"/>
        <pt x="150" y="150" on="0"/>
        <pt x="159" y="129" on="1"/>
        <pt x="195" y="207" on="0"/>
        <pt x="278" y="384" on="0"/>
        <pt x="358" y="556" on="0"/>
        <pt x="391" y="627" on="1"/>
        <pt x="374" y="636" on="0"/>
        <pt x="329" y="647" on="0"/>
        <pt x="300" y="647" on="1"/>
        <pt x="220" y="647" on="0"/>
        <pt x="143" y="551" on="0"/>
        <pt x="143" y="471" on="1"/>
      </contour>
      <contour>
        <pt x="457" y="479" on="1"/>
        <pt x="457" y="504" on="0"/>
        <pt x="449" y="551" on="0"/>
        <pt x="440" y="572" on="1"/>
        <pt x="397" y="483" on="0"/>
        <pt x="319" y="320" on="0"/>
        <pt x="255" y="188" on="0"/>
        <pt x="212" y="96" on="0"/>
        <pt x="203" y="77" on="1"/>
        <pt x="220" y="66" on="0"/>
        <pt x="268" y="53" on="0"/>
        <pt x="300" y="53" on="1"/>
        <pt x="380" y="53" on="0"/>
        <pt x="457" y="149" on="0"/>
        <pt x="457" y="229" on="1"/>
      </contour>
    </TTGlyph>
    <TTGlyph name="Oslashacute" xMin="58" yMin="-76" xMax="538" yMax="947">
      <contour>
        <pt x="326" y="775" on="1"/>
        <pt x="259" y="775" on="1"/>
        <pt x="288" y="820" on="0"/>
        <pt x="339" y="901" on="0"/>
        <pt x="368" y="947" on="1"/>
        <pt x="462" y="947" on="1"/>
        <pt x="468" y="947" on="0"/>
        <pt x="473" y="938" on="0"/>
        <pt x="469" y="933" on="1"/>
        <pt x="445" y="904" on="0"/>
        <pt x="411" y="863" on="0"/>
        <pt x="373" y="818" on="0"/>
        <pt x="343" y="782" on="1"/>
        <pt x="341" y="780" on="0"/>
        <pt x="332" y="775" on="0"/>
      </contour>
      <contour>
        <pt x="538" y="776" on="1"/>
        <pt x="523" y="745" on="0"/>
        <pt x="494" y="684" on="0"/>
        <pt x="479" y="653" on="1"/>
        <pt x="507" y="624" on="0"/>
        <pt x="536" y="537" on="0"/>
        <pt x="536" y="481" on="1"/>
        <pt x="536" y="230" on="1"/>
        <pt x="536" y="147" on="0"/>
        <pt x="474" y="36" on="0"/>
        <pt x="367" y="-20" on="0"/>
        <pt x="301" y="-20" on="1"/>
        <pt x="227" y="-20" on="0"/>
        <pt x="174" y="7" on="1"/>
        <pt x="166" y="-10" on="0"/>
        <pt x="150" y="-45" on="0"/>
        <pt x="141" y="-64" on="1"/>
        <pt x="137" y="-73" on="0"/>
        <pt x="131" y="-76" on="0"/>
        <pt x="124" y="-76" on="1"/>
        <pt x="58" y="-76" on="1"/>
        <pt x="74" y="-42" on="0"/>
        <pt x="108" y="27" on="0"/>
        <pt x="118" y="49" on="1"/>
        <pt x="91" y="79" on="0"/>
        <pt x="63" y="164" on="0"/>
        <pt x="63" y="219" on="1"/>
        <pt x="63" y="470" on="1"/>
        <pt x="63" y="553" on="0"/>
        <pt x="126" y="664" on="0"/>
        <pt x="233" y="720" on="0"/>
        <pt x="298" y="720" on="1"/>
        <pt x="370" y="720" on="0"/>
        <pt x="422" y="695" on="1"/>
        <pt x="440" y="733" on="0"/>
        <pt x="451" y="757" on="1"/>
        <pt x="457" y="770" on="0"/>
        <pt x="465" y="776" on="0"/>
        <pt x="475" y="776" on="1"/>
      </contour>
      <contour>
        <pt x="143" y="221" on="1"/>
        <pt x="143" y="197" on="0"/>
        <pt x="150" y="150" on="0"/>
        <pt x="159" y="129" on="1"/>
        <pt x="195" y="207" on="0"/>
        <pt x="278" y="384" on="0"/>
        <pt x="358" y="556" on="0"/>
        <pt x="391" y="627" on="1"/>
        <pt x="374" y="636" on="0"/>
        <pt x="329" y="647" on="0"/>
        <pt x="300" y="647" on="1"/>
        <pt x="220" y="647" on="0"/>
        <pt x="143" y="551" on="0"/>
        <pt x="143" y="471" on="1"/>
      </contour>
      <contour>
        <pt x="457" y="479" on="1"/>
        <pt x="457" y="504" on="0"/>
        <pt x="449" y="551" on="0"/>
        <pt x="440" y="572" on="1"/>
        <pt x="397" y="483" on="0"/>
        <pt x="319" y="320" on="0"/>
        <pt x="255" y="188" on="0"/>
        <pt x="212" y="96" on="0"/>
        <pt x="203" y="77" on="1"/>
        <pt x="220" y="66" on="0"/>
        <pt x="268" y="53" on="0"/>
        <pt x="300" y="53" on="1"/>
        <pt x="380" y="53" on="0"/>
        <pt x="457" y="149" on="0"/>
        <pt x="457" y="229" on="1"/>
      </contour>
    </TTGlyph>
    <TTGlyph name="Otilde" xMin="63" yMin="-20" xMax="536" yMax="928">
      <contour>
        <pt x="393" y="866" on="1"/>
        <pt x="419" y="866" on="0"/>
        <pt x="454" y="888" on="0"/>
        <pt x="473" y="911" on="1"/>
        <pt x="486" y="911" on="1"/>
        <pt x="486" y="845" on="1"/>
        <pt x="486" y="840" on="0"/>
        <pt x="484" y="832" on="0"/>
        <pt x="479" y="827" on="1"/>
        <pt x="463" y="811" on="0"/>
        <pt x="423" y="790" on="0"/>
        <pt x="392" y="790" on="1"/>
        <pt x="364" y="790" on="0"/>
        <pt x="316" y="809" on="0"/>
        <pt x="273" y="833" on="0"/>
        <pt x="230" y="852" on="0"/>
        <pt x="207" y="852" on="1"/>
        <pt x="182" y="852" on="0"/>
        <pt x="147" y="831" on="0"/>
        <pt x="127" y="808" on="1"/>
        <pt x="114" y="808" on="1"/>
        <pt x="114" y="874" on="1"/>
        <pt x="114" y="878" on="0"/>
        <pt x="116" y="886" on="0"/>
        <pt x="121" y="891" on="1"/>
        <pt x="137" y="908" on="0"/>
        <pt x="177" y="928" on="0"/>
        <pt x="208" y="928" on="1"/>
        <pt x="236" y="928" on="0"/>
        <pt x="284" y="909" on="0"/>
        <pt x="327" y="885" on="0"/>
        <pt x="370" y="866" on="0"/>
      </contour>
      <contour>
        <pt x="298" y="720" on="1"/>
        <pt x="299" y="720" on="0"/>
        <pt x="299" y="720" on="1"/>
        <pt x="410" y="720" on="0"/>
        <pt x="536" y="600" on="0"/>
        <pt x="536" y="481" on="1"/>
        <pt x="536" y="230" on="1"/>
        <pt x="536" y="147" on="0"/>
        <pt x="474" y="36" on="0"/>
        <pt x="367" y="-20" on="0"/>
        <pt x="301" y="-20" on="1"/>
        <pt x="191" y="-20" on="0"/>
        <pt x="63" y="101" on="0"/>
        <pt x="63" y="219" on="1"/>
        <pt x="63" y="470" on="1"/>
        <pt x="63" y="553" on="0"/>
        <pt x="126" y="664" on="0"/>
        <pt x="233" y="720" on="0"/>
      </contour>
      <contour>
        <pt x="145" y="223" on="1"/>
        <pt x="145" y="181" on="0"/>
        <pt x="169" y="105" on="0"/>
        <pt x="236" y="57" on="0"/>
        <pt x="300" y="57" on="1"/>
        <pt x="380" y="57" on="0"/>
        <pt x="455" y="152" on="0"/>
        <pt x="455" y="231" on="1"/>
        <pt x="455" y="477" on="1"/>
        <pt x="455" y="519" on="0"/>
        <pt x="430" y="595" on="0"/>
        <pt x="364" y="643" on="0"/>
        <pt x="300" y="643" on="1"/>
        <pt x="221" y="643" on="0"/>
        <pt x="145" y="549" on="0"/>
        <pt x="145" y="469" on="1"/>
      </contour>
    </TTGlyph>
    <TTGlyph name="P" xMin="33" yMin="0" xMax="538" yMax="700">
      <contour>
        <pt x="175" y="0" on="1"/>
        <pt x="103" y="0" on="1"/>
        <pt x="98" y="0" on="0"/>
        <pt x="95" y="3" on="1"/>
        <pt x="92" y="6" on="0"/>
        <pt x="92" y="11" on="1"/>
        <pt x="92" y="623" on="1"/>
        <pt x="44" y="623" on="1"/>
        <pt x="39" y="623" on="0"/>
        <pt x="36" y="626" on="1"/>
        <pt x="33" y="629" on="0"/>
        <pt x="33" y="634" on="1"/>
        <pt x="33" y="700" on="1"/>
        <pt x="309" y="700" on="1"/>
        <pt x="375" y="700" on="0"/>
        <pt x="479" y="665" on="0"/>
        <pt x="538" y="581" on="0"/>
        <pt x="538" y="508" on="1"/>
        <pt x="538" y="440" on="1"/>
        <pt x="538" y="350" on="0"/>
        <pt x="424" y="248" on="0"/>
        <pt x="323" y="248" on="1"/>
        <pt x="175" y="248" on="1"/>
      </contour>
      <contour>
        <pt x="310" y="623" on="1"/>
        <pt x="175" y="623" on="1"/>
        <pt x="175" y="325" on="1"/>
        <pt x="318" y="325" on="1"/>
        <pt x="384" y="325" on="0"/>
        <pt x="452" y="387" on="0"/>
        <pt x="452" y="443" on="1"/>
        <pt x="452" y="511" on="1"/>
        <pt x="452" y="570" on="0"/>
        <pt x="385" y="623" on="0"/>
      </contour>
    </TTGlyph>
    <TTGlyph name="Q" xMin="63" yMin="-153" xMax="569" yMax="720">
      <contour>
        <pt x="298" y="720" on="1"/>
        <pt x="299" y="720" on="0"/>
        <pt x="299" y="720" on="1"/>
        <pt x="410" y="720" on="0"/>
        <pt x="536" y="600" on="0"/>
        <pt x="536" y="481" on="1"/>
        <pt x="536" y="230" on="1"/>
        <pt x="536" y="157" on="0"/>
        <pt x="486" y="53" on="0"/>
        <pt x="444" y="22" on="1"/>
        <pt x="487" y="-40" on="1"/>
        <pt x="501" y="-58" on="0"/>
        <pt x="523" y="-69" on="0"/>
        <pt x="542" y="-69" on="1"/>
        <pt x="569" y="-69" on="1"/>
        <pt x="569" y="-142" on="1"/>
        <pt x="569" y="-153" on="0"/>
        <pt x="558" y="-153" on="1"/>
        <pt x="531" y="-153" on="1"/>
        <pt x="493" y="-153" on="0"/>
        <pt x="449" y="-125" on="0"/>
        <pt x="427" y="-94" on="1"/>
        <pt x="370" y="-12" on="1"/>
        <pt x="337" y="-20" on="0"/>
        <pt x="301" y="-20" on="1"/>
        <pt x="191" y="-20" on="0"/>
        <pt x="63" y="101" on="0"/>
        <pt x="63" y="219" on="1"/>
        <pt x="63" y="470" on="1"/>
        <pt x="63" y="553" on="0"/>
        <pt x="126" y="664" on="0"/>
        <pt x="233" y="720" on="0"/>
      </contour>
      <contour>
        <pt x="145" y="223" on="1"/>
        <pt x="145" y="182" on="0"/>
        <pt x="169" y="105" on="0"/>
        <pt x="236" y="57" on="0"/>
        <pt x="300" y="57" on="1"/>
        <pt x="380" y="57" on="0"/>
        <pt x="455" y="152" on="0"/>
        <pt x="455" y="231" on="1"/>
        <pt x="455" y="477" on="1"/>
        <pt x="455" y="519" on="0"/>
        <pt x="430" y="595" on="0"/>
        <pt x="364" y="643" on="0"/>
        <pt x="300" y="643" on="1"/>
        <pt x="221" y="643" on="0"/>
        <pt x="145" y="549" on="0"/>
        <pt x="145" y="469" on="1"/>
      </contour>
    </TTGlyph>
    <TTGlyph name="R" xMin="33" yMin="-3" xMax="560" yMax="700">
      <contour>
        <pt x="175" y="0" on="1"/>
        <pt x="103" y="0" on="1"/>
        <pt x="98" y="0" on="0"/>
        <pt x="95" y="3" on="1"/>
        <pt x="92" y="6" on="0"/>
        <pt x="92" y="11" on="1"/>
        <pt x="92" y="623" on="1"/>
        <pt x="44" y="623" on="1"/>
        <pt x="39" y="623" on="0"/>
        <pt x="36" y="626" on="1"/>
        <pt x="33" y="629" on="0"/>
        <pt x="33" y="634" on="1"/>
        <pt x="33" y="700" on="1"/>
        <pt x="309" y="700" on="1"/>
        <pt x="371" y="700" on="0"/>
        <pt x="466" y="665" on="0"/>
        <pt x="521" y="583" on="0"/>
        <pt x="521" y="510" on="1"/>
        <pt x="521" y="462" on="1"/>
        <pt x="521" y="390" on="0"/>
        <pt x="451" y="297" on="0"/>
        <pt x="387" y="281" on="1"/>
        <pt x="475" y="115" on="1"/>
        <pt x="488" y="92" on="0"/>
        <pt x="513" y="76" on="0"/>
        <pt x="534" y="76" on="1"/>
        <pt x="560" y="76" on="1"/>
        <pt x="560" y="8" on="1"/>
        <pt x="560" y="-3" on="0"/>
        <pt x="549" y="-3" on="1"/>
        <pt x="517" y="-3" on="1"/>
        <pt x="478" y="-3" on="0"/>
        <pt x="427" y="31" on="0"/>
        <pt x="406" y="71" on="1"/>
        <pt x="301" y="274" on="1"/>
        <pt x="175" y="274" on="1"/>
      </contour>
      <contour>
        <pt x="309" y="623" on="1"/>
        <pt x="175" y="623" on="1"/>
        <pt x="175" y="348" on="1"/>
        <pt x="312" y="348" on="1"/>
        <pt x="436" y="348" on="0"/>
        <pt x="436" y="465" on="1"/>
        <pt x="436" y="513" on="1"/>
        <pt x="436" y="570" on="0"/>
        <pt x="375" y="623" on="0"/>
      </contour>
    </TTGlyph>
    <TTGlyph name="Racute" xMin="33" yMin="-3" xMax="560" yMax="947">
      <contour>
        <pt x="323" y="775" on="1"/>
        <pt x="256" y="775" on="1"/>
        <pt x="285" y="820" on="0"/>
        <pt x="336" y="901" on="0"/>
        <pt x="365" y="947" on="1"/>
        <pt x="459" y="947" on="1"/>
        <pt x="465" y="947" on="0"/>
        <pt x="470" y="938" on="0"/>
        <pt x="465" y="933" on="1"/>
        <pt x="441" y="904" on="0"/>
        <pt x="407" y="863" on="0"/>
        <pt x="370" y="818" on="0"/>
        <pt x="339" y="782" on="1"/>
        <pt x="337" y="780" on="0"/>
        <pt x="329" y="775" on="0"/>
      </contour>
      <contour>
        <pt x="175" y="0" on="1"/>
        <pt x="103" y="0" on="1"/>
        <pt x="98" y="0" on="0"/>
        <pt x="95" y="3" on="1"/>
        <pt x="92" y="6" on="0"/>
        <pt x="92" y="11" on="1"/>
        <pt x="92" y="623" on="1"/>
        <pt x="44" y="623" on="1"/>
        <pt x="39" y="623" on="0"/>
        <pt x="36" y="626" on="1"/>
        <pt x="33" y="629" on="0"/>
        <pt x="33" y="634" on="1"/>
        <pt x="33" y="700" on="1"/>
        <pt x="309" y="700" on="1"/>
        <pt x="371" y="700" on="0"/>
        <pt x="466" y="665" on="0"/>
        <pt x="521" y="583" on="0"/>
        <pt x="521" y="510" on="1"/>
        <pt x="521" y="462" on="1"/>
        <pt x="521" y="390" on="0"/>
        <pt x="451" y="297" on="0"/>
        <pt x="387" y="281" on="1"/>
        <pt x="475" y="115" on="1"/>
        <pt x="488" y="92" on="0"/>
        <pt x="513" y="76" on="0"/>
        <pt x="534" y="76" on="1"/>
        <pt x="560" y="76" on="1"/>
        <pt x="560" y="8" on="1"/>
        <pt x="560" y="-3" on="0"/>
        <pt x="549" y="-3" on="1"/>
        <pt x="517" y="-3" on="1"/>
        <pt x="478" y="-3" on="0"/>
        <pt x="427" y="31" on="0"/>
        <pt x="406" y="71" on="1"/>
        <pt x="301" y="274" on="1"/>
        <pt x="175" y="274" on="1"/>
      </contour>
      <contour>
        <pt x="309" y="623" on="1"/>
        <pt x="175" y="623" on="1"/>
        <pt x="175" y="348" on="1"/>
        <pt x="312" y="348" on="1"/>
        <pt x="436" y="348" on="0"/>
        <pt x="436" y="465" on="1"/>
        <pt x="436" y="513" on="1"/>
        <pt x="436" y="570" on="0"/>
        <pt x="375" y="623" on="0"/>
      </contour>
    </TTGlyph>
    <TTGlyph name="Rcaron" xMin="33" yMin="-3" xMax="560" yMax="945">
      <contour>
        <pt x="71" y="945" on="1"/>
        <pt x="145" y="945" on="1"/>
        <pt x="156" y="945" on="0"/>
        <pt x="168" y="941" on="0"/>
        <pt x="175" y="934" on="1"/>
        <pt x="190" y="923" on="0"/>
        <pt x="256" y="870" on="0"/>
        <pt x="297" y="838" on="1"/>
        <pt x="337" y="869" on="0"/>
        <pt x="403" y="921" on="0"/>
        <pt x="432" y="945" on="1"/>
        <pt x="501" y="945" on="1"/>
        <pt x="513" y="945" on="0"/>
        <pt x="513" y="938" on="1"/>
        <pt x="513" y="934" on="0"/>
        <pt x="505" y="926" on="0"/>
        <pt x="490" y="912" on="1"/>
        <pt x="478" y="901" on="0"/>
        <pt x="436" y="864" on="0"/>
        <pt x="391" y="822" on="0"/>
        <pt x="351" y="786" on="0"/>
        <pt x="340" y="776" on="1"/>
        <pt x="267" y="776" on="1"/>
        <pt x="260" y="776" on="0"/>
        <pt x="248" y="783" on="0"/>
        <pt x="233" y="796" on="1"/>
        <pt x="225" y="804" on="0"/>
        <pt x="188" y="838" on="0"/>
        <pt x="140" y="882" on="0"/>
        <pt x="91" y="927" on="0"/>
      </contour>
      <contour>
        <pt x="175" y="0" on="1"/>
        <pt x="103" y="0" on="1"/>
        <pt x="98" y="0" on="0"/>
        <pt x="95" y="3" on="1"/>
        <pt x="92" y="6" on="0"/>
        <pt x="92" y="11" on="1"/>
        <pt x="92" y="623" on="1"/>
        <pt x="44" y="623" on="1"/>
        <pt x="39" y="623" on="0"/>
        <pt x="36" y="626" on="1"/>
        <pt x="33" y="629" on="0"/>
        <pt x="33" y="634" on="1"/>
        <pt x="33" y="700" on="1"/>
        <pt x="309" y="700" on="1"/>
        <pt x="371" y="700" on="0"/>
        <pt x="466" y="665" on="0"/>
        <pt x="521" y="583" on="0"/>
        <pt x="521" y="510" on="1"/>
        <pt x="521" y="462" on="1"/>
        <pt x="521" y="390" on="0"/>
        <pt x="451" y="297" on="0"/>
        <pt x="387" y="281" on="1"/>
        <pt x="475" y="115" on="1"/>
        <pt x="488" y="92" on="0"/>
        <pt x="513" y="76" on="0"/>
        <pt x="534" y="76" on="1"/>
        <pt x="560" y="76" on="1"/>
        <pt x="560" y="8" on="1"/>
        <pt x="560" y="-3" on="0"/>
        <pt x="549" y="-3" on="1"/>
        <pt x="517" y="-3" on="1"/>
        <pt x="478" y="-3" on="0"/>
        <pt x="427" y="31" on="0"/>
        <pt x="406" y="71" on="1"/>
        <pt x="301" y="274" on="1"/>
        <pt x="175" y="274" on="1"/>
      </contour>
      <contour>
        <pt x="309" y="623" on="1"/>
        <pt x="175" y="623" on="1"/>
        <pt x="175" y="348" on="1"/>
        <pt x="312" y="348" on="1"/>
        <pt x="436" y="348" on="0"/>
        <pt x="436" y="465" on="1"/>
        <pt x="436" y="513" on="1"/>
        <pt x="436" y="570" on="0"/>
        <pt x="375" y="623" on="0"/>
      </contour>
    </TTGlyph>
    <TTGlyph name="Rcommaaccent" xMin="33" yMin="-239" xMax="560" yMax="700">
      <contour>
        <pt x="175" y="0" on="1"/>
        <pt x="103" y="0" on="1"/>
        <pt x="98" y="0" on="0"/>
        <pt x="95" y="3" on="1"/>
        <pt x="92" y="6" on="0"/>
        <pt x="92" y="11" on="1"/>
        <pt x="92" y="623" on="1"/>
        <pt x="44" y="623" on="1"/>
        <pt x="39" y="623" on="0"/>
        <pt x="36" y="626" on="1"/>
        <pt x="33" y="629" on="0"/>
        <pt x="33" y="634" on="1"/>
        <pt x="33" y="700" on="1"/>
        <pt x="309" y="700" on="1"/>
        <pt x="371" y="700" on="0"/>
        <pt x="466" y="665" on="0"/>
        <pt x="521" y="583" on="0"/>
        <pt x="521" y="510" on="1"/>
        <pt x="521" y="462" on="1"/>
        <pt x="521" y="390" on="0"/>
        <pt x="451" y="297" on="0"/>
        <pt x="387" y="281" on="1"/>
        <pt x="475" y="115" on="1"/>
        <pt x="488" y="92" on="0"/>
        <pt x="513" y="76" on="0"/>
        <pt x="534" y="76" on="1"/>
        <pt x="560" y="76" on="1"/>
        <pt x="560" y="8" on="1"/>
        <pt x="560" y="-3" on="0"/>
        <pt x="549" y="-3" on="1"/>
        <pt x="517" y="-3" on="1"/>
        <pt x="478" y="-3" on="0"/>
        <pt x="427" y="31" on="0"/>
        <pt x="406" y="71" on="1"/>
        <pt x="301" y="274" on="1"/>
        <pt x="175" y="274" on="1"/>
      </contour>
      <contour>
        <pt x="309" y="623" on="1"/>
        <pt x="175" y="623" on="1"/>
        <pt x="175" y="348" on="1"/>
        <pt x="312" y="348" on="1"/>
        <pt x="436" y="348" on="0"/>
        <pt x="436" y="465" on="1"/>
        <pt x="436" y="513" on="1"/>
        <pt x="436" y="570" on="0"/>
        <pt x="375" y="623" on="0"/>
      </contour>
      <contour>
        <pt x="286" y="-239" on="1"/>
        <pt x="228" y="-239" on="1"/>
        <pt x="238" y="-189" on="0"/>
        <pt x="253" y="-112" on="0"/>
        <pt x="262" y="-67" on="1"/>
        <pt x="346" y="-67" on="1"/>
        <pt x="352" y="-67" on="0"/>
        <pt x="359" y="-75" on="0"/>
        <pt x="357" y="-81" on="1"/>
        <pt x="346" y="-110" on="0"/>
        <pt x="329" y="-154" on="0"/>
        <pt x="313" y="-198" on="0"/>
        <pt x="301" y="-229" on="1"/>
        <pt x="300" y="-233" on="0"/>
        <pt x="293" y="-239" on="0"/>
      </contour>
    </TTGlyph>
    <TTGlyph name="S" xMin="72" yMin="-17" xMax="532" yMax="717">
      <contour>
        <pt x="293" y="-17" on="1"/>
        <pt x="223" y="-17" on="0"/>
        <pt x="107" y="19" on="0"/>
        <pt x="75" y="50" on="1"/>
        <pt x="72" y="53" on="0"/>
        <pt x="72" y="58" on="1"/>
        <pt x="72" y="134" on="1"/>
        <pt x="86" y="134" on="1"/>
        <pt x="133" y="94" on="0"/>
        <pt x="229" y="60" on="0"/>
        <pt x="296" y="60" on="1"/>
        <pt x="371" y="60" on="0"/>
        <pt x="452" y="116" on="0"/>
        <pt x="452" y="162" on="1"/>
        <pt x="452" y="197" on="1"/>
        <pt x="452" y="238" on="0"/>
        <pt x="411" y="282" on="0"/>
        <pt x="349" y="301" on="1"/>
        <pt x="252" y="330" on="1"/>
        <pt x="156" y="359" on="0"/>
        <pt x="83" y="440" on="0"/>
        <pt x="83" y="492" on="1"/>
        <pt x="83" y="538" on="1"/>
        <pt x="83" y="590" on="0"/>
        <pt x="143" y="670" on="0"/>
        <pt x="249" y="717" on="0"/>
        <pt x="318" y="717" on="1"/>
        <pt x="387" y="717" on="0"/>
        <pt x="489" y="688" on="0"/>
        <pt x="511" y="666" on="1"/>
        <pt x="518" y="659" on="0"/>
        <pt x="518" y="647" on="1"/>
        <pt x="518" y="517" on="1"/>
        <pt x="449" y="517" on="1"/>
        <pt x="444" y="517" on="0"/>
        <pt x="442" y="519" on="1"/>
        <pt x="439" y="522" on="0"/>
        <pt x="439" y="528" on="1"/>
        <pt x="439" y="622" on="1"/>
        <pt x="388" y="642" on="0"/>
        <pt x="319" y="642" on="1"/>
        <pt x="247" y="642" on="0"/>
        <pt x="162" y="584" on="0"/>
        <pt x="162" y="532" on="1"/>
        <pt x="162" y="505" on="1"/>
        <pt x="162" y="465" on="0"/>
        <pt x="210" y="424" on="0"/>
        <pt x="277" y="404" on="1"/>
        <pt x="374" y="376" on="1"/>
        <pt x="462" y="350" on="0"/>
        <pt x="532" y="268" on="0"/>
        <pt x="532" y="208" on="1"/>
        <pt x="532" y="158" on="1"/>
        <pt x="532" y="108" on="0"/>
        <pt x="474" y="28" on="0"/>
        <pt x="367" y="-17" on="0"/>
      </contour>
    </TTGlyph>
    <TTGlyph name="Sacute" xMin="72" yMin="-17" xMax="532" yMax="947">
      <contour>
        <pt x="333" y="775" on="1"/>
        <pt x="266" y="775" on="1"/>
        <pt x="295" y="820" on="0"/>
        <pt x="346" y="901" on="0"/>
        <pt x="375" y="947" on="1"/>
        <pt x="469" y="947" on="1"/>
        <pt x="475" y="947" on="0"/>
        <pt x="480" y="938" on="0"/>
        <pt x="475" y="933" on="1"/>
        <pt x="451" y="904" on="0"/>
        <pt x="417" y="863" on="0"/>
        <pt x="380" y="818" on="0"/>
        <pt x="349" y="782" on="1"/>
        <pt x="347" y="780" on="0"/>
        <pt x="339" y="775" on="0"/>
      </contour>
      <contour>
        <pt x="293" y="-17" on="1"/>
        <pt x="223" y="-17" on="0"/>
        <pt x="107" y="19" on="0"/>
        <pt x="75" y="50" on="1"/>
        <pt x="72" y="53" on="0"/>
        <pt x="72" y="58" on="1"/>
        <pt x="72" y="134" on="1"/>
        <pt x="86" y="134" on="1"/>
        <pt x="133" y="94" on="0"/>
        <pt x="229" y="60" on="0"/>
        <pt x="296" y="60" on="1"/>
        <pt x="371" y="60" on="0"/>
        <pt x="452" y="116" on="0"/>
        <pt x="452" y="162" on="1"/>
        <pt x="452" y="197" on="1"/>
        <pt x="452" y="238" on="0"/>
        <pt x="411" y="282" on="0"/>
        <pt x="349" y="301" on="1"/>
        <pt x="252" y="330" on="1"/>
        <pt x="156" y="359" on="0"/>
        <pt x="83" y="440" on="0"/>
        <pt x="83" y="492" on="1"/>
        <pt x="83" y="538" on="1"/>
        <pt x="83" y="590" on="0"/>
        <pt x="143" y="670" on="0"/>
        <pt x="249" y="717" on="0"/>
        <pt x="318" y="717" on="1"/>
        <pt x="387" y="717" on="0"/>
        <pt x="489" y="688" on="0"/>
        <pt x="511" y="666" on="1"/>
        <pt x="518" y="659" on="0"/>
        <pt x="518" y="647" on="1"/>
        <pt x="518" y="517" on="1"/>
        <pt x="449" y="517" on="1"/>
        <pt x="444" y="517" on="0"/>
        <pt x="442" y="519" on="1"/>
        <pt x="439" y="522" on="0"/>
        <pt x="439" y="528" on="1"/>
        <pt x="439" y="622" on="1"/>
        <pt x="388" y="642" on="0"/>
        <pt x="319" y="642" on="1"/>
        <pt x="247" y="642" on="0"/>
        <pt x="162" y="584" on="0"/>
        <pt x="162" y="532" on="1"/>
        <pt x="162" y="505" on="1"/>
        <pt x="162" y="465" on="0"/>
        <pt x="210" y="424" on="0"/>
        <pt x="277" y="404" on="1"/>
        <pt x="374" y="376" on="1"/>
        <pt x="462" y="350" on="0"/>
        <pt x="532" y="268" on="0"/>
        <pt x="532" y="208" on="1"/>
        <pt x="532" y="158" on="1"/>
        <pt x="532" y="108" on="0"/>
        <pt x="474" y="28" on="0"/>
        <pt x="367" y="-17" on="0"/>
      </contour>
    </TTGlyph>
</ttFont>
